<svg width="167" height="59" viewBox="0 0 167 59" fill="none" xmlns="http://www.w3.org/2000/svg">
<path d="M58.9342 26.5753L36.2154 39.4429L43.0557 43.699L58.5489 35.2411C57.2238 41.8763 53.6457 47.8466 48.4232 52.1364C43.2007 56.4261 36.6564 58.7704 29.9036 58.7704C23.1508 58.7704 16.6065 56.4261 11.384 52.1364C6.16149 47.8466 2.58335 41.8763 1.25824 35.2411L16.8551 43.5654L23.572 39.4181L0.853256 26.5753C1.07027 24.3328 1.54933 22.1236 2.28058 19.9931L29.8789 35.7707L57.5068 19.9882C58.2381 22.1187 58.7171 24.3279 58.9342 26.5704V26.5753Z" fill="#114377"/>
<path d="M29.9182 0.221634L4.89304 14.4006H21.0875V23.6554L29.77 28.6143L38.6748 23.5267V14.4006H54.6569L54.8742 14.2769L29.9182 0.221634Z" fill="#F5C257"/>
<path d="M79.5688 37.1562C80.4711 37.3624 81.2679 37.89 81.811 38.6409C82.345 39.4035 82.6203 40.3178 82.5963 41.249C82.6124 41.8826 82.4934 42.5122 82.2473 43.096C82.0011 43.6798 81.6335 44.2042 81.169 44.6342C80.151 45.5496 78.8167 46.0308 77.45 45.9754H69.5972V29.9355H77.0845C77.711 29.894 78.3394 29.9781 78.933 30.1829C79.5267 30.3877 80.0736 30.7091 80.5417 31.1282C80.9314 31.4775 81.2429 31.9055 81.4557 32.384C81.6685 32.8625 81.7778 33.3808 81.7765 33.9047C81.7758 34.6105 81.5642 35.3 81.169 35.8843C80.7936 36.4766 80.2298 36.9247 79.5688 37.1562V37.1562ZM76.324 33.3603H73.5582V36.0723H76.1511C76.5924 36.102 77.029 35.9661 77.3759 35.6913C77.5146 35.5677 77.6242 35.4148 77.6968 35.2436C77.7694 35.0725 77.8032 34.8873 77.7957 34.7015C77.7987 34.5232 77.7647 34.3462 77.6959 34.1818C77.627 34.0173 77.5248 33.869 77.3957 33.7463C77.2513 33.6143 77.0822 33.5122 76.8983 33.446C76.7144 33.3797 76.5192 33.3506 76.324 33.3603V33.3603ZM73.5582 42.4863H76.5857C77.0885 42.5227 77.5853 42.3591 77.9686 42.031C78.1261 41.8899 78.2517 41.7166 78.3368 41.5228C78.422 41.3291 78.4649 41.1193 78.4625 40.9076C78.4665 40.692 78.4245 40.478 78.3393 40.28C78.2541 40.082 78.1277 39.9045 77.9686 39.7594C77.7928 39.6013 77.5875 39.4796 77.3646 39.4015C77.1417 39.3233 76.9055 39.2902 76.6697 39.3041H73.5582V42.4863Z" fill="#114377"/>
<path d="M92.4398 46.2179C91.3323 46.2451 90.2308 46.0479 89.2014 45.638C88.1719 45.2281 87.2357 44.6139 86.4489 43.8325C84.9135 42.2602 84.0537 40.1479 84.0537 37.9481C84.0537 35.7482 84.9135 33.6359 86.4489 32.0636C87.6139 30.8768 89.1052 30.0646 90.7326 29.7307C92.3601 29.3967 94.05 29.5561 95.5867 30.1885C97.1234 30.8209 98.4373 31.8977 99.3607 33.2814C100.284 34.6652 100.775 36.2933 100.772 37.958C100.796 39.0481 100.597 40.1316 100.188 41.1419C99.7781 42.1521 99.1668 43.0678 98.3911 43.8325C97.614 44.6158 96.6851 45.2316 95.6616 45.6418C94.6381 46.0521 93.5417 46.2481 92.4398 46.2179V46.2179ZM92.4398 42.2042C92.9899 42.2139 93.5363 42.1114 94.0457 41.903C94.5551 41.6945 95.0169 41.3845 95.4031 40.9917C95.8019 40.5923 96.115 40.1154 96.3231 39.5903C96.5312 39.0652 96.6299 38.5029 96.6131 37.9382C96.6179 37.3703 96.5094 36.8072 96.294 36.282C96.0786 35.7568 95.7606 35.28 95.3586 34.8797C94.97 34.4888 94.5082 34.1787 93.9997 33.9671C93.4911 33.7555 92.9459 33.6465 92.3953 33.6465C91.8447 33.6465 91.2995 33.7555 90.791 33.9671C90.2825 34.1787 89.8207 34.4888 89.432 34.8797C88.6598 35.7052 88.23 36.7943 88.23 37.9258C88.23 39.0573 88.6598 40.1464 89.432 40.9719C89.8179 41.3733 90.2827 41.69 90.797 41.9021C91.3113 42.1142 91.864 42.2171 92.42 42.2042H92.4398Z" fill="#114377"/>
<path d="M110.55 46.1934C109.471 46.2239 108.397 46.0387 107.391 45.6487C106.384 45.2586 105.465 44.6716 104.688 43.9217C103.904 43.1506 103.289 42.2242 102.883 41.2016C102.476 40.1791 102.287 39.0829 102.327 37.9829C102.295 36.8854 102.486 35.7929 102.888 34.7716C103.29 33.7502 103.895 32.8211 104.665 32.0406C105.436 31.2601 106.356 30.6444 107.371 30.2307C108.386 29.817 109.474 29.614 110.57 29.6338C111.925 29.6215 113.266 29.9105 114.496 30.4801C115.644 31.0102 116.644 31.8139 117.41 32.821L114.832 35.5282C113.594 34.2084 112.254 33.5485 110.812 33.5485C110.237 33.5357 109.666 33.6405 109.134 33.8567C108.601 34.0729 108.119 34.3958 107.715 34.8056C107.309 35.2285 106.992 35.7281 106.78 36.2753C106.569 36.8225 106.469 37.4063 106.485 37.9928C106.469 38.5695 106.57 39.1435 106.782 39.6802C106.993 40.2169 107.31 40.7052 107.715 41.1156C108.117 41.5191 108.597 41.8367 109.125 42.0493C109.653 42.262 110.218 42.3652 110.787 42.3529C111.584 42.3458 112.369 42.1566 113.082 41.7999C113.794 41.4431 114.417 40.9281 114.901 40.2941L117.583 42.8725C116.79 43.8892 115.777 44.7117 114.62 45.2778C113.354 45.9008 111.96 46.2145 110.55 46.1934Z" fill="#114377"/>
<path d="M122.423 45.9556H117.731L122.704 37.8936L118.141 29.9751H122.793L125.322 34.8747L128.093 29.9751H132.789L127.9 37.8936L132.681 45.9804H128.048L125.282 40.9323L122.423 45.9556Z" fill="#114377"/>
<path d="M141.053 46.2179C139.945 46.2454 138.843 46.0483 137.814 45.6384C136.784 45.2285 135.848 44.6142 135.062 43.8325C133.526 42.2602 132.666 40.1479 132.666 37.9481C132.666 35.7482 133.526 33.6359 135.062 32.0637C136.227 30.8768 137.718 30.0646 139.345 29.7307C140.973 29.3967 142.663 29.5561 144.199 30.1885C145.736 30.8209 147.05 31.8977 147.973 33.2814C148.897 34.6652 149.388 36.2933 149.384 37.958C149.408 39.0481 149.21 40.1316 148.8 41.1419C148.391 42.1521 147.78 43.0678 147.004 43.8325C146.227 44.6156 145.298 45.2312 144.274 45.6414C143.251 46.0517 142.154 46.2478 141.053 46.2179V46.2179ZM141.053 42.2042C141.603 42.2145 142.149 42.1123 142.659 41.9038C143.168 41.6953 143.63 41.385 144.016 40.9917C144.416 40.5931 144.729 40.1163 144.938 39.591C145.146 39.0657 145.244 38.5031 145.226 37.9382C145.232 37.3702 145.124 36.8067 144.908 36.2814C144.693 35.756 144.374 35.2793 143.971 34.8797C143.583 34.4888 143.121 34.1787 142.612 33.9671C142.104 33.7555 141.559 33.6465 141.008 33.6465C140.457 33.6465 139.912 33.7555 139.404 33.9671C138.895 34.1787 138.433 34.4888 138.045 34.8797C137.273 35.7052 136.843 36.7943 136.843 37.9258C136.843 39.0573 137.273 40.1464 138.045 40.9719C138.431 41.3728 138.896 41.6892 139.41 41.9013C139.924 42.1134 140.477 42.2165 141.033 42.2042H141.053Z" fill="#114377"/>
<path d="M164.418 29.9356V42.2043H166.166V49.2072H162.146V45.9556H154.14V49.2072H150.095V42.2043H151.577C152.69 40.0828 153.49 36.7455 153.977 32.1924L154.234 29.9356H164.418ZM155.74 42.2043H160.378V33.7315H157.711L157.558 34.7708C157.226 37.308 156.617 39.8009 155.74 42.2043V42.2043Z" fill="#114377"/>
<path d="M71.4785 26.6889H69.8487V20.0473H74.185V21.532H71.4785V26.6889Z" fill="#114377"/>
<path d="M74.9359 20.0474H77.5733C77.9144 20.0187 78.2576 20.063 78.5803 20.1773C78.9031 20.2916 79.1978 20.4734 79.4451 20.7105C79.6519 20.9297 79.8133 21.1878 79.9201 21.4698C80.0269 21.7518 80.077 22.0521 80.0674 22.3536C80.077 22.6526 80.0255 22.9505 79.9159 23.2288C79.8063 23.5071 79.6411 23.76 79.4303 23.9719C79.159 24.203 78.8448 24.3779 78.5057 24.4866C78.1667 24.5954 77.8095 24.6357 77.4548 24.6054H76.6102V26.689H74.9359V20.0474ZM76.6102 23.091H77.5338C77.6422 23.098 77.7509 23.0833 77.8535 23.0476C77.9561 23.0119 78.0506 22.956 78.1314 22.8832C78.2678 22.7358 78.3436 22.5422 78.3436 22.3412C78.3436 22.1402 78.2678 21.9467 78.1314 21.7993C78.0584 21.7263 77.9712 21.6693 77.8751 21.6318C77.779 21.5944 77.6763 21.5772 77.5733 21.5816H76.6102V23.091Z" fill="#114377"/>
<path d="M81.5147 26.7878C81.1715 26.797 80.8316 26.7187 80.527 26.5601L80.6405 25.2239C80.8232 25.3026 81.0196 25.3446 81.2184 25.3476C81.4722 25.3394 81.7171 25.252 81.9189 25.0976C82.1208 24.9432 82.2695 24.7296 82.3445 24.4865L80.28 20.0323H82.2556L83.2433 22.6306L84.1126 20.0323H86.0881L85.3917 21.6309C84.8089 22.9968 84.4023 23.9173 84.1718 24.3924C84.0385 24.6646 83.9595 24.8329 83.9298 24.8874C83.8656 25.021 83.7866 25.1793 83.6878 25.3823C83.6039 25.5448 83.5046 25.6989 83.3915 25.8425C83.176 26.1147 82.9092 26.3417 82.6062 26.5106C82.2708 26.692 81.8958 26.7872 81.5147 26.7878V26.7878Z" fill="#114377"/>
<path d="M88.2954 26.6889H86.6162V20.0473H92.3057V26.6889H90.6166V21.6558H88.2954V26.6889Z" fill="#114377"/>
<path d="M95.2937 26.6889H93.6144V20.0473H99.304V26.6889H97.6149V21.6558H95.2937V26.6889Z" fill="#114377"/>
<path d="M106.317 26.6889H104.594L104.209 25.4764H102.1L101.705 26.6889H99.976L102.396 20.0473H103.957L106.317 26.6889ZM102.524 24.0363H103.804L103.176 22.0566L102.524 24.0363Z" fill="#114377"/>
<path d="M114.94 26.6889H112.891L111.409 24.2986L110.688 25.1696V26.6889H109.014V20.0473H110.688V22.7792L112.777 20.0473H114.807L112.51 22.9871L114.94 26.6889Z" fill="#114377"/>
<path d="M118.195 26.7977C117.738 26.8073 117.284 26.7247 116.86 26.5546C116.436 26.3845 116.05 26.1306 115.726 25.8079C115.252 25.3202 114.933 24.7037 114.807 24.0352C114.681 23.3667 114.754 22.6759 115.018 22.0489C115.281 21.4219 115.723 20.8865 116.288 20.5094C116.853 20.1323 117.516 19.9303 118.195 19.9285C118.652 19.9154 119.107 19.9965 119.532 20.1667C119.957 20.337 120.342 20.5928 120.664 20.9183C121.307 21.5671 121.667 22.4441 121.667 23.3581C121.667 24.2722 121.307 25.1491 120.664 25.798C120.343 26.1253 119.958 26.3829 119.533 26.5549C119.109 26.7269 118.653 26.8095 118.195 26.7977V26.7977ZM118.195 25.1349C118.424 25.141 118.653 25.1004 118.866 25.0153C119.079 24.9302 119.272 24.8025 119.435 24.6399C119.761 24.2991 119.943 23.8451 119.943 23.373C119.943 22.9008 119.761 22.4469 119.435 22.106C119.274 21.9414 119.082 21.8107 118.87 21.7214C118.658 21.6321 118.43 21.5861 118.2 21.5861C117.97 21.5861 117.742 21.6321 117.53 21.7214C117.318 21.8107 117.126 21.9414 116.965 22.106C116.801 22.2704 116.673 22.4668 116.588 22.683C116.503 22.8993 116.463 23.1308 116.471 23.3631C116.463 23.5968 116.503 23.8298 116.588 24.0477C116.673 24.2655 116.801 24.4637 116.965 24.63C117.124 24.7926 117.314 24.9212 117.523 25.008C117.733 25.0948 117.958 25.1379 118.185 25.1349H118.195Z" fill="#114377"/>
<path d="M124.27 26.6889H122.626V20.0473H123.865L126.251 23.4622L128.627 20.0473H129.876V26.6889H128.217V23.4968L126.557 25.8278H125.93L124.27 23.4968V26.6889Z" fill="#114377"/>
<path d="M132.864 26.6889H131.185V20.0473H136.874V26.6889H135.19V21.6558H132.869L132.864 26.6889Z" fill="#114377"/>
<path d="M143.888 26.6889H142.164L141.779 25.4764H139.67L139.275 26.6889H137.546L139.966 20.0473H141.527L143.888 26.6889ZM140.094 24.0363H141.374L140.746 22.0566L140.094 24.0363Z" fill="#114377"/>
<path d="M146.253 26.6889H144.574V20.0473H146.248V22.5812H148.574V20.0473H150.258V26.6889H148.574V24.2144H146.253V26.6889Z" fill="#114377"/>
<path d="M152.644 26.6889H151.577V20.0473H153.217V23.9175L156.249 20.0473H157.336V26.6889H155.691V22.8584L152.644 26.6889Z" fill="#114377"/>
<path d="M159.712 26.689H158.645V20.0474H160.284V23.9176L163.342 20.0474H164.428V26.689H162.788V22.8585L159.712 26.689ZM159.623 18.632L160.447 17.7907C160.626 18.0328 160.845 18.2421 161.094 18.4093C161.29 18.5227 161.513 18.5823 161.739 18.5823C161.965 18.5823 162.187 18.5227 162.383 18.4093C162.633 18.2421 162.852 18.0328 163.03 17.7907L163.855 18.632C163.615 18.9734 163.297 19.2528 162.928 19.4472C162.558 19.6417 162.149 19.7456 161.732 19.7505C161.316 19.7469 160.908 19.6434 160.541 19.4488C160.174 19.2541 159.859 18.974 159.623 18.632V18.632Z" fill="#114377"/>
<path d="M123.475 10.6194L124.058 6.71459H122.72L122.818 6.01677H126.221L126.123 6.71459H124.779L124.196 10.6095L123.475 10.6194Z" fill="#908F90"/>
<path d="M129.856 7.75879L129.93 7.26389H130.587L130.093 10.6094H129.441L129.51 10.1145C129.358 10.2957 129.17 10.4421 128.957 10.5437C128.744 10.6453 128.511 10.6998 128.275 10.7035C128.058 10.7162 127.841 10.675 127.644 10.5835C127.447 10.492 127.275 10.353 127.144 10.1789C126.888 9.79145 126.794 9.31866 126.883 8.86243C126.941 8.4012 127.168 7.97805 127.52 7.67466C127.863 7.36789 128.309 7.20182 128.769 7.20945C128.982 7.20202 129.193 7.24847 129.383 7.3445C129.573 7.44053 129.735 7.58302 129.856 7.75879ZM128.468 10.0749C128.618 10.0769 128.767 10.0486 128.907 9.9916C129.046 9.93464 129.172 9.85021 129.278 9.74336C129.506 9.53174 129.651 9.24579 129.688 8.93666C129.714 8.80111 129.712 8.66151 129.682 8.52684C129.651 8.39217 129.593 8.26541 129.51 8.15472C129.426 8.04391 129.317 7.95531 129.191 7.89665C129.066 7.83799 128.928 7.81105 128.789 7.81818C128.502 7.8168 128.225 7.92066 128.009 8.11017C127.793 8.29821 127.646 8.55217 127.589 8.83273C127.553 8.97957 127.546 9.1321 127.569 9.28158C127.592 9.43106 127.644 9.57453 127.722 9.70377C127.803 9.826 127.914 9.92471 128.045 9.98989C128.176 10.0551 128.322 10.0844 128.468 10.0749V10.0749Z" fill="#908F90"/>
<path d="M134.8 7.27398H135.684L133.95 8.69435L135.215 10.6294H134.365L133.402 9.14471L133.061 9.41691L132.883 10.6344H132.227L132.72 7.28882H133.387L133.19 8.61022L134.8 7.27398Z" fill="#908F90"/>
<path d="M138.257 10.6736C138.033 10.6901 137.807 10.6539 137.599 10.568C137.391 10.4821 137.205 10.3488 137.057 10.1787C136.918 10.0005 136.817 9.79429 136.764 9.57405C136.71 9.35382 136.704 9.12462 136.746 8.90187C136.792 8.41854 137.02 7.97084 137.383 7.64976C137.745 7.34446 138.204 7.17939 138.677 7.18455C138.993 7.17723 139.304 7.25775 139.576 7.41716C139.828 7.57991 140.022 7.81921 140.129 8.10013L139.547 8.39707C139.478 8.21688 139.354 8.0634 139.192 7.95917C139.03 7.85495 138.84 7.80548 138.648 7.81803C138.341 7.81726 138.044 7.93207 137.818 8.13972C137.583 8.35263 137.435 8.64538 137.403 8.96126C137.381 9.09978 137.387 9.24134 137.421 9.37743C137.455 9.51352 137.516 9.64131 137.601 9.75311C137.684 9.85678 137.79 9.93944 137.911 9.99444C138.032 10.0495 138.164 10.0753 138.297 10.0698C138.509 10.0684 138.718 10.014 138.904 9.91148C139.1 9.81088 139.27 9.66498 139.398 9.48586L139.892 9.85704C139.718 10.1196 139.478 10.3313 139.196 10.4707C138.903 10.6101 138.582 10.6795 138.257 10.6736V10.6736Z" fill="#908F90"/>
<path d="M143.181 10.7084C142.953 10.7218 142.726 10.6808 142.517 10.5888C142.308 10.4967 142.124 10.3562 141.981 10.1788C141.842 9.99987 141.744 9.79349 141.691 9.57337C141.638 9.35325 141.632 9.1244 141.675 8.90198C141.746 8.42706 141.984 7.99328 142.346 7.67854C142.709 7.36379 143.171 7.18869 143.65 7.18466C143.875 7.17238 144.1 7.214 144.306 7.30608C144.513 7.39816 144.694 7.53805 144.835 7.71421C144.976 7.89373 145.077 8.10175 145.129 8.3239C145.182 8.54605 145.186 8.77705 145.142 9.00096C145.068 9.47602 144.828 9.90935 144.465 10.2234C144.11 10.5367 143.654 10.7092 143.181 10.7084V10.7084ZM143.225 10.07C143.531 10.0675 143.824 9.94899 144.045 9.73837C144.28 9.53103 144.434 9.24697 144.48 8.93663C144.506 8.79962 144.502 8.65869 144.47 8.52308C144.437 8.38748 144.377 8.26025 144.292 8.14973C144.213 8.04219 144.108 7.95576 143.987 7.89797C143.867 7.84018 143.734 7.81278 143.601 7.81814C143.298 7.81818 143.007 7.93313 142.786 8.13983C142.552 8.34532 142.399 8.62805 142.356 8.93663C142.327 9.07558 142.329 9.21908 142.36 9.35741C142.392 9.49574 142.453 9.62567 142.539 9.73837C142.618 9.84459 142.722 9.93012 142.842 9.98781C142.961 10.0455 143.093 10.0737 143.225 10.07V10.07Z" fill="#908F90"/>
<path d="M147.389 7.27398H150.253L149.759 10.6195H149.068L149.478 7.87281H147.996L147.586 10.6195H146.905L147.389 7.27398Z" fill="#908F90"/>
<path d="M154.911 7.75892L154.985 7.26402H155.642L155.148 10.6096H154.496L154.565 10.1147C154.414 10.2887 154.227 10.4285 154.018 10.5249C153.808 10.6213 153.581 10.6721 153.35 10.6739C153.132 10.6939 152.913 10.6591 152.712 10.5727C152.511 10.4863 152.335 10.3509 152.199 10.179C152.071 9.98794 151.981 9.77331 151.935 9.54741C151.889 9.32151 151.889 9.08878 151.933 8.86256C151.991 8.40133 152.218 7.97818 152.57 7.67478C152.911 7.3741 153.35 7.21019 153.805 7.21452C154.02 7.20362 154.235 7.24789 154.428 7.34314C154.622 7.43838 154.788 7.58148 154.911 7.75892V7.75892ZM153.518 10.0751C153.669 10.0769 153.819 10.0485 153.959 9.99152C154.099 9.93458 154.226 9.85026 154.333 9.74348C154.559 9.53057 154.704 9.24529 154.743 8.93679C154.771 8.80097 154.769 8.66067 154.738 8.52564C154.706 8.3906 154.646 8.26407 154.56 8.15484C154.478 8.04411 154.369 7.95547 154.244 7.89678C154.119 7.83808 153.982 7.81113 153.844 7.81831C153.557 7.81647 153.279 7.92038 153.064 8.1103C152.847 8.29784 152.697 8.55178 152.639 8.83286C152.57 9.13016 152.619 9.44282 152.777 9.70389C152.857 9.8261 152.967 9.92489 153.097 9.99012C153.228 10.0554 153.373 10.0847 153.518 10.0751V10.0751Z" fill="#908F90"/>
<path d="M159.524 7.20936C159.737 7.19961 159.95 7.23919 160.145 7.32502C160.34 7.41085 160.513 7.54062 160.65 7.70426C160.79 7.87978 160.892 8.08276 160.949 8.30013C161.006 8.5175 161.017 8.74442 160.981 8.96627C160.931 9.43797 160.717 9.87726 160.379 10.2085C160.218 10.3713 160.025 10.4993 159.812 10.5845C159.6 10.6696 159.372 10.7101 159.144 10.7034C158.915 10.708 158.69 10.6523 158.489 10.542C158.289 10.4317 158.121 10.2706 158.003 10.0749L157.731 12H157.05L157.756 7.2737H158.433L158.403 7.70426C158.546 7.54934 158.72 7.42549 158.912 7.34036C159.105 7.25524 159.313 7.21065 159.524 7.20936V7.20936ZM160.28 8.96132C160.302 8.82392 160.297 8.6834 160.264 8.54818C160.23 8.41297 160.17 8.28584 160.087 8.17442C160.002 8.06547 159.892 7.97851 159.767 7.92082C159.641 7.86313 159.504 7.83639 159.366 7.84283C159.217 7.83917 159.068 7.86628 158.93 7.92246C158.791 7.97865 158.666 8.06272 158.561 8.16947C158.346 8.37774 158.21 8.65402 158.176 8.95142C158.13 9.23302 158.198 9.52129 158.363 9.75316C158.45 9.86129 158.561 9.94729 158.687 10.0041C158.813 10.0609 158.951 10.0868 159.089 10.0798C159.238 10.0836 159.386 10.0575 159.524 10.0031C159.662 9.94873 159.788 9.8671 159.894 9.76306C160.117 9.54415 160.253 9.2527 160.28 8.94152V8.96132Z" fill="#908F90"/>
<path d="M165.267 7.27398H166.146L164.413 8.69435L165.682 10.6294H164.823L163.86 9.14472L163.519 9.41691L163.341 10.6195H162.665L163.158 7.27398H163.835L163.637 8.59537L165.267 7.27398Z" fill="#908F90"/>
</svg>
