<svg width="326" height="235" viewBox="0 0 326 235" fill="none" xmlns="http://www.w3.org/2000/svg">
<g clip-path="url(#clip0_1_1253)">
<path d="M163.026 78.5165C107.669 78.5165 70.6938 77.2602 57.3534 76.6844C56.3722 76.6452 55.4156 76.3671 54.5671 75.8744C53.7187 75.3817 53.0042 74.6895 52.486 73.8581C51.9679 73.0268 51.662 72.0816 51.5949 71.1052C51.5278 70.1289 51.7017 69.151 52.1012 68.257L72.532 21.8799C72.9767 20.8456 73.7058 19.9577 74.6351 19.3186C75.5644 18.6795 76.6561 18.3154 77.7842 18.2681C88.4723 17.7709 126.156 16.1482 163.053 16.1482C199.949 16.1482 237.607 17.7709 248.295 18.2681C249.423 18.3154 250.514 18.6795 251.444 19.3186C252.373 19.9577 253.102 20.8456 253.547 21.8799L273.978 68.257C274.377 69.151 274.551 70.1289 274.484 71.1052C274.417 72.0816 274.111 73.0268 273.593 73.8581C273.075 74.6895 272.36 75.3817 271.512 75.8744C270.663 76.3671 269.707 76.6452 268.726 76.6844C255.333 77.2602 218.331 78.5165 163.026 78.5165ZM163.026 18.0064C126.261 18.0064 88.5248 19.6291 77.863 20.1264C77.105 20.1569 76.3714 20.402 75.7482 20.8331C75.1249 21.2642 74.6379 21.8633 74.344 22.5604L53.9132 69.0422C53.6378 69.6468 53.5177 70.3103 53.5635 70.9727C53.6093 71.6352 53.8198 72.2759 54.1758 72.8371C54.5218 73.3992 55.0034 73.8661 55.5767 74.1953C56.1501 74.5244 56.797 74.7053 57.4584 74.7215C70.7726 75.2973 107.748 76.6583 163.026 76.6583C218.305 76.6583 255.254 75.2973 268.568 74.7215C269.229 74.7053 269.876 74.5244 270.45 74.1953C271.023 73.8661 271.505 73.3992 271.851 72.8371C272.207 72.2759 272.417 71.6352 272.463 70.9727C272.509 70.3103 272.389 69.6468 272.113 69.0422L251.682 22.6651C251.389 21.968 250.901 21.3689 250.278 20.9378C249.655 20.5067 248.921 20.2616 248.163 20.2311C237.502 19.7338 199.87 18.1111 163.026 18.1111V18.0064Z" fill="black"/>
<path d="M252.601 23.2407C252.341 23.2408 252.091 23.1396 251.905 22.9587C251.718 22.7779 251.61 22.5316 251.603 22.2724V20.7805C251.636 19.8218 251.306 18.8859 250.678 18.1586C250.051 17.4313 249.172 16.9658 248.216 16.8547C237.501 16.3574 199.87 14.7348 163.026 14.7348C126.182 14.7348 88.5245 16.3574 77.8627 16.8547C76.8972 16.9536 76.0052 17.4137 75.3667 18.1423C74.7283 18.8709 74.3909 19.8137 74.4225 20.7805V22.2724C74.3843 22.5051 74.2642 22.7168 74.0838 22.8695C73.9034 23.0222 73.6744 23.1061 73.4378 23.1061C73.2011 23.1061 72.9721 23.0222 72.7917 22.8695C72.6113 22.7168 72.4912 22.5051 72.453 22.2724V20.7805C72.4136 19.3176 72.9346 17.8945 73.9102 16.8007C74.8858 15.7069 76.2427 15.0243 77.7051 14.8918C88.472 14.3945 126.156 12.7719 163.052 12.7719C199.949 12.7719 237.606 14.3945 248.294 14.8918C249.757 15.0243 251.114 15.7069 252.089 16.8007C253.065 17.8945 253.586 19.3176 253.547 20.7805V22.2724C253.54 22.5228 253.439 22.7616 253.264 22.9411C253.089 23.1206 252.852 23.2276 252.601 23.2407Z" fill="black"/>
<path d="M272.192 74.9833H53.8344C53.6916 75.0066 53.5454 74.9987 53.406 74.9601C53.2666 74.9216 53.1372 74.8532 53.027 74.7598C52.9167 74.6665 52.8281 74.5503 52.7673 74.4194C52.7066 74.2886 52.6751 74.1461 52.6751 74.0019C52.6751 73.8577 52.7066 73.7152 52.7673 73.5843C52.8281 73.4534 52.9167 73.3373 53.027 73.2439C53.1372 73.1505 53.2666 73.0822 53.406 73.0436C53.5454 73.005 53.6916 72.9971 53.8344 73.0204H272.192C272.335 72.9971 272.481 73.005 272.62 73.0436C272.76 73.0822 272.889 73.1505 272.999 73.2439C273.11 73.3373 273.198 73.4534 273.259 73.5843C273.32 73.7152 273.351 73.8577 273.351 74.0019C273.351 74.1461 273.32 74.2886 273.259 74.4194C273.198 74.5503 273.11 74.6665 272.999 74.7598C272.889 74.8532 272.76 74.9216 272.62 74.9601C272.481 74.9987 272.335 75.0066 272.192 74.9833Z" fill="black"/>
<path d="M253.127 139.131C247.674 139.141 242.226 138.792 236.819 138.084C236.587 138.047 236.376 137.93 236.222 137.753C236.068 137.576 235.982 137.35 235.979 137.116C235.979 136.331 235.979 118.141 246.667 110.944H246.824C254.466 107.463 275.554 107.829 289.734 110.316C289.988 110.354 290.216 110.492 290.369 110.698C290.522 110.904 290.586 111.162 290.548 111.415L287.922 128.584C287.898 128.77 287.816 128.944 287.686 129.081C280.464 137.352 265.233 139.131 253.127 139.131ZM237.975 136.252C243.621 136.933 275.081 140.047 286.005 128.034L288.448 112.095C273.269 109.609 254.151 109.871 247.717 112.724C239.288 118.429 238.132 132.614 237.975 136.252Z" fill="black"/>
<path d="M164.05 143.45H161.976C149.686 143.45 140.967 143.267 133.772 143.136C129.203 143.136 125.447 142.979 122.06 142.979C116.437 142.777 111.088 140.512 107.038 136.619C102.075 132.405 98.7401 125.574 97.3483 116.911C97.3256 116.786 97.328 116.657 97.3554 116.532C97.3827 116.408 97.4345 116.29 97.5077 116.185C97.5809 116.081 97.6741 115.992 97.7819 115.923C97.8898 115.855 98.0101 115.808 98.1361 115.786C106.513 114.372 115.048 113.169 123.556 112.357C136.647 111.078 149.795 110.475 162.947 110.551C176.1 110.474 189.248 111.077 202.338 112.357C210.847 113.221 219.382 114.372 227.759 115.786C227.885 115.808 228.005 115.855 228.113 115.923C228.221 115.992 228.314 116.081 228.387 116.185C228.46 116.29 228.512 116.408 228.54 116.532C228.567 116.657 228.569 116.786 228.547 116.911C227.155 125.574 223.82 132.405 218.856 136.619C214.807 140.512 209.458 142.777 203.835 142.979C200.448 142.979 196.692 142.979 192.123 143.136C185.164 143.267 176.367 143.45 164.05 143.45ZM99.4492 117.565C100.302 124.254 103.425 130.451 108.299 135.127C111.97 138.759 116.889 140.865 122.06 141.016C125.447 141.016 129.229 141.016 133.798 141.173C140.889 141.304 149.555 141.487 161.976 141.487H164.05C176.34 141.487 185.059 141.304 192.228 141.173C196.797 141.173 200.579 141.016 203.967 141.016C209.138 140.867 214.058 138.762 217.727 135.127C222.601 130.451 225.724 124.254 226.577 117.565C218.699 116.231 210.401 115.131 202.286 114.32C189.196 113.034 176.048 112.431 162.895 112.514C149.742 112.418 136.593 113.021 123.504 114.32C115.547 115.158 107.459 116.231 99.4492 117.565Z" fill="black"/>
<path d="M164.05 148.108H161.976C149.686 148.108 140.967 147.951 133.772 147.82C129.202 147.82 125.447 147.663 122.059 147.663C116.441 147.466 111.093 145.211 107.038 141.33C100.237 135.546 98.2148 122.512 97.4532 117.618V116.963C97.4268 116.836 97.4274 116.704 97.4547 116.576C97.4821 116.449 97.5358 116.328 97.6123 116.223C97.6888 116.117 97.7866 116.028 97.8993 115.962C98.012 115.896 98.1373 115.853 98.2673 115.838C98.5245 115.8 98.7864 115.864 98.9973 116.015C99.2082 116.167 99.3514 116.394 99.3965 116.649V117.33C100.053 121.57 102.023 134.525 108.299 139.838C111.968 143.475 116.886 145.589 122.059 145.753C125.447 145.753 129.229 145.753 133.798 145.91C140.888 146.041 149.554 146.198 161.976 146.198H164.05C176.34 146.198 185.059 146.041 192.228 145.91C196.797 145.91 200.579 145.753 203.966 145.753C209.141 145.595 214.061 143.48 217.727 139.838C223.951 134.604 225.973 121.517 226.629 117.33V116.649C226.68 116.397 226.825 116.174 227.034 116.023C227.244 115.873 227.502 115.807 227.759 115.838C227.889 115.853 228.014 115.896 228.127 115.962C228.239 116.028 228.337 116.117 228.414 116.223C228.49 116.328 228.544 116.449 228.571 116.576C228.599 116.704 228.599 116.836 228.573 116.963V117.618C227.811 122.46 225.842 135.493 218.988 141.33C214.941 145.23 209.592 147.504 203.966 147.716C200.579 147.716 196.824 147.716 192.254 147.873C185.164 147.951 176.367 148.108 164.05 148.108Z" fill="black"/>
<path d="M98.32 117.775C98.189 117.775 98.0592 117.749 97.9382 117.699C97.8171 117.649 97.7071 117.576 97.6144 117.484C97.5217 117.391 97.4482 117.282 97.3981 117.161C97.3479 117.04 97.3221 116.911 97.3221 116.78C97.3221 101.784 78.9397 83.4108 57.117 76.6845C56.8677 76.6061 56.6593 76.4332 56.5365 76.2032C56.4138 75.9732 56.3865 75.7043 56.4605 75.4544C56.5393 75.206 56.7127 74.9982 56.9435 74.8759C57.1743 74.7535 57.444 74.7263 57.6948 74.8001C80.2527 81.7619 99.2917 100.972 99.2917 116.676C99.3063 116.813 99.2921 116.951 99.2502 117.082C99.2083 117.214 99.1395 117.335 99.0481 117.438C98.9568 117.541 98.8449 117.625 98.7196 117.683C98.5942 117.741 98.4582 117.772 98.32 117.775Z" fill="black"/>
<path d="M227.706 117.775C227.446 117.768 227.199 117.66 227.018 117.475C226.836 117.289 226.735 117.04 226.735 116.78C226.735 101.077 245.774 81.762 268.332 74.9049C268.582 74.8311 268.852 74.8583 269.083 74.9806C269.314 75.103 269.487 75.3107 269.566 75.5592C269.64 75.8091 269.613 76.0779 269.49 76.3079C269.367 76.538 269.159 76.7108 268.909 76.7893C247.113 83.5155 228.704 101.888 228.704 116.885C228.678 117.13 228.562 117.357 228.377 117.522C228.193 117.686 227.954 117.776 227.706 117.775Z" fill="black"/>
<path d="M106.539 166.403C106.368 166.454 106.185 166.454 106.014 166.403C97.989 161.51 89.3181 157.758 80.2524 155.253C73.1388 153.337 65.8412 152.179 58.4823 151.799C50.8141 151.249 45.3519 150.857 39.4958 146.172C25.7615 134.944 26.2604 115.786 26.2604 115.576C26.7594 96.2352 43.1985 80.9245 52.9413 73.544L53.3614 73.2299C53.4614 73.1508 53.5761 73.0921 53.6988 73.0572C53.8216 73.0223 53.95 73.0118 54.0768 73.0264C54.2037 73.041 54.3264 73.0803 54.4379 73.1422C54.5495 73.2041 54.6477 73.2872 54.727 73.3869C54.8888 73.5924 54.9629 73.8531 54.9334 74.1127C54.9039 74.3722 54.7732 74.6098 54.5694 74.7741L54.123 75.0881C44.6429 82.2855 28.5713 97.0989 28.0987 115.629C28.0987 120.706 29.9632 135.808 40.73 144.418C45.9822 148.71 51.2343 149.077 58.6136 149.653C66.1055 150.034 73.5354 151.21 80.7776 153.16C90.016 155.718 98.8538 159.54 107.038 164.518C107.257 164.654 107.415 164.869 107.478 165.117C107.542 165.366 107.507 165.63 107.38 165.853C107.303 166.012 107.184 166.148 107.036 166.245C106.888 166.342 106.716 166.396 106.539 166.403Z" fill="black"/>
<path d="M129.806 189.775C115.1 189.775 109.192 183.912 105.568 165.618C105.519 165.364 105.573 165.102 105.719 164.888C105.864 164.675 106.088 164.528 106.343 164.479C106.597 164.43 106.86 164.485 107.074 164.629C107.288 164.774 107.436 164.998 107.485 165.251C110.925 182.551 116.151 187.812 129.806 187.812C130.071 187.812 130.325 187.916 130.512 188.103C130.699 188.289 130.804 188.542 130.804 188.806C130.804 188.936 130.778 189.064 130.728 189.183C130.678 189.302 130.604 189.41 130.511 189.5C130.418 189.591 130.307 189.661 130.186 189.708C130.065 189.756 129.936 189.778 129.806 189.775Z" fill="black"/>
<path d="M163.026 189.774H129.807C129.678 189.778 129.55 189.755 129.43 189.708C129.311 189.661 129.202 189.589 129.111 189.499C129.02 189.408 128.949 189.3 128.901 189.181C128.854 189.062 128.831 188.934 128.835 188.806C128.831 188.677 128.854 188.548 128.901 188.427C128.948 188.307 129.019 188.197 129.11 188.104C129.201 188.012 129.309 187.938 129.429 187.888C129.548 187.837 129.677 187.811 129.807 187.812H163.026C163.286 187.818 163.534 187.926 163.715 188.112C163.897 188.298 163.998 188.547 163.998 188.806C163.998 189.063 163.896 189.309 163.713 189.491C163.531 189.672 163.284 189.774 163.026 189.774Z" fill="black"/>
<path d="M289.393 235H271.64C269.4 234.993 267.253 234.103 265.669 232.524C264.084 230.945 263.191 228.805 263.184 226.573V203.148C263.161 203.006 263.169 202.86 263.208 202.721C263.246 202.583 263.315 202.454 263.409 202.344C263.502 202.234 263.619 202.146 263.75 202.085C263.882 202.024 264.025 201.993 264.169 201.993C264.314 201.993 264.457 202.024 264.588 202.085C264.72 202.146 264.836 202.234 264.93 202.344C265.023 202.454 265.092 202.583 265.131 202.721C265.169 202.86 265.177 203.006 265.154 203.148V226.573C265.188 228.267 265.886 229.88 267.098 231.069C268.31 232.257 269.94 232.926 271.64 232.932H289.393C291.111 232.925 292.757 232.242 293.972 231.031C295.186 229.82 295.872 228.18 295.879 226.468V187.942C295.917 187.71 296.037 187.498 296.218 187.345C296.398 187.192 296.627 187.109 296.864 187.109C297.1 187.109 297.329 187.192 297.51 187.345C297.69 187.498 297.81 187.71 297.849 187.942V226.573C297.849 228.808 296.958 230.951 295.372 232.532C293.786 234.112 291.635 235 289.393 235Z" fill="black"/>
<path d="M242.255 204.274C242.027 204.305 241.796 204.259 241.598 204.143L232.171 197.6C230.805 198.909 226.682 201.526 217.806 201.526H202.47C192.806 201.526 180.279 201.709 163.079 201.709C162.814 201.709 162.56 201.604 162.373 201.418C162.186 201.231 162.081 200.978 162.081 200.714C162.081 200.585 162.107 200.457 162.157 200.338C162.208 200.218 162.282 200.111 162.375 200.02C162.468 199.93 162.578 199.859 162.699 199.812C162.82 199.765 162.949 199.743 163.079 199.746C180.306 199.746 192.832 199.746 202.47 199.563H217.806C228.31 199.563 231.356 195.794 231.383 195.742C231.546 195.554 231.771 195.432 232.018 195.399C232.264 195.365 232.515 195.422 232.722 195.559L242.57 202.363C270.038 202.363 295.879 202.363 295.879 194.041L297.927 115.524C297.941 115.269 298.052 115.03 298.238 114.854C298.423 114.679 298.669 114.581 298.925 114.582C299.053 114.585 299.178 114.614 299.295 114.665C299.412 114.717 299.517 114.791 299.605 114.884C299.692 114.976 299.761 115.085 299.807 115.204C299.852 115.323 299.874 115.449 299.871 115.576L297.822 193.962C297.849 204.274 273.321 204.274 242.255 204.274Z" fill="black"/>
<path d="M219.487 166.403C219.229 166.403 218.982 166.301 218.8 166.119C218.618 165.938 218.515 165.691 218.515 165.434C218.515 165.175 218.617 164.926 218.798 164.74C218.98 164.555 219.227 164.447 219.487 164.44C259.744 164.44 276.289 153.107 285.139 144.601C292.795 136.825 297.31 126.511 297.822 115.629C297.35 97.0989 281.383 82.2855 271.929 75.0881L271.483 74.7741C271.279 74.6098 271.148 74.3722 271.119 74.1127C271.09 73.8531 271.164 73.5924 271.325 73.3869C271.405 73.2872 271.503 73.2041 271.615 73.1422C271.726 73.0803 271.849 73.041 271.976 73.0264C272.102 73.0118 272.231 73.0223 272.354 73.0572C272.476 73.0921 272.591 73.1508 272.691 73.2299L273.111 73.544C282.854 80.9245 299.372 96.2352 299.792 115.576C299.263 127.01 294.523 137.847 286.478 146.015C277.418 154.756 260.454 166.403 219.487 166.403Z" fill="black"/>
<path d="M196.22 189.775C196.091 189.778 195.963 189.756 195.844 189.708C195.724 189.661 195.616 189.59 195.525 189.499C195.434 189.408 195.363 189.3 195.315 189.181C195.267 189.062 195.245 188.934 195.248 188.806C195.245 188.677 195.267 188.548 195.315 188.428C195.362 188.307 195.433 188.197 195.524 188.104C195.614 188.012 195.722 187.938 195.842 187.888C195.962 187.837 196.09 187.812 196.22 187.812C209.876 187.812 215.101 182.577 218.542 165.251C218.59 164.998 218.738 164.774 218.952 164.629C219.167 164.485 219.43 164.43 219.684 164.479C219.938 164.528 220.163 164.675 220.308 164.888C220.453 165.102 220.507 165.364 220.459 165.618C216.835 183.912 210.952 189.775 196.22 189.775Z" fill="black"/>
<path d="M196.22 189.774H163.026C162.896 189.778 162.767 189.755 162.646 189.708C162.525 189.661 162.415 189.59 162.322 189.5C162.229 189.41 162.155 189.302 162.105 189.183C162.054 189.064 162.028 188.935 162.028 188.806C162.028 188.542 162.133 188.289 162.321 188.103C162.508 187.916 162.762 187.812 163.026 187.812H196.22C196.484 187.812 196.738 187.916 196.925 188.103C197.113 188.289 197.218 188.542 197.218 188.806C197.218 188.935 197.192 189.064 197.141 189.183C197.091 189.302 197.017 189.41 196.924 189.5C196.831 189.59 196.721 189.661 196.6 189.708C196.479 189.755 196.35 189.778 196.22 189.774Z" fill="black"/>
<path d="M27.1012 116.597C26.9714 116.597 26.8428 116.571 26.7232 116.521C26.6036 116.471 26.4953 116.397 26.4047 116.304C26.3141 116.212 26.2431 116.102 26.1959 115.981C26.1486 115.861 26.1261 115.732 26.1296 115.603V113.247C26.1296 105.395 26.1296 90.7913 35.4784 79.0662C36.3975 77.9408 37.3954 76.763 38.3933 75.5853C40.5717 73.1443 42.5893 70.5653 44.4333 67.8645C47.37 62.3591 49.8554 56.6262 51.865 50.7217C53.3619 46.822 54.885 42.87 56.4869 38.9704C60.1325 30.7752 64.2989 22.8202 68.9607 15.1537C71.1045 11.6237 74.072 8.66202 77.6108 6.52037C81.1496 4.37873 85.1551 3.12053 89.2865 2.85277C105.699 1.77971 137.238 0 163.026 0C163.26 0.038141 163.472 0.157785 163.626 0.337567C163.779 0.517349 163.863 0.745563 163.863 0.981457C163.863 1.21735 163.779 1.44556 163.626 1.62535C163.472 1.80513 163.26 1.92477 163.026 1.96291C137.291 1.96291 105.804 3.74262 89.339 4.81568C85.5342 5.06538 81.8465 6.22885 78.5907 8.20676C75.3348 10.1847 72.6075 12.9183 70.6414 16.1744C66.0342 23.7595 61.9119 31.6268 58.2989 39.7294C56.7233 43.472 55.2001 47.581 53.7033 51.4022C51.6644 57.4336 49.1168 63.2822 46.0877 68.8852C44.1928 71.6321 42.1227 74.2547 39.8902 76.7368C38.9185 77.8884 37.9206 79.0662 37.0277 80.1654C27.9941 91.3409 28.0466 105.5 28.0991 113.116V115.498C28.1139 115.637 28.0991 115.778 28.0556 115.911C28.0121 116.044 27.9409 116.166 27.8467 116.27C27.7526 116.374 27.6375 116.456 27.509 116.513C27.3805 116.569 27.2416 116.598 27.1012 116.597Z" fill="black"/>
<path d="M190.285 185.064H135.742C135.477 185.064 135.223 184.959 135.036 184.772C134.849 184.586 134.744 184.333 134.744 184.069V152.662C134.744 152.533 134.77 152.405 134.82 152.286C134.87 152.166 134.944 152.059 135.037 151.968C135.13 151.878 135.241 151.807 135.362 151.76C135.483 151.713 135.612 151.691 135.742 151.694H190.285C190.415 151.691 190.544 151.713 190.665 151.76C190.786 151.807 190.896 151.878 190.989 151.968C191.082 152.059 191.156 152.166 191.206 152.286C191.257 152.405 191.283 152.533 191.283 152.662V184.069C191.283 184.333 191.178 184.586 190.991 184.772C190.803 184.959 190.55 185.064 190.285 185.064ZM136.713 183.205H189.235V153.683H136.713V183.205Z" fill="black"/>
<path d="M33.4299 84.6931H33.141C33.141 84.6931 31.0664 84.0126 28.9918 83.149C26.461 82.1369 23.7218 81.7507 21.0086 82.0235C19.2574 82.1318 17.5 82.088 15.7564 81.8927C13.5663 81.6368 11.4484 80.9525 9.52414 79.8791C7.59991 78.8057 5.90721 77.3643 4.54313 75.6375C2.99375 73.7008 -1.89073 67.0269 0.787856 61.9495C1.48023 60.8678 2.38303 59.9353 3.44296 59.2071C4.50289 58.4789 5.69847 57.9697 6.95911 57.7096C15.8877 54.9092 26.0506 57.2123 32.7996 58.7303L34.1127 59.0444C34.3116 59.0869 34.4921 59.1906 34.6288 59.3409C34.7654 59.4912 34.8512 59.6804 34.8742 59.8819C35.3994 64.6452 41.9909 72.968 42.0696 72.968C42.197 73.1749 42.2441 73.4211 42.2019 73.6602C42.1598 73.8993 42.0314 74.1147 41.8409 74.266C41.6503 74.4172 41.4109 74.4938 41.1676 74.4813C40.9244 74.4688 40.6941 74.3681 40.5203 74.1981C40.2577 73.8578 34.0601 66.0585 33.0097 60.7194L32.3532 60.5885C25.4466 59.0182 15.9928 56.8721 7.53685 59.4893C5.53318 59.9295 3.77543 61.1192 2.6261 62.8132C0.420207 67.0269 5.59356 73.6485 6.17129 74.3813C8.6074 77.4471 12.1523 79.4391 16.0453 79.9298C17.6884 80.0585 19.3392 80.0585 20.9823 79.9298C24.006 79.6134 27.0614 80.0356 29.8847 81.1599C31.8542 81.9974 33.8238 82.6255 33.85 82.6255C34.1006 82.7091 34.3076 82.8883 34.4257 83.1238C34.5439 83.3593 34.5635 83.6319 34.4803 83.8818C34.4306 84.1194 34.2976 84.3316 34.1051 84.4803C33.9125 84.629 33.6732 84.7044 33.4299 84.6931Z" fill="black"/>
<path d="M3.15139 72.8372H2.91504C2.66271 72.775 2.44469 72.6171 2.30737 72.3971C2.17005 72.1772 2.12426 71.9125 2.17974 71.6594V71.293C2.63298 68.6371 3.69325 66.1208 5.2785 63.9386C7.549 61.6155 10.4519 60.0052 13.6294 59.3062C20.3409 57.5435 27.3844 57.4536 34.139 59.0444C34.3897 59.1138 34.6025 59.2797 34.7306 59.5055C34.8586 59.7312 34.8914 59.9985 34.8218 60.2484C34.7521 60.4982 34.5857 60.7103 34.3592 60.8379C34.1326 60.9655 33.8645 60.9982 33.6138 60.9288C27.2264 59.4627 20.5786 59.5524 14.2334 61.1905C11.4395 61.793 8.87807 63.183 6.85414 65.1949C5.51096 67.1399 4.61434 69.356 4.22808 71.6856V72.0782C4.1773 72.3165 4.03827 72.5269 3.83872 72.6676C3.63916 72.8083 3.39374 72.8688 3.15139 72.8372Z" fill="black"/>
<path d="M37.9466 78.5166C37.8067 78.516 37.6686 78.4853 37.5417 78.4265C37.4148 78.3678 37.3021 78.2825 37.2113 78.1763C34.3881 74.8943 32.5257 70.9012 31.8279 66.6344C31.663 64.6207 31.9316 62.5952 32.6157 60.6933C32.7412 60.3508 32.8464 60.0012 32.9309 59.6464C32.9495 59.5068 32.9977 59.3727 33.0722 59.2531C33.1468 59.1334 33.246 59.0309 33.3632 58.9523C33.4805 58.8737 33.6132 58.8208 33.7525 58.7972C33.8919 58.7735 34.0346 58.7797 34.1714 58.8151C34.3082 58.8506 34.4358 58.9146 34.5459 59.003C34.656 59.0913 34.746 59.2019 34.8099 59.3276C34.8739 59.4532 34.9103 59.5909 34.9169 59.7316C34.9234 59.8723 34.8999 60.0127 34.8479 60.1437C34.8479 60.5101 34.6378 60.8765 34.5065 61.2691C33.8943 62.8971 33.6521 64.6402 33.7975 66.3727C34.4355 70.2415 36.1248 73.8621 38.6819 76.8416C38.7748 76.9318 38.8487 77.0396 38.8991 77.1587C38.9495 77.2779 38.9755 77.4058 38.9755 77.5351C38.9755 77.6644 38.9495 77.7924 38.8991 77.9115C38.8487 78.0306 38.7748 78.1385 38.6819 78.2287C38.5855 78.324 38.4705 78.3987 38.3441 78.4482C38.2177 78.4977 38.0824 78.521 37.9466 78.5166Z" fill="black"/>
<path d="M298.925 116.597C298.665 116.597 298.415 116.496 298.229 116.315C298.042 116.134 297.934 115.888 297.927 115.629V113.247C297.927 105.631 297.927 91.4718 288.999 80.2962C288.106 79.197 287.108 78.0193 286.136 76.8677C283.904 74.3856 281.834 71.7629 279.939 69.016C276.91 63.413 274.362 57.5645 272.323 51.533C270.853 47.6334 269.303 43.6814 267.728 39.8602C264.115 31.7577 259.992 23.8904 255.385 16.3053C253.419 13.0492 250.692 10.3155 247.436 8.33762C244.18 6.35971 240.492 5.19625 236.687 4.94654C220.222 3.74262 188.735 1.96291 163.026 1.96291C162.766 1.963 162.516 1.86182 162.33 1.68093C162.143 1.50004 162.035 1.25375 162.028 0.994543C162.028 0.730774 162.133 0.477808 162.321 0.291295C162.508 0.104782 162.762 0 163.026 0C188.788 0 220.327 1.77971 236.819 2.85277C240.937 3.13283 244.926 4.39682 248.45 6.53789C251.974 8.67895 254.929 11.6342 257.066 15.1537C261.728 22.8202 265.894 30.7752 269.54 38.9704C271.141 42.7915 272.665 46.822 274.161 50.7479C276.175 56.6423 278.661 62.3662 281.593 67.8645C283.437 70.5653 285.455 73.1443 287.633 75.5853C288.631 76.763 289.629 77.9407 290.548 79.0661C300.002 90.7913 299.949 105.395 299.897 113.247V115.603C299.9 115.732 299.878 115.861 299.831 115.981C299.783 116.102 299.712 116.212 299.622 116.304C299.531 116.397 299.423 116.471 299.303 116.521C299.184 116.571 299.055 116.597 298.925 116.597Z" fill="black"/>
<path d="M292.597 84.6933C292.36 84.6922 292.132 84.6077 291.953 84.4548C291.773 84.3018 291.654 84.0903 291.616 83.8579C291.578 83.6255 291.624 83.3873 291.746 83.1856C291.868 82.9839 292.058 82.8319 292.282 82.7565C292.282 82.7565 294.277 82.1284 296.247 81.2909C299.07 80.1666 302.126 79.7444 305.149 80.0608C306.792 80.2026 308.444 80.2026 310.086 80.0608C313.979 79.5701 317.524 77.5781 319.96 74.5123C320.538 73.7794 325.711 67.1841 323.505 62.9442C322.321 61.2477 320.523 60.075 318.49 59.6726C310.034 57.0554 300.58 59.2015 293.673 60.7719L293.017 60.9027C291.966 66.1372 285.769 73.9888 285.506 74.3814C285.432 74.5015 285.334 74.6045 285.217 74.6837C285.1 74.7629 284.968 74.8165 284.828 74.8408C284.689 74.8652 284.546 74.8598 284.409 74.8251C284.272 74.7903 284.144 74.7269 284.034 74.6392C283.923 74.5514 283.833 74.4413 283.768 74.316C283.704 74.1907 283.666 74.0532 283.659 73.9125C283.652 73.7719 283.675 73.6313 283.726 73.5001C283.777 73.3688 283.856 73.25 283.957 73.1513C283.957 73.1513 290.627 64.7501 291.152 60.0652C291.175 59.8637 291.261 59.6745 291.398 59.5243C291.534 59.374 291.715 59.2703 291.914 59.2277L293.227 58.9137C299.95 57.3957 310.113 55.0925 319.067 57.8929C320.328 58.1531 321.524 58.6623 322.584 59.3905C323.643 60.1187 324.546 61.0512 325.239 62.1328C327.996 67.3673 322.613 74.4338 321.483 75.8209C318.747 79.2904 314.744 81.5393 310.349 82.076C308.605 82.2714 306.848 82.3151 305.097 82.2069C302.37 81.9089 299.612 82.2772 297.061 83.28C294.986 84.1436 292.991 84.7979 292.912 84.8241L292.597 84.6933Z" fill="black"/>
<path d="M323.006 72.8372C322.786 72.8364 322.572 72.7609 322.4 72.6229C322.228 72.485 322.109 72.2929 322.061 72.0782V71.6856C321.675 69.356 320.778 67.1399 319.435 65.1949C317.411 63.183 314.849 61.793 312.056 61.1906C305.71 59.5524 299.063 59.4627 292.675 60.9288C292.551 60.9645 292.421 60.9752 292.293 60.9602C292.164 60.9452 292.04 60.9048 291.928 60.8414C291.815 60.7781 291.717 60.693 291.638 60.5911C291.558 60.4893 291.501 60.3728 291.467 60.2484C291.431 60.1246 291.421 59.995 291.436 59.8671C291.451 59.7392 291.491 59.6156 291.555 59.5035C291.618 59.3914 291.704 59.293 291.806 59.2142C291.908 59.1354 292.025 59.0777 292.15 59.0444C298.869 57.4625 305.874 57.5434 312.554 59.28C315.728 59.989 318.628 61.5978 320.905 63.9125C322.497 66.0936 323.567 68.6095 324.03 71.2668V71.6332C324.086 71.8863 324.04 72.151 323.903 72.371C323.765 72.5909 323.547 72.7488 323.295 72.811L323.006 72.8372Z" fill="black"/>
<path d="M288.079 78.5166C287.839 78.5194 287.606 78.4357 287.423 78.281C287.33 78.1908 287.256 78.083 287.206 77.9639C287.155 77.8447 287.129 77.7168 287.129 77.5875C287.129 77.4582 287.155 77.3302 287.206 77.2111C287.256 77.092 287.33 76.9841 287.423 76.8939C289.98 73.9145 291.669 70.2938 292.307 66.425C292.453 64.6925 292.21 62.9494 291.598 61.3215C291.467 60.9289 291.362 60.5625 291.257 60.1961C291.205 60.0651 291.181 59.9246 291.188 59.7839C291.194 59.6432 291.231 59.5055 291.295 59.3799C291.359 59.2543 291.449 59.1437 291.559 59.0554C291.669 58.967 291.796 58.903 291.933 58.8675C292.07 58.832 292.213 58.8259 292.352 58.8496C292.491 58.8732 292.624 58.9261 292.741 59.0047C292.859 59.0832 292.958 59.1858 293.032 59.3054C293.107 59.4251 293.155 59.5592 293.174 59.6988C293.258 60.0536 293.363 60.4031 293.489 60.7457C294.173 62.6475 294.442 64.6731 294.277 66.6868C293.617 70.94 291.8 74.9318 289.025 78.2287C288.907 78.3566 288.758 78.4508 288.591 78.5014C288.425 78.5521 288.248 78.5573 288.079 78.5166Z" fill="black"/>
<path d="M135.741 180.405H115.258C115.059 180.407 114.864 180.347 114.699 180.235C114.535 180.123 114.409 179.963 114.339 179.777L110.925 170.721C110.849 170.585 110.809 170.432 110.809 170.276C110.809 170.12 110.849 169.967 110.925 169.831C111.011 169.694 111.131 169.58 111.274 169.502C111.416 169.424 111.577 169.384 111.739 169.386H135.636C135.766 169.386 135.895 169.412 136.014 169.462C136.134 169.513 136.242 169.586 136.333 169.679C136.423 169.772 136.494 169.882 136.542 170.002C136.589 170.123 136.612 170.251 136.608 170.381V179.41C136.616 179.654 136.531 179.893 136.371 180.077C136.21 180.261 135.985 180.378 135.741 180.405ZM115.941 178.442H134.744V171.349H113.262L115.941 178.442Z" fill="black"/>
<path d="M210.768 180.405H190.285C190.155 180.405 190.027 180.379 189.907 180.329C189.787 180.278 189.679 180.205 189.589 180.112C189.498 180.019 189.427 179.909 189.38 179.789C189.332 179.668 189.31 179.54 189.313 179.41V170.381C189.31 170.251 189.332 170.123 189.38 170.002C189.427 169.882 189.498 169.772 189.589 169.679C189.679 169.586 189.787 169.513 189.907 169.462C190.027 169.412 190.155 169.386 190.285 169.386H214.182C214.345 169.384 214.505 169.424 214.648 169.502C214.79 169.58 214.91 169.694 214.996 169.831C215.072 169.967 215.112 170.12 215.112 170.276C215.112 170.432 215.072 170.585 214.996 170.721L211.582 179.777C211.519 179.947 211.41 180.096 211.266 180.207C211.122 180.318 210.949 180.387 210.768 180.405ZM191.283 178.442H210.086L212.712 171.349H191.283V178.442Z" fill="black"/>
<path d="M188.683 74.9834H188.394C178.704 71.8689 166.886 70.22 150.08 69.7489C127.338 68.9899 102.994 72.9681 89.9165 75.1142C89.6588 75.1559 89.395 75.0938 89.1833 74.9416C88.9715 74.7895 88.8291 74.5597 88.7873 74.3029C88.7455 74.0461 88.8078 73.7832 88.9604 73.5722C89.1131 73.3611 89.3436 73.2191 89.6013 73.1775C102.732 71.0314 127.207 67.027 150.158 67.786C167.149 68.3618 179.045 70.0368 188.998 73.2298C189.247 73.2767 189.468 73.4189 189.614 73.6261C189.759 73.8333 189.818 74.089 189.777 74.3385C189.736 74.5881 189.598 74.8117 189.394 74.9615C189.189 75.1114 188.934 75.1756 188.683 75.1404V74.9834Z" fill="black"/>
<path d="M169.854 74.9832C169.633 74.9824 169.419 74.9069 169.248 74.7689C169.076 74.631 168.956 74.4389 168.908 74.2242C168.877 74.0987 168.872 73.9682 168.892 73.8405C168.913 73.7128 168.958 73.5905 169.027 73.4807C169.095 73.371 169.185 73.276 169.291 73.2014C169.397 73.1268 169.517 73.0741 169.644 73.0464C186.68 69.5424 204.07 68.049 221.456 68.5971C236.266 68.7582 251.032 70.2473 265.574 73.0464C265.826 73.103 266.046 73.2546 266.188 73.4693C266.33 73.684 266.383 73.9452 266.336 74.198C266.279 74.4543 266.123 74.6779 265.902 74.8201C265.68 74.9623 265.411 75.0115 265.154 74.957C250.735 72.2387 236.103 70.8023 221.43 70.6648C204.203 70.1387 186.974 71.6143 170.09 75.0617L169.854 74.9832Z" fill="black"/>
<path d="M247.428 187.341C246.228 187.345 245.061 186.951 244.11 186.221C243.159 185.491 242.479 184.467 242.176 183.31L240.863 178.39C240.556 177.227 240.647 175.995 241.123 174.89C241.599 173.785 242.432 172.871 243.489 172.292C249.229 169.052 255.293 166.421 261.582 164.44C269.094 162.13 276.833 160.629 284.666 159.965C284.819 159.946 284.975 159.968 285.118 160.027C285.26 160.087 285.385 160.183 285.48 160.305C285.579 160.418 285.65 160.552 285.687 160.698C285.723 160.844 285.724 160.996 285.69 161.142C285.296 163.131 281.698 180.641 277.995 183.807C275.212 186.189 259.902 187 247.559 187.288L247.428 187.341ZM242.78 177.971L244.093 182.891C244.299 183.638 244.743 184.298 245.359 184.771C245.976 185.243 246.729 185.502 247.507 185.509C263.788 185.142 274.975 183.991 276.709 182.499C278.993 180.562 281.961 169.753 283.51 162.215C276.278 162.941 269.135 164.379 262.186 166.508C256.021 168.43 250.072 170.982 244.434 174.124C243.777 174.499 243.26 175.078 242.962 175.772C242.664 176.466 242.6 177.238 242.78 177.971Z" fill="black"/>
<path d="M253.704 198.725H246.85C245.622 198.507 244.492 197.913 243.62 197.024C242.753 196.317 241.677 195.454 240.994 195.454C238.108 195.871 235.256 196.492 232.459 197.312C232.205 197.376 231.936 197.338 231.71 197.205C231.484 197.073 231.319 196.858 231.251 196.605C231.215 196.482 231.205 196.352 231.22 196.224C231.235 196.096 231.275 195.973 231.339 195.86C231.402 195.748 231.488 195.65 231.59 195.571C231.692 195.492 231.809 195.435 231.934 195.401C234.906 194.557 237.933 193.918 240.994 193.491C242.451 193.733 243.793 194.43 244.828 195.48C245.404 196.032 246.081 196.468 246.824 196.762H247.585C267.202 196.972 280.621 196.213 284.35 194.642C288.549 192.847 292.553 190.628 296.299 188.021C296.404 187.946 296.522 187.892 296.648 187.864C296.774 187.835 296.904 187.831 297.031 187.853C297.158 187.875 297.28 187.922 297.388 187.991C297.497 188.061 297.591 188.151 297.664 188.256C297.812 188.466 297.873 188.725 297.834 188.979C297.795 189.233 297.659 189.461 297.454 189.617C293.595 192.324 289.458 194.614 285.112 196.448C280.516 198.333 265.364 198.725 253.704 198.725Z" fill="black"/>
<path d="M72.8998 139.131C60.9249 139.131 45.5624 137.352 38.3408 129.107C38.221 128.964 38.1396 128.793 38.1044 128.61L35.4783 111.441C35.4407 111.188 35.5052 110.93 35.6577 110.724C35.8103 110.518 36.0385 110.381 36.2924 110.342C50.4732 107.856 71.5605 107.515 79.2024 110.97H79.3599C89.8642 118.063 90.048 136.252 90.048 137.142C90.0502 137.378 89.966 137.606 89.8113 137.785C89.6566 137.963 89.442 138.079 89.2077 138.111C83.8003 138.809 78.3524 139.15 72.8998 139.131ZM40.0214 128.034C50.9459 140.074 82.4062 136.933 88.0522 136.252C87.8946 132.614 86.7392 118.429 78.3095 112.697C71.8756 109.845 52.7579 109.557 37.5792 112.069L40.0214 128.034Z" fill="black"/>
<path d="M54.386 235H36.7651C34.5224 235 32.3716 234.112 30.7858 232.532C29.2 230.951 28.3091 228.808 28.3091 226.573V187.942C28.3474 187.71 28.4675 187.498 28.6479 187.345C28.8282 187.192 29.0572 187.109 29.2939 187.109C29.5306 187.109 29.7596 187.192 29.94 187.345C30.1204 187.498 30.2404 187.71 30.2787 187.942V226.573C30.313 228.267 31.0106 229.88 32.2226 231.069C33.4346 232.257 35.0649 232.926 36.7651 232.932H54.5173C56.2355 232.925 57.8813 232.242 59.0962 231.031C60.3112 229.82 60.9968 228.18 61.0037 226.468V203.148C60.9803 203.006 60.9882 202.86 61.0269 202.721C61.0657 202.583 61.1342 202.454 61.2279 202.344C61.3216 202.234 61.4381 202.146 61.5695 202.085C61.7008 202.024 61.8438 201.993 61.9885 201.993C62.1332 201.993 62.2761 202.024 62.4074 202.085C62.5388 202.146 62.6553 202.234 62.749 202.344C62.8427 202.454 62.9113 202.583 62.95 202.721C62.9887 202.86 62.9966 203.006 62.9732 203.148V226.573C62.9698 227.689 62.7445 228.794 62.3101 229.824C61.8757 230.853 61.241 231.787 60.4425 232.57C59.6441 233.354 58.6977 233.972 57.6582 234.389C56.6186 234.806 55.5065 235.014 54.386 235Z" fill="black"/>
<path d="M83.7714 204.274C52.7051 204.274 28.1776 204.274 28.1776 193.988L26.2606 115.629C26.2571 115.501 26.2787 115.375 26.3244 115.256C26.37 115.137 26.4387 115.028 26.5265 114.936C26.6143 114.844 26.7195 114.769 26.8361 114.718C26.9526 114.666 27.0783 114.637 27.2059 114.634C27.3374 114.619 27.4706 114.632 27.5964 114.673C27.7222 114.714 27.8377 114.781 27.935 114.871C28.0322 114.96 28.1089 115.07 28.1599 115.191C28.2108 115.313 28.2348 115.444 28.2301 115.576L30.2784 194.093C30.2784 202.416 56.1189 202.442 83.5876 202.442L93.4354 195.637C93.642 195.491 93.8976 195.431 94.1477 195.47C94.3979 195.509 94.6228 195.644 94.7747 195.846C94.7747 195.846 97.9785 199.641 108.351 199.641H123.688C133.378 199.641 145.904 199.824 163.079 199.824C163.336 199.824 163.583 199.926 163.766 200.108C163.948 200.29 164.05 200.536 164.05 200.793C164.05 201.052 163.949 201.301 163.767 201.487C163.586 201.673 163.339 201.781 163.079 201.787C145.799 201.787 133.273 201.787 123.688 201.604H108.351C99.4753 201.604 95.2211 198.987 93.8818 197.705L84.3229 204.143C84.1551 204.237 83.964 204.283 83.7714 204.274Z" fill="black"/>
<path d="M78.5981 187.34H78.4668C66.1243 187.052 50.8143 186.241 48.0307 183.859C44.3279 180.693 40.7302 163.183 40.3363 161.194C40.3018 161.048 40.3029 160.896 40.3394 160.75C40.376 160.604 40.4469 160.47 40.5464 160.357C40.6409 160.235 40.7656 160.139 40.9083 160.079C41.051 160.02 41.2068 159.998 41.3605 160.017C49.1933 160.681 56.9319 162.182 64.4436 164.492C70.7348 166.468 76.7995 169.1 82.5372 172.344C83.5946 172.923 84.4273 173.837 84.9032 174.942C85.379 176.047 85.4705 177.279 85.1633 178.442L83.824 183.205C83.5422 184.377 82.8743 185.422 81.927 186.171C80.9797 186.921 79.8077 187.332 78.5981 187.34ZM42.5159 162.084C44.1178 169.622 47.0328 180.405 49.3175 182.368C51.0507 183.859 62.2377 184.985 78.5193 185.377C79.2955 185.367 80.0474 185.106 80.6627 184.634C81.278 184.162 81.7237 183.505 81.9332 182.76L83.2463 177.971C83.439 177.23 83.3814 176.446 83.0823 175.741C82.7833 175.036 82.2594 174.449 81.5918 174.071C75.9537 170.929 70.0046 168.377 63.8396 166.455C56.894 164.3 49.7513 162.835 42.5159 162.084Z" fill="black"/>
<path d="M72.322 198.725C60.6623 198.725 45.5099 198.333 40.8092 196.422C36.4667 194.598 32.3369 192.308 28.493 189.591C28.2805 189.442 28.1363 189.215 28.092 188.959C28.0476 188.704 28.1069 188.442 28.2566 188.23C28.4064 188.019 28.6343 187.875 28.8904 187.831C29.1465 187.786 29.4097 187.845 29.6222 187.995C33.3679 190.602 37.3717 192.821 41.5708 194.616C45.326 196.187 58.7452 196.946 78.3357 196.736H79.0973C79.8396 196.441 80.5174 196.006 81.0931 195.454C82.128 194.403 83.4703 193.707 84.9271 193.465C87.9878 193.892 91.015 194.53 93.9871 195.375C94.2204 195.462 94.4126 195.633 94.5261 195.854C94.6395 196.075 94.6659 196.33 94.6001 196.57C94.5343 196.809 94.381 197.015 94.1704 197.148C93.9598 197.28 93.707 197.33 93.4619 197.286C90.6646 196.466 87.8126 195.845 84.9271 195.428C84.2706 195.428 83.1939 196.291 82.3011 196.998C81.4285 197.886 80.2992 198.481 79.071 198.699H72.322V198.725Z" fill="black"/>
<path d="M175.509 35.0974C175.509 41.5621 170.253 46.8052 163.765 46.8052C157.278 46.8052 152.021 41.5621 152.021 35.0974C152.021 28.6328 157.278 23.3896 163.765 23.3896C170.253 23.3896 175.509 28.6328 175.509 35.0974Z" stroke="#F5C257"/>
<ellipse cx="163.765" cy="35.0974" rx="7.65258" ry="7.62987" fill="#F5C257"/>
<ellipse cx="257.127" cy="123.604" rx="7.65259" ry="7.62987" fill="#2B334F"/>
<ellipse cx="62.7512" cy="123.604" rx="7.65258" ry="7.62987" fill="#2B334F"/>
<ellipse cx="162.235" cy="196.851" rx="7.65258" ry="7.62988" fill="#2B334F"/>
<ellipse cx="162.235" cy="96.1365" rx="7.65258" ry="7.62987" fill="#2B334F"/>
</g>
<defs>
<clipPath id="clip0_1_1253">
<rect width="326" height="235" fill="white"/>
</clipPath>
</defs>
</svg>
