<svg width="714" height="232" viewBox="0 0 714 232" fill="none" xmlns="http://www.w3.org/2000/svg">
<path d="M146.081 232C135.903 232.005 125.951 228.998 117.485 223.358C109.019 217.719 102.42 209.701 98.5207 200.318C94.6219 190.935 93.5991 180.61 95.5817 170.647C97.5642 160.684 102.463 151.532 109.659 144.347C116.854 137.163 126.023 132.27 136.006 130.286C145.989 128.303 156.337 129.318 165.742 133.204C175.146 137.09 183.184 143.672 188.84 152.117C194.495 160.562 197.514 170.491 197.514 180.649C197.507 194.261 192.087 207.315 182.444 216.943C172.8 226.57 159.722 231.986 146.081 232ZM146.081 131.295C136.293 131.295 126.725 134.192 118.587 139.619C110.449 145.046 104.106 152.76 100.362 161.784C96.6172 170.809 95.6388 180.739 97.5503 190.318C99.4618 199.898 104.177 208.696 111.1 215.601C118.023 222.506 126.843 227.207 136.444 229.11C146.044 231.012 155.995 230.03 165.036 226.289C174.078 222.547 181.804 216.214 187.239 208.09C192.673 199.966 195.57 190.416 195.565 180.649C195.523 167.577 190.292 155.055 181.018 145.824C171.743 136.594 159.18 131.407 146.081 131.4V131.295Z" fill="black"/>
<path d="M146.081 212.132C139.831 212.132 133.721 210.283 128.524 206.817C123.327 203.352 119.276 198.427 116.885 192.665C114.493 186.902 113.867 180.561 115.086 174.444C116.306 168.326 119.315 162.707 123.735 158.297C128.155 153.887 133.786 150.883 139.916 149.666C146.046 148.449 152.4 149.074 158.175 151.461C163.949 153.848 168.885 157.89 172.358 163.076C175.83 168.262 177.683 174.359 177.683 180.596C177.683 188.96 174.354 196.981 168.427 202.896C162.501 208.81 154.463 212.132 146.081 212.132ZM146.081 151.163C140.231 151.163 134.512 152.894 129.648 156.138C124.784 159.382 120.993 163.993 118.755 169.387C116.518 174.781 115.934 180.717 117.077 186.442C118.22 192.168 121.04 197.426 125.178 201.553C129.317 205.679 134.589 208.488 140.328 209.624C146.066 210.759 152.014 210.171 157.417 207.933C162.821 205.696 167.438 201.909 170.684 197.052C173.931 192.195 175.661 186.487 175.656 180.649C175.649 172.826 172.53 165.326 166.984 159.797C161.439 154.268 153.92 151.163 146.081 151.163Z" fill="black"/>
<path d="M560.492 232C550.313 232.005 540.362 228.998 531.896 223.358C523.43 217.719 516.83 209.701 512.932 200.318C509.033 190.935 508.01 180.61 509.992 170.647C511.975 160.684 516.874 151.532 524.07 144.347C531.265 137.163 540.434 132.27 550.417 130.286C560.4 128.303 570.748 129.318 580.152 133.204C589.557 137.09 597.595 143.672 603.251 152.117C608.906 160.562 611.925 170.491 611.925 180.649C611.918 194.261 606.498 207.315 596.854 216.943C587.211 226.57 574.133 231.986 560.492 232ZM560.492 131.295C550.703 131.29 541.132 134.182 532.991 139.606C524.849 145.03 518.502 152.742 514.754 161.766C511.005 170.79 510.023 180.721 511.932 190.302C513.84 199.883 518.553 208.685 525.476 215.592C532.398 222.5 541.217 227.203 550.819 229.108C560.42 231.012 570.372 230.032 579.415 226.291C588.458 222.551 596.186 216.217 601.621 208.093C607.057 199.968 609.955 190.417 609.95 180.649C609.908 167.582 604.68 155.064 595.411 145.834C586.142 136.604 573.587 131.414 560.492 131.4V131.295Z" fill="black"/>
<path d="M560.492 212.132C554.242 212.132 548.132 210.283 542.935 206.817C537.738 203.352 533.687 198.427 531.295 192.665C528.903 186.902 528.278 180.561 529.497 174.444C530.716 168.326 533.726 162.707 538.146 158.297C542.565 153.887 548.196 150.883 554.327 149.666C560.457 148.449 566.811 149.074 572.586 151.461C578.36 153.848 583.296 157.89 586.768 163.076C590.241 168.262 592.094 174.359 592.094 180.596C592.094 188.96 588.765 196.981 582.838 202.896C576.912 208.81 568.873 212.132 560.492 212.132ZM560.492 151.163C554.64 151.157 548.919 152.885 544.051 156.125C539.184 159.366 535.389 163.975 533.147 169.369C530.906 174.763 530.318 180.699 531.458 186.426C532.598 192.154 535.416 197.415 539.553 201.544C543.691 205.672 548.963 208.484 554.702 209.622C560.442 210.76 566.39 210.173 571.796 207.936C577.201 205.699 581.819 201.912 585.067 197.055C588.315 192.198 590.045 186.488 590.04 180.649C590.026 172.833 586.909 165.341 581.37 159.814C575.832 154.288 568.324 151.177 560.492 151.163Z" fill="black"/>
<path d="M227.668 86.5139L198.12 81.9411C197.935 81.9089 197.762 81.8252 197.623 81.6997C197.483 81.5742 197.381 81.412 197.33 81.2316C197.276 81.0486 197.277 80.8539 197.333 80.6717C197.39 80.4895 197.498 80.3278 197.646 80.2067C198.251 79.7073 259.481 28.5401 315.917 14.9271C332.772 10.8537 365.032 9.98645 389.129 9.98645H395.344C466.028 9.98645 521.753 9.98645 544.322 65.1745C544.392 65.3178 544.429 65.475 544.429 65.6344C544.429 65.7937 544.392 65.951 544.322 66.0943C544.23 66.2243 544.107 66.3304 543.965 66.4035C543.823 66.4767 543.666 66.5148 543.506 66.5148C542.848 66.5148 476.904 67.5134 377.41 74.3988C320.368 78.0517 228.59 86.435 227.668 86.5139ZM200.595 80.3381L227.721 84.5691C228.405 84.5691 320.21 76.107 377.173 72.2175C468.609 65.9892 531.708 64.6489 541.952 64.4649C519.515 11.9049 464.553 11.9049 395.344 11.9049H389.129C365.138 11.9049 333.035 12.7459 316.365 16.7667C265.643 29.092 210.84 72.0336 200.595 80.3381Z" fill="black"/>
<path d="M172.864 70.299C172.648 70.2889 172.44 70.2089 172.273 70.0709C172.106 69.9329 171.988 69.7445 171.938 69.534C171.887 69.3235 171.907 69.1023 171.993 68.9038C172.079 68.7052 172.228 68.5401 172.417 68.4332L194.723 56.6071C236.069 34.6108 271.779 15.6103 298.957 8.30446C333.193 -0.867265 482.145 -4.41507 529.469 8.06794C568.769 19.1508 606.089 36.3 640.077 58.8935C640.295 59.0383 640.447 59.2624 640.501 59.5178C640.555 59.7733 640.507 60.0397 640.367 60.2601C640.222 60.4773 639.997 60.6292 639.741 60.6833C639.485 60.7373 639.218 60.6892 638.997 60.5491C605.193 38.0625 568.067 21.0013 528.969 9.98638C478.932 -3.15363 330.006 2.10238 299.458 10.1966C272.49 17.4499 237.017 36.3978 195.644 58.3416L173.338 70.1939C173.191 70.2663 173.028 70.3023 172.864 70.299Z" fill="black"/>
<path d="M41.3462 135.421C28.4683 135.421 23.886 133.345 23.6753 133.24C23.492 133.149 23.3407 133.005 23.2418 132.827C23.1429 132.648 23.1012 132.444 23.1223 132.241C23.6002 129.117 24.5596 126.085 25.9665 123.253C28.284 118.47 36.8692 113.004 39.5028 111.375C39.6203 111.296 39.7567 111.251 39.8978 111.243C54.9615 109.22 68.8665 110.297 78.1892 114.187C78.3097 114.239 78.4184 114.314 78.509 114.409C78.5995 114.504 78.6698 114.616 78.7159 114.739C78.7744 114.862 78.8048 114.996 78.8048 115.133C78.8048 115.269 78.7744 115.404 78.7159 115.527L71.4473 131.295C71.3744 131.437 71.2701 131.56 71.1424 131.656C71.0146 131.751 70.8668 131.817 70.71 131.847L67.3391 132.504C60.7527 133.964 54.0597 134.895 47.3243 135.289C45.0595 135.395 43.1107 135.421 41.3462 135.421ZM25.2027 131.715C27.1516 132.346 33.5247 133.923 47.0873 133.318C53.7147 132.983 60.3032 132.104 66.786 130.69L69.7092 130.112L76.372 115.632C67.4444 112.216 54.3821 111.296 40.2665 113.162C35.2628 116.263 29.4164 120.73 27.7573 124.094C26.5663 126.508 25.7071 129.072 25.2027 131.715Z" fill="black"/>
<path d="M7.4 138.811C7.15186 138.812 6.91207 138.722 6.72715 138.557C6.54223 138.391 6.42537 138.164 6.39926 137.917C5.87071 132.092 6.85004 126.228 9.24346 120.888C10.9264 117.155 13.2933 113.768 16.2223 110.902C19.6195 107.511 42.2941 92.5056 90.9353 80.3642C131.53 70.8474 173.148 66.3809 214.842 67.0665C214.986 67.0431 215.132 67.0511 215.272 67.0898C215.412 67.1286 215.542 67.1972 215.652 67.2909C215.763 67.3847 215.852 67.5013 215.912 67.6327C215.973 67.7642 216.005 67.9072 216.005 68.052C216.005 68.1968 215.973 68.3399 215.912 68.4713C215.852 68.6028 215.763 68.7194 215.652 68.8131C215.542 68.9069 215.412 68.9755 215.272 69.0143C215.132 69.053 214.986 69.061 214.842 69.0375C173.33 68.3194 131.888 72.733 91.462 82.1776C36.8428 95.738 17.7234 112.032 17.7234 112.189C14.9868 114.895 12.765 118.074 11.1659 121.571C8.9348 126.585 8.02814 132.086 8.53241 137.55C8.54321 137.677 8.52859 137.806 8.48937 137.928C8.45015 138.05 8.38712 138.163 8.30389 138.261C8.22067 138.359 8.1189 138.439 8.00445 138.497C7.89 138.556 7.76512 138.591 7.63701 138.601L7.4 138.811Z" fill="black"/>
<path d="M7.2685 184.854H2.6335C2.38537 184.855 2.14558 184.764 1.96066 184.599C1.77574 184.434 1.65888 184.206 1.63276 183.96V152.424C1.62184 152.287 1.63963 152.148 1.68501 152.018C1.73039 151.887 1.80237 151.768 1.89641 151.667C1.99044 151.565 2.1045 151.485 2.23137 151.43C2.35823 151.375 2.49516 151.346 2.6335 151.347H7.2685C7.52932 151.354 7.77714 151.462 7.95916 151.648C8.14118 151.835 8.24299 152.085 8.2429 152.345V183.96C8.21731 184.202 8.10421 184.426 7.92482 184.591C7.74543 184.755 7.51207 184.849 7.2685 184.854ZM3.6079 182.883H6.24142V153.318H3.6079V182.883Z" fill="black"/>
<path d="M2.63376 153.318C2.38563 153.319 2.14584 153.228 1.96092 153.063C1.776 152.898 1.65914 152.67 1.63303 152.424C1.63303 141.912 2.50209 136.919 7.40044 136.919C7.53064 136.919 7.65954 136.945 7.77951 136.995C7.89948 137.046 8.00809 137.12 8.09892 137.213C8.18976 137.306 8.26097 137.416 8.30836 137.537C8.35575 137.658 8.37836 137.788 8.37484 137.918C8.37847 138.046 8.35575 138.174 8.30807 138.294C8.26039 138.414 8.18875 138.522 8.09753 138.613C8.00632 138.704 7.89744 138.776 7.77758 138.823C7.65772 138.871 7.52938 138.894 7.40044 138.89C4.89859 138.89 3.60817 140.992 3.60817 152.424C3.58828 152.668 3.4769 152.896 3.29628 153.061C3.11565 153.227 2.87907 153.319 2.63376 153.318Z" fill="black"/>
<path d="M40.2137 188.507C39.9487 188.503 39.6948 188.4 39.5027 188.217C39.3209 188.031 39.2192 187.781 39.2192 187.521C39.2192 187.261 39.3209 187.011 39.5027 186.825C42.7885 183.42 45.2874 179.339 46.8239 174.867C47.8137 171.356 48.249 167.712 48.1143 164.066V163.698C48.1527 163.464 48.273 163.252 48.454 163.099C48.6349 162.945 48.8645 162.861 49.1019 162.861C49.3392 162.861 49.5688 162.945 49.7498 163.099C49.9307 163.252 50.051 163.464 50.0894 163.698V164.066C50.2284 167.926 49.7574 171.784 48.6937 175.498C47.0696 180.247 44.4171 184.581 40.9248 188.191C40.7384 188.385 40.483 188.499 40.2137 188.507Z" fill="black"/>
<path d="M13.1676 169.664C12.9685 169.662 12.7745 169.601 12.6103 169.489C12.4461 169.376 12.3192 169.218 12.2459 169.033C12.1587 168.785 12.1702 168.513 12.278 168.274C12.3858 168.034 12.5817 167.845 12.8252 167.745C19.6996 165.107 26.9031 163.418 34.2358 162.726C39.1754 162.253 44.1491 162.253 49.0888 162.726C49.2169 162.736 49.3418 162.771 49.4562 162.829C49.5707 162.887 49.6725 162.968 49.7557 163.065C49.8389 163.163 49.9019 163.276 49.9412 163.398C49.9804 163.521 49.995 163.649 49.9842 163.777C49.9575 164.037 49.8294 164.277 49.6275 164.444C49.4255 164.611 49.1659 164.693 48.9045 164.67C44.0855 164.25 39.239 164.25 34.4201 164.67C27.2514 165.361 20.209 167.014 13.4836 169.585C13.3838 169.63 13.2768 169.656 13.1676 169.664Z" fill="black"/>
<path d="M40.2139 188.507C38.5547 188.507 36.7639 188.506 34.9468 188.349C31.4179 188.349 28.0997 188.139 25.8085 187.981C16.2225 187.271 14.063 186.036 12.6409 184.827C10.0074 182.488 12.0352 169.059 12.2459 168.402C12.3333 168.169 12.5051 167.976 12.7275 167.863C12.9499 167.749 13.2068 167.723 13.4477 167.789C13.6886 167.855 13.8961 168.008 14.0294 168.219C14.1628 168.43 14.2123 168.683 14.1683 168.928C13.589 171.004 12.6146 182.068 13.9577 183.356C15.3008 184.643 17.3549 185.379 25.8875 185.984C28.1523 186.141 31.4442 186.246 34.9468 186.352C36.7376 186.352 38.5284 186.352 40.2139 186.509C40.3429 186.509 40.4707 186.535 40.5893 186.586C40.7079 186.637 40.8148 186.711 40.9036 186.805C40.9923 186.898 41.061 187.009 41.1055 187.13C41.1499 187.251 41.1691 187.379 41.1619 187.508C41.1623 187.764 41.0641 188.01 40.8877 188.196C40.7112 188.382 40.47 188.493 40.2139 188.507Z" fill="black"/>
<path d="M212.499 192.212C212.242 192.212 211.995 192.114 211.809 191.938C211.623 191.762 211.512 191.521 211.498 191.266C210.313 162.936 199.358 115.632 139.735 115.632H138.734C101.601 115.974 78.1629 129.219 55.383 142.043C40.1876 150.611 25.8349 158.705 8.717 161.753C8.45595 161.792 8.18997 161.729 7.97422 161.577C7.75846 161.426 7.60951 161.197 7.55825 160.939C7.53573 160.811 7.53911 160.68 7.56819 160.553C7.59726 160.427 7.65145 160.307 7.72754 160.202C7.80363 160.096 7.90009 160.007 8.01123 159.94C8.12237 159.872 8.24594 159.828 8.37464 159.809C25.1502 156.944 39.5028 148.929 54.4086 140.414C76.2931 128.089 101.075 114.134 138.681 113.766C200.911 113.293 212.209 162.042 213.447 191.187C213.454 191.317 213.435 191.447 213.391 191.569C213.347 191.692 213.278 191.804 213.19 191.899C213.101 191.995 212.995 192.072 212.876 192.126C212.757 192.179 212.629 192.209 212.499 192.212Z" fill="black"/>
<path d="M80.1644 203.907H30.1275C28.8107 203.88 0 203.197 0 187.85C0 185.642 4.34531 183.802 6.95249 182.935C7.07329 182.89 7.20206 182.87 7.33091 182.876C7.45975 182.882 7.58598 182.915 7.70185 182.971C7.81772 183.028 7.92079 183.107 8.00477 183.205C8.08875 183.303 8.15187 183.417 8.19025 183.54C8.23551 183.66 8.25564 183.789 8.24941 183.917C8.24318 184.046 8.21072 184.172 8.15402 184.287C8.09731 184.403 8.01756 184.506 7.91964 184.59C7.82172 184.673 7.7077 184.736 7.58454 184.775C5.48432 185.324 3.55569 186.39 1.97514 187.876C1.97514 201.279 29.7851 201.936 30.0748 201.936H79.743L84.6677 196.68C84.4307 193.053 83.1666 168.875 87.6699 158.442C93.9903 143.883 109.897 119.469 145.739 119.469C164.174 119.469 206.995 127.064 206.995 197.205C206.995 197.47 206.889 197.724 206.702 197.911C206.514 198.099 206.259 198.204 205.994 198.204C205.864 198.204 205.735 198.178 205.615 198.127C205.495 198.077 205.386 198.003 205.295 197.91C205.205 197.817 205.133 197.706 205.086 197.585C205.039 197.464 205.016 197.335 205.02 197.205C205.02 128.877 163.568 121.44 145.739 121.44C111.029 121.44 95.7021 145.092 89.487 159.231C84.9047 169.743 86.6428 196.706 86.6428 196.969C86.6558 197.101 86.6415 197.235 86.6007 197.361C86.56 197.488 86.4936 197.605 86.4058 197.705C86.4058 197.705 81.7708 202.724 80.9281 203.67C80.8257 203.763 80.7044 203.832 80.5724 203.873C80.4405 203.913 80.3012 203.925 80.1644 203.907Z" fill="black"/>
<path d="M698.804 121.414H694.011C693.88 121.414 693.75 121.388 693.628 121.338C693.507 121.287 693.397 121.214 693.304 121.121C693.211 121.028 693.137 120.918 693.087 120.797C693.036 120.676 693.011 120.546 693.011 120.415V89.3519C693.017 89.0917 693.126 88.8443 693.313 88.6627C693.5 88.4811 693.75 88.3795 694.011 88.3796H698.804C699.065 88.3795 699.316 88.4811 699.503 88.6627C699.69 88.8443 699.798 89.0917 699.805 89.3519V120.415C699.805 120.546 699.779 120.676 699.729 120.797C699.679 120.918 699.605 121.028 699.512 121.121C699.419 121.214 699.309 121.287 699.187 121.338C699.066 121.388 698.936 121.414 698.804 121.414ZM694.986 119.443H697.883V90.3506H694.986V119.443Z" fill="black"/>
<path d="M621.511 191.581C621.341 191.585 621.173 191.543 621.024 191.46C620.876 191.377 620.753 191.255 620.668 191.108C620.6 191 620.555 190.879 620.534 190.752C620.514 190.626 620.518 190.497 620.547 190.373C620.577 190.248 620.63 190.131 620.705 190.027C620.78 189.923 620.875 189.835 620.984 189.768C638.444 178.967 674.234 167.325 701.623 167.325C701.883 167.332 702.131 167.44 702.313 167.626C702.495 167.813 702.597 168.063 702.597 168.323C702.597 168.581 702.494 168.829 702.312 169.011C702.129 169.193 701.881 169.296 701.623 169.296C674.576 169.296 639.234 180.78 622.037 191.424C621.881 191.527 621.698 191.582 621.511 191.581Z" fill="black"/>
<path d="M690.851 192.606C678.184 192.606 670.573 189.242 668.545 186.982C668.348 186.805 668.193 186.585 668.093 186.339C667.993 186.093 667.949 185.828 667.966 185.563C667.966 185.011 668.23 183.251 675.867 181.595C680.686 180.57 693.775 178.967 696.355 183.251C696.711 184.191 696.832 185.205 696.709 186.203C696.585 187.201 696.219 188.154 695.644 188.98C695.204 189.93 694.537 190.757 693.701 191.39C692.866 192.022 691.887 192.44 690.851 192.606ZM670.047 185.721C671.179 187.035 677.815 190.635 690.851 190.635C691.799 190.635 693.09 189.558 693.985 188.007C694.373 187.472 694.638 186.857 694.761 186.207C694.884 185.558 694.862 184.889 694.696 184.249C693.985 183.014 690.93 182.304 686.559 182.357C678.843 182.436 671.284 184.538 670.047 185.721Z" fill="black"/>
<path d="M35.605 195.786C21.8317 195.786 10.0072 195.234 7.50536 193.447C5.39257 191.956 3.71191 189.934 2.63335 187.587C2.52271 187.353 2.50755 187.085 2.59108 186.84C2.6746 186.594 2.85028 186.391 3.08105 186.273C3.19827 186.215 3.32584 186.182 3.45618 186.175C3.58652 186.168 3.71697 186.187 3.83979 186.231C3.96261 186.275 4.0753 186.344 4.17115 186.432C4.26701 186.52 4.34409 186.627 4.39781 186.746C5.34445 188.791 6.81632 190.55 8.66411 191.844C12.9831 194.893 56.9365 193.815 85.4312 192.344C85.5744 192.32 85.721 192.328 85.8608 192.367C86.0006 192.406 86.1303 192.474 86.2409 192.568C86.3515 192.662 86.4404 192.778 86.5013 192.91C86.5622 193.041 86.5938 193.184 86.5938 193.329C86.5938 193.474 86.5622 193.617 86.5013 193.748C86.4404 193.88 86.3515 193.996 86.2409 194.09C86.1303 194.184 86.0006 194.252 85.8608 194.291C85.721 194.33 85.5744 194.338 85.4312 194.315C81.1386 194.472 56.1992 195.786 35.605 195.786Z" fill="black"/>
<path d="M27.0724 115.763C26.8948 115.756 26.7221 115.704 26.5701 115.612C26.4182 115.52 26.292 115.391 26.2033 115.238C26.1399 115.123 26.1004 114.996 26.0874 114.866C26.0743 114.735 26.0879 114.603 26.1272 114.478C26.1666 114.353 26.231 114.237 26.3165 114.137C26.402 114.037 26.5068 113.956 26.6247 113.898C56.1991 98.3398 79.6638 94.9497 102.365 91.6909C125.566 88.3534 147.451 85.2261 172.311 68.512C172.416 68.4343 172.537 68.3792 172.665 68.3502C172.792 68.3213 172.925 68.3191 173.053 68.3438C173.182 68.3685 173.304 68.4195 173.412 68.4937C173.52 68.5679 173.611 68.6636 173.68 68.7748C173.755 68.8812 173.807 69.0014 173.834 69.1283C173.861 69.2551 173.862 69.3861 173.837 69.5134C173.813 69.6407 173.763 69.7619 173.691 69.8697C173.619 69.9776 173.526 70.0699 173.417 70.1413C148.188 87.0919 126.014 90.2718 102.654 93.6357C80.1115 96.8944 56.8048 100.232 27.5464 115.632C27.4006 115.712 27.2384 115.757 27.0724 115.763Z" fill="black"/>
<path d="M11.2449 120.205C11.0102 120.198 10.7853 120.109 10.6098 119.953C10.4342 119.797 10.319 119.585 10.2845 119.353C10.25 119.122 10.2982 118.885 10.4209 118.685C10.5435 118.485 10.7327 118.335 10.9553 118.26L26.7564 113.819C26.8809 113.783 27.0113 113.772 27.14 113.787C27.2687 113.802 27.3931 113.843 27.5059 113.906C27.6187 113.97 27.7176 114.055 27.797 114.158C27.8763 114.26 27.9344 114.377 27.9678 114.502C28.0037 114.626 28.0144 114.756 27.9993 114.885C27.9842 115.013 27.9436 115.137 27.8798 115.25C27.8161 115.362 27.7305 115.461 27.628 115.54C27.5255 115.619 27.4083 115.677 27.2831 115.711L11.482 120.178L11.2449 120.205Z" fill="black"/>
<path d="M628.911 61.0485C624.353 61.156 619.805 60.5621 615.427 59.2878C606.462 56.4076 597.89 52.4263 589.909 47.4355C585.116 44.8075 579.691 41.5488 572.08 37.6593C563.415 33.1917 555.936 29.7753 549.932 27.0159C538.529 21.7599 533.815 19.6312 534.499 16.8456C535.184 14.0599 540.425 12.667 543.664 12.6145C543.921 12.6196 544.168 12.7187 544.357 12.893C544.547 13.0674 544.665 13.3048 544.691 13.5606C544.691 13.8235 544.59 14.0765 544.409 14.2673C544.228 14.4581 543.98 14.572 543.717 14.5855C541.035 14.4793 538.417 15.4222 536.422 17.2135C536.132 18.4224 543.901 21.9702 550.748 25.0975C556.779 27.8569 564.284 31.2996 573.001 35.7934C580.639 39.7354 586.169 42.8628 590.883 45.6485C598.717 50.5534 607.129 54.4726 615.928 57.3168C622.248 58.9084 628.797 59.3974 635.284 58.7622C636.864 58.7622 638.26 58.7622 639.419 58.7622C639.562 58.7388 639.709 58.7467 639.848 58.7855C639.988 58.8242 640.118 58.8928 640.228 58.9866C640.339 59.0803 640.428 59.197 640.489 59.3284C640.55 59.4598 640.581 59.6029 640.581 59.7477C640.581 59.8925 640.55 60.0356 640.489 60.167C640.428 60.2984 640.339 60.415 640.228 60.5088C640.118 60.6025 639.988 60.6712 639.848 60.7099C639.709 60.7486 639.562 60.7566 639.419 60.7332C638.286 60.7332 636.785 60.7332 635.389 60.7332C633.52 60.9434 631.281 61.0485 628.911 61.0485Z" fill="black"/>
<path d="M191.246 69.0377C191.086 69.0424 190.926 69.0063 190.784 68.9327C190.641 68.8592 190.519 68.7506 190.43 68.6172C190.354 68.5123 190.301 68.3935 190.272 68.2677C190.243 68.1419 190.239 68.0115 190.261 67.8843C190.283 67.7571 190.331 67.6356 190.4 67.5268C190.47 67.418 190.561 67.3241 190.667 67.2506C218.398 48.3027 287.054 13.4029 311.414 9.64483C313.02 9.40831 314.627 9.11923 316.365 8.80387C326.899 6.96427 342.7 4.17859 393.474 3.23251C434.979 2.47039 455.81 3.07483 482.619 5.86051C500.938 7.47165 518.979 11.3832 536.316 17.5026C536.436 17.549 536.545 17.6185 536.637 17.7071C536.73 17.7957 536.804 17.9016 536.855 18.0188C536.907 18.136 536.934 18.2621 536.937 18.39C536.939 18.5178 536.916 18.645 536.869 18.764C536.826 18.8855 536.758 18.9971 536.67 19.0921C536.582 19.1872 536.477 19.2639 536.359 19.3177C536.241 19.3715 536.114 19.4014 535.985 19.4056C535.855 19.4098 535.726 19.3882 535.605 19.3422C518.436 13.2948 500.572 9.42749 482.435 7.83151C455.704 5.20351 435.031 4.54651 393.527 5.20351C342.884 6.14959 327.136 8.90899 316.707 10.7486C314.943 11.064 313.336 11.353 311.73 11.5896C287.686 15.295 219.372 49.9321 191.799 68.88C191.632 68.9803 191.441 69.0347 191.246 69.0377Z" fill="black"/>
<path d="M382.624 185.222C382.496 185.208 382.371 185.17 382.258 185.109C382.145 185.047 382.045 184.964 381.964 184.864C381.883 184.764 381.823 184.648 381.787 184.525C381.751 184.401 381.74 184.272 381.755 184.144C382.817 174.15 383.309 164.103 383.23 154.053C383.164 145.386 382.469 136.735 381.149 128.168C380.385 122.701 379.595 117.025 379.121 108.878C378.309 90.7876 379.386 72.6619 382.334 54.7938C384.283 39.9656 387.035 25.2536 390.577 10.7222C390.667 10.4956 390.837 10.3096 391.055 10.1993C391.273 10.089 391.523 10.062 391.76 10.1234C391.996 10.1848 392.202 10.3303 392.338 10.5326C392.474 10.7349 392.532 10.9799 392.5 11.2215C388.927 25.7153 386.149 40.3925 384.178 55.188C381.242 72.9336 380.174 90.937 380.991 108.904C381.439 116.972 382.229 122.596 382.993 128.036C384.324 136.682 385.028 145.412 385.099 154.159C385.179 164.287 384.687 174.412 383.625 184.486C383.561 184.701 383.429 184.889 383.249 185.022C383.068 185.155 382.848 185.225 382.624 185.222Z" fill="black"/>
<path d="M219.398 184.381C219.138 184.381 218.887 184.279 218.7 184.097C218.513 183.916 218.405 183.668 218.398 183.408C218.398 150.164 212.578 137.55 206.968 125.356C201.991 114.555 197.277 104.332 197.277 80.9687C197.277 80.7038 197.382 80.4498 197.57 80.2625C197.758 80.0752 198.012 79.97 198.278 79.97C198.408 79.97 198.537 79.996 198.657 80.0465C198.777 80.097 198.885 80.171 198.976 80.2641C199.067 80.3571 199.138 80.4675 199.186 80.5885C199.233 80.7095 199.256 80.8388 199.252 80.9687C199.252 103.911 203.887 113.924 208.759 124.515C214.474 136.919 220.373 149.743 220.373 183.408C220.366 183.664 220.261 183.907 220.08 184.088C219.899 184.269 219.655 184.374 219.398 184.381Z" fill="black"/>
<path d="M471.822 185.774C471.648 185.781 471.475 185.738 471.326 185.649C471.176 185.56 471.056 185.43 470.979 185.274C470.92 185.16 470.884 185.036 470.873 184.908C470.862 184.78 470.877 184.652 470.916 184.53C470.955 184.408 471.018 184.294 471.101 184.197C471.184 184.099 471.286 184.019 471.4 183.96L480.038 179.151C492.284 157.68 503.003 139.284 521.437 125.908C542.005 111.086 572.449 109.956 595.466 123.096C608.87 130.769 619.009 143.436 625.593 160.781C625.679 161.025 625.667 161.293 625.559 161.529C625.451 161.764 625.255 161.948 625.014 162.043C624.894 162.089 624.767 162.112 624.639 162.11C624.511 162.107 624.384 162.08 624.267 162.028C624.149 161.977 624.043 161.903 623.954 161.811C623.866 161.719 623.796 161.61 623.75 161.491C617.324 144.593 607.474 132.241 594.465 124.699C572.106 111.927 542.532 113.03 522.596 127.327C504.372 140.467 493.785 158.863 481.566 180.176C481.454 180.318 481.321 180.442 481.171 180.544L472.322 185.484C472.185 185.624 472.012 185.724 471.822 185.774Z" fill="black"/>
<path d="M499.473 150.69C499.286 150.69 499.103 150.635 498.947 150.532C498.837 150.465 498.743 150.377 498.668 150.273C498.593 150.169 498.539 150.052 498.51 149.927C498.48 149.803 498.476 149.674 498.497 149.548C498.517 149.421 498.563 149.3 498.63 149.192C507.641 134.568 519.816 122.141 534.262 112.82C537.457 110.92 540.343 108.545 542.821 105.777C546.956 99.4963 546.482 91.5071 546.087 84.4378C545.665 78.0693 544.462 71.7764 542.505 65.7002C542.464 65.5776 542.447 65.4482 542.455 65.3191C542.464 65.1901 542.498 65.064 542.555 64.9481C542.613 64.8322 542.693 64.7287 542.79 64.6435C542.888 64.5584 543.001 64.4933 543.124 64.4518C543.247 64.4104 543.376 64.3936 543.506 64.4022C543.635 64.4108 543.761 64.4448 543.877 64.5021C543.994 64.5595 544.097 64.6391 544.183 64.7364C544.268 64.8338 544.333 64.9469 544.375 65.0694C546.405 71.2949 547.652 77.7478 548.088 84.2801C548.509 91.6385 548.983 100.048 544.48 106.802C541.899 109.813 538.838 112.379 535.421 114.397C521.2 123.571 509.222 135.812 500.369 150.217C500.277 150.37 500.145 150.495 499.987 150.578C499.829 150.662 499.652 150.7 499.473 150.69Z" fill="black"/>
<path d="M498.657 192.711L206.863 192.212C206.598 192.212 206.343 192.107 206.155 191.92C205.968 191.732 205.862 191.478 205.862 191.213C205.862 191.084 205.888 190.955 205.939 190.835C205.99 190.715 206.064 190.607 206.157 190.516C206.25 190.426 206.361 190.355 206.482 190.307C206.603 190.26 206.733 190.238 206.863 190.241L498.657 190.74C498.923 190.74 499.177 190.846 499.365 191.033C499.552 191.22 499.658 191.474 499.658 191.739C499.658 191.869 499.632 191.998 499.581 192.117C499.531 192.237 499.456 192.345 499.363 192.436C499.27 192.527 499.159 192.598 499.038 192.645C498.917 192.692 498.787 192.715 498.657 192.711Z" fill="black"/>
<path d="M681.187 65.9104C673.87 65.7622 666.569 65.1566 659.328 64.0971L657.827 63.9131C651.112 63.0722 643.975 61.8633 638.761 60.6807C638.634 60.6556 638.513 60.6057 638.406 60.5338C638.299 60.462 638.207 60.3695 638.136 60.2619C638.065 60.1544 638.016 60.0337 637.992 59.9071C637.968 59.7805 637.97 59.6504 637.997 59.5244C638.06 59.2704 638.217 59.05 638.438 58.9083C638.658 58.7666 638.924 58.7144 639.182 58.7622C644.449 59.9186 651.428 61.1274 658.091 61.9421L659.565 62.1261C671.469 63.624 682.74 65.0169 695.118 62.678C695.246 62.6474 695.38 62.6439 695.51 62.6678C695.639 62.6917 695.763 62.7423 695.872 62.8165C695.981 62.8908 696.073 62.9869 696.143 63.0988C696.213 63.2107 696.258 63.3359 696.277 63.4664C696.303 63.5942 696.304 63.7262 696.278 63.8543C696.253 63.9824 696.201 64.104 696.128 64.2119C696.054 64.3199 695.959 64.4119 695.849 64.4824C695.739 64.553 695.616 64.6007 695.487 64.6227C690.77 65.4956 685.983 65.9267 681.187 65.9104Z" fill="black"/>
<path d="M640.999 202.067C640.191 202.102 639.383 202.014 638.602 201.804C632.12 199.32 626.102 195.766 620.8 191.292C620.693 191.19 620.607 191.068 620.548 190.933C620.49 190.797 620.459 190.651 620.457 190.504C620.457 190.189 620.958 158.416 601.549 138.601C591.199 128.089 577.031 122.675 559.412 122.675C549.704 122.675 540.142 125.034 531.552 129.549C522.963 134.064 515.604 140.598 510.113 148.587C497.867 167.404 499.579 193.973 499.579 194.236L499.763 196.864C499.778 197.124 499.689 197.38 499.517 197.577C499.345 197.773 499.102 197.895 498.841 197.915C498.711 197.926 498.58 197.91 498.456 197.869C498.332 197.829 498.218 197.763 498.119 197.678C498.021 197.592 497.941 197.487 497.884 197.37C497.827 197.253 497.795 197.125 497.788 196.995L497.735 194.472C497.735 194.209 495.918 166.983 508.533 147.641C514.208 139.397 521.808 132.654 530.676 127.994C539.544 123.333 549.416 120.894 559.439 120.888C577.584 120.888 592.226 126.433 602.971 137.418C621.642 156.471 622.432 186.141 622.459 190.267C627.458 194.439 633.119 197.752 639.208 200.07C640.946 200.622 648.241 199.676 655.983 198.651C666.87 197.017 677.845 196.043 688.85 195.734C690.783 195.879 692.723 195.559 694.506 194.8C696.288 194.041 697.862 192.865 699.094 191.371C704.809 183.802 700.648 168.875 700.622 168.718C700.556 168.494 700.573 168.254 700.67 168.042C700.766 167.83 700.936 167.659 701.148 167.561L708.127 164.276C715.238 157.023 710.761 146.564 709.576 144.225C703.492 143.699 699.252 135.474 699.042 135.106C699.017 134.958 699.017 134.807 699.042 134.659C699.343 131.137 700.529 127.747 702.491 124.804C703.151 123.807 703.657 122.718 703.993 121.571C703.993 121.571 703.756 121.571 703.334 121.571H698.884C698.649 121.533 698.436 121.413 698.283 121.232C698.129 121.052 698.045 120.823 698.045 120.586C698.045 120.349 698.129 120.12 698.283 119.939C698.436 119.759 698.649 119.639 698.884 119.6H703.15C703.597 119.551 704.05 119.616 704.465 119.791C704.88 119.966 705.243 120.244 705.52 120.599C706.231 121.834 705.362 123.411 704.019 125.855C702.307 128.456 701.217 131.414 700.832 134.501C701.517 135.763 705.362 142.385 710.076 142.385C710.255 142.387 710.429 142.437 710.582 142.53C710.735 142.622 710.86 142.754 710.945 142.911C710.945 143.042 718.53 156.682 709.286 165.906C709.216 165.99 709.125 166.053 709.023 166.09L702.623 169.112C703.466 172.476 706.126 185.3 700.569 192.764C699.17 194.528 697.363 195.927 695.304 196.843C693.245 197.758 690.994 198.162 688.744 198.02C677.827 198.32 666.938 199.294 656.141 200.937C651.116 201.567 646.062 201.944 640.999 202.067Z" fill="black"/>
<path d="M698.805 90.3507C698.553 90.3308 698.319 90.2169 698.148 90.0317C697.977 89.8466 697.882 89.6038 697.883 89.3521C697.868 89.2222 697.88 89.0908 697.918 88.9656C697.955 88.8404 698.018 88.7241 698.101 88.6235C698.185 88.5229 698.288 88.4402 698.404 88.3803C698.521 88.3203 698.648 88.2844 698.778 88.2746L701.412 88.0381C704.756 79.3657 699.226 65.6212 697.198 64.2021C696.777 63.8867 694.828 64.8328 693.116 65.6475C684.771 69.8914 675.514 72.0385 666.149 71.9021C646.898 71.9021 620.247 62.126 610.345 57.3956C610.229 57.3386 610.125 57.2595 610.04 57.1626C609.955 57.0658 609.89 56.9531 609.848 56.8311C609.807 56.7091 609.79 56.5801 609.798 56.4515C609.806 56.3229 609.84 56.1972 609.897 56.0816C609.954 55.966 610.033 55.8627 610.131 55.7777C610.228 55.6927 610.34 55.6275 610.463 55.5861C610.585 55.5446 610.714 55.5275 610.843 55.5359C610.972 55.5442 611.098 55.5779 611.214 55.6348C620.563 60.1024 647.425 69.9311 666.149 69.9311C675.223 70.0657 684.192 67.9815 692.274 63.8605C695.197 62.4676 696.988 61.6004 698.357 62.5727C701.228 64.6226 707.153 79.9175 702.992 89.3521C702.928 89.5198 702.816 89.6657 702.672 89.7727C702.527 89.8797 702.355 89.9435 702.176 89.9565L699.015 90.2456L698.805 90.3507Z" fill="black"/>
<path d="M664.99 121.571C652.955 121.571 639.577 113.214 638.998 112.846C638.787 112.716 638.635 112.508 638.576 112.268L633.309 91.7172C633.245 91.4629 633.283 91.1935 633.416 90.9673C633.549 90.7411 633.766 90.5763 634.02 90.5083C634.275 90.4441 634.545 90.4826 634.772 90.6154C634.998 90.7481 635.164 90.9645 635.232 91.2179L640.499 111.401C642.632 112.662 654.641 119.6 665.096 119.6C672.468 119.479 679.591 116.918 685.347 112.321C690.983 106.46 691.062 94.2663 690.614 87.5124C690.6 87.2517 690.688 86.9957 690.861 86.7992C691.033 86.6027 691.275 86.4814 691.536 86.4612C691.666 86.4505 691.797 86.4659 691.921 86.5067C692.045 86.5475 692.16 86.6127 692.258 86.6985C692.356 86.7843 692.436 86.8889 692.493 87.0061C692.55 87.1234 692.583 87.2509 692.59 87.381C693.064 94.4766 692.932 107.301 686.743 113.661C680.607 118.693 672.932 121.484 664.99 121.571Z" fill="black"/>
<path d="M634.284 92.4531C634.049 92.4148 633.836 92.2946 633.683 92.1141C633.529 91.9336 633.445 91.7044 633.445 91.4676C633.445 91.2307 633.529 91.0015 633.683 90.821C633.836 90.6405 634.049 90.5204 634.284 90.4821C644.242 88.9983 654.063 86.7043 663.647 83.623C663.837 83.5703 664.037 83.5703 664.227 83.623C668.968 84.8437 673.791 85.722 678.658 86.251C682.825 86.6451 687.018 86.6978 691.194 86.4087C691.324 86.3979 691.455 86.4134 691.579 86.4542C691.703 86.4949 691.817 86.5601 691.916 86.6459C692.014 86.7317 692.094 86.8364 692.151 86.9536C692.208 87.0709 692.241 87.1983 692.247 87.3285C692.262 87.5891 692.173 87.8451 692.001 88.0416C691.829 88.2381 691.586 88.3595 691.326 88.3797C687.035 88.6729 682.728 88.6114 678.448 88.1957C673.568 87.6883 668.735 86.8098 663.99 85.5677C654.362 88.6549 644.497 90.9489 634.494 92.4268L634.284 92.4531Z" fill="black"/>
<path d="M686.743 113.004C686.59 113.003 686.439 112.967 686.302 112.899C686.165 112.83 686.046 112.732 685.953 112.61C683.358 109.21 681.501 105.308 680.502 101.152C679.521 96.534 679.721 91.7443 681.081 87.2234C681.117 87.1009 681.177 86.9866 681.258 86.8873C681.338 86.7879 681.438 86.7054 681.55 86.6444C681.663 86.5833 681.786 86.5451 681.914 86.5317C682.041 86.5183 682.17 86.5301 682.292 86.5664C682.547 86.6397 682.763 86.811 682.891 87.0426C683.019 87.2742 683.05 87.5472 682.977 87.8016C681.696 92.0046 681.515 96.4649 682.451 100.758C683.405 104.62 685.134 108.25 687.533 111.427C687.615 111.528 687.675 111.643 687.71 111.768C687.745 111.892 687.754 112.022 687.737 112.15C687.72 112.278 687.677 112.402 687.61 112.512C687.543 112.623 687.454 112.719 687.349 112.794C687.18 112.936 686.964 113.011 686.743 113.004Z" fill="black"/>
<path d="M660.697 111.532C660.568 111.568 660.432 111.568 660.302 111.532C660.144 111.532 645.107 104.594 638.549 104.516C638.419 104.516 638.29 104.49 638.17 104.439C638.05 104.389 637.942 104.315 637.851 104.222C637.76 104.128 637.689 104.018 637.642 103.897C637.594 103.776 637.572 103.647 637.575 103.517C637.582 103.257 637.69 103.009 637.877 102.828C638.064 102.646 638.315 102.544 638.576 102.545C644.949 102.545 658.038 108.352 660.671 109.535C662.356 108.615 668.572 104.699 668.572 99.023C668.572 92.4793 667.703 87.9591 663.305 85.6728C663.187 85.6145 663.082 85.5331 662.996 85.4333C662.911 85.3336 662.846 85.2176 662.807 85.0924C662.768 84.9672 662.754 84.8353 662.767 84.7047C662.78 84.5741 662.82 84.4475 662.883 84.3325C663.006 84.1068 663.212 83.9372 663.457 83.8589C663.702 83.7805 663.968 83.7996 664.2 83.912C669.467 86.6714 670.547 91.9537 670.547 99.023C670.547 106.907 661.435 111.48 661.04 111.664C660.92 111.637 660.804 111.593 660.697 111.532Z" fill="black"/>
<path d="M667.334 113.004C664.937 112.923 662.574 112.415 660.355 111.506C660.114 111.412 659.918 111.227 659.81 110.992C659.702 110.757 659.69 110.489 659.776 110.245C659.876 110.002 660.066 109.806 660.306 109.699C660.546 109.591 660.818 109.579 661.067 109.666C663.144 110.539 665.37 111.003 667.624 111.033C670.994 110.882 674.331 110.299 677.552 109.299L683.82 107.144C683.941 107.1 684.07 107.082 684.198 107.088C684.326 107.094 684.452 107.126 684.568 107.181C684.684 107.236 684.789 107.313 684.875 107.408C684.961 107.503 685.028 107.614 685.071 107.735C685.114 107.856 685.133 107.984 685.127 108.112C685.12 108.24 685.089 108.366 685.034 108.481C684.979 108.597 684.901 108.701 684.806 108.787C684.711 108.874 684.599 108.94 684.478 108.983L678.184 111.164C674.771 112.244 671.228 112.863 667.65 113.004H667.334Z" fill="black"/>
<path d="M710.181 144.12C667.676 144.12 643.58 133.397 638.576 112.242C638.52 111.988 638.566 111.722 638.704 111.501C638.842 111.28 639.06 111.122 639.313 111.059C639.568 111.004 639.834 111.05 640.056 111.187C640.277 111.324 640.436 111.543 640.498 111.795C645.212 131.663 669.309 142.149 710.181 142.149C710.447 142.149 710.701 142.254 710.889 142.441C711.077 142.628 711.182 142.882 711.182 143.147C711.182 143.277 711.156 143.406 711.106 143.526C711.055 143.645 710.981 143.754 710.887 143.844C710.794 143.935 710.684 144.006 710.562 144.053C710.441 144.101 710.312 144.123 710.181 144.12Z" fill="black"/>
<path d="M610.529 107.538H590.514C589.408 107.527 588.316 107.284 587.31 106.825C586.304 106.366 585.406 105.701 584.673 104.873C583.941 104.046 583.391 103.074 583.059 102.021C582.727 100.968 582.62 99.8571 582.745 98.7603L583.799 90.1667C584.046 88.2805 584.969 86.5472 586.397 85.2866C587.825 84.0261 589.661 83.3232 591.568 83.3076H611.609C612.705 83.3204 613.787 83.5607 614.785 84.0133C615.783 84.4659 616.676 85.1209 617.407 85.9367C618.137 86.7524 618.69 87.711 619.029 88.7514C619.369 89.7918 619.487 90.8914 619.378 91.98L618.324 100.574C618.099 102.483 617.183 104.245 615.747 105.528C614.312 106.81 612.456 107.525 610.529 107.538ZM591.568 85.2786C590.142 85.2809 588.766 85.803 587.699 86.7468C586.632 87.6906 585.947 88.9909 585.774 90.4032L584.641 98.9968C584.537 99.8201 584.609 100.656 584.854 101.45C585.098 102.243 585.51 102.975 586.061 103.597C586.612 104.219 587.289 104.716 588.048 105.056C588.807 105.395 589.63 105.57 590.462 105.567H610.476C611.925 105.562 613.321 105.022 614.395 104.052C615.47 103.081 616.147 101.749 616.296 100.311L617.35 91.7435C617.454 90.9223 617.383 90.0883 617.139 89.297C616.896 88.5056 616.487 87.7749 615.939 87.1534C615.391 86.532 614.717 86.0341 613.961 85.6927C613.205 85.3513 612.385 85.1743 611.556 85.1735L591.568 85.2786Z" fill="black"/>
<path d="M521.2 97.2361H498.288C497.487 97.2359 496.696 97.0454 495.983 96.6804C495.269 96.3154 494.653 95.7863 494.185 95.1369C493.717 94.4874 493.41 93.7361 493.29 92.9451C493.17 92.154 493.241 91.3458 493.495 90.5872L495.312 85.3312C495.62 84.4327 496.177 83.6397 496.918 83.0443C497.659 82.4489 498.554 82.0755 499.5 81.9674L523.386 79.3394C524.178 79.2416 524.982 79.3363 525.729 79.6154C526.477 79.8945 527.145 80.3498 527.678 80.9425C528.219 81.5234 528.613 82.2245 528.829 82.9876C529.044 83.7508 529.074 84.5542 528.916 85.3312L525.967 93.8459C525.629 94.8389 524.987 95.7006 524.132 96.3091C523.276 96.9176 522.251 97.2419 521.2 97.2361ZM524.07 81.0476H523.702L499.789 83.6756C499.196 83.7306 498.632 83.956 498.164 84.3244C497.697 84.6929 497.347 85.1887 497.156 85.7517L495.339 91.0077C495.203 91.4488 495.171 91.915 495.244 92.3705C495.317 92.826 495.494 93.2588 495.76 93.6357C496.05 94.059 496.445 94.4001 496.907 94.6258C497.368 94.8514 497.881 94.954 498.394 94.9234H521.305C521.941 94.9218 522.561 94.7239 523.079 94.3569C523.598 93.9899 523.99 93.4718 524.202 92.8736L527.099 84.4377C527.143 84.0126 527.098 83.5831 526.966 83.1764C526.834 82.7698 526.619 82.395 526.334 82.0761C526.049 81.7571 525.701 81.5009 525.311 81.3238C524.921 81.1467 524.499 81.0526 524.07 81.0476Z" fill="black"/>
<path d="M361.661 102.492H338.75C337.945 102.495 337.151 102.305 336.436 101.939C335.72 101.572 335.102 101.039 334.635 100.386C334.168 99.7316 333.865 98.9754 333.752 98.1804C333.638 97.3854 333.718 96.5749 333.983 95.8169L335.774 90.5609C336.084 89.664 336.642 88.8727 337.382 88.2777C338.123 87.6827 339.017 87.3081 339.961 87.197L363.874 84.569C364.666 84.4784 365.47 84.5764 366.217 84.8549C366.965 85.1335 367.636 85.5847 368.176 86.1717C368.715 86.7587 369.107 87.4648 369.321 88.2323C369.534 88.9997 369.563 89.8067 369.404 90.5872L366.481 99.1019C366.134 100.099 365.482 100.962 364.617 101.571C363.753 102.179 362.719 102.501 361.661 102.492ZM364.453 86.4086H364.111L340.198 89.0366C339.61 89.0958 339.051 89.3196 338.585 89.6823C338.119 90.045 337.765 90.5318 337.565 91.0865L335.774 96.3425C335.637 96.7819 335.601 97.2466 335.669 97.7017C335.738 98.1568 335.909 98.5906 336.169 98.9705C336.453 99.368 336.829 99.6922 337.264 99.9161C337.699 100.14 338.181 100.257 338.671 100.258H361.582C362.22 100.264 362.843 100.07 363.363 99.7015C363.884 99.3334 364.274 98.8109 364.479 98.2084L367.402 89.7725C367.483 89.3295 367.466 88.8741 367.351 88.4386C367.236 88.0031 367.027 87.5981 366.738 87.2522C366.449 86.9062 366.088 86.6278 365.679 86.4367C365.271 86.2455 364.825 86.1462 364.374 86.1458L364.453 86.4086Z" fill="black"/>
<path d="M249.052 81.2579C234.726 81.2579 221.321 80.4169 220.294 74.2674C219.715 70.6933 225.35 65.6476 230.38 62.4414C237.599 57.5533 246.21 55.1286 254.925 55.5298C265.275 55.5298 268.356 61.0748 268.487 61.3114C268.61 61.5419 268.638 61.8114 268.564 62.0619C268.49 62.3124 268.321 62.5241 268.092 62.6516C264.574 64.6842 261.517 67.4223 259.112 70.6933C258.155 72.1057 257.326 73.6009 256.637 75.1609C255.162 78.2882 253.766 81.2579 249.052 81.2579ZM254.925 57.6059C246.594 57.2123 238.36 59.527 231.46 64.2022C225.087 68.2756 221.979 72.3227 222.243 74.0572C223.138 79.3132 242.626 79.3132 249.052 79.3132C252.502 79.3132 253.397 77.4473 254.846 74.3462C255.581 72.6776 256.462 71.0771 257.479 69.5633C259.84 66.3503 262.788 63.6127 266.17 61.4953C265.011 60.1288 261.851 57.5008 254.925 57.5008V57.6059Z" fill="black"/>
<path d="M258.296 71.1137C258.079 71.1099 257.87 71.0362 257.699 70.9035C257.528 70.7708 257.404 70.5864 257.348 70.3779C256.837 69.009 255.97 67.8006 254.836 66.8768C253.702 65.9531 252.342 65.3473 250.895 65.1219C242.178 62.7304 228.616 66.0679 224.007 70.3779C223.914 70.4659 223.804 70.5346 223.684 70.5803C223.564 70.6259 223.436 70.6476 223.308 70.6439C223.048 70.6365 222.803 70.5266 222.625 70.3384C222.446 70.1502 222.351 69.8992 222.358 69.6404C222.365 69.3817 222.475 69.1365 222.664 68.9587C227.72 64.0969 241.994 60.444 251.422 63.072C253.225 63.3784 254.91 64.1654 256.301 65.3497C257.692 66.534 258.736 68.0716 259.323 69.7997C259.359 69.9239 259.369 70.0541 259.354 70.1825C259.339 70.3109 259.298 70.4351 259.235 70.5476C259.171 70.6602 259.085 70.7589 258.983 70.8381C258.88 70.9172 258.763 70.9752 258.638 71.0086L258.296 71.1137Z" fill="black"/>
<path d="M537.975 66.4095C537.815 66.4142 537.656 66.378 537.513 66.3045C537.37 66.2309 537.248 66.1224 537.159 65.989C535.921 64.1231 534.71 62.3098 533.525 60.4702C517.724 36.424 504.214 15.7941 418.519 15.7941H402.533C353.524 15.7941 324.002 15.5839 296.982 27.7778C278.547 36.056 248.025 49.8793 249.421 56.6858C249.445 56.8118 249.444 56.9413 249.418 57.0669C249.392 57.1926 249.342 57.3118 249.269 57.418C249.197 57.5242 249.105 57.6151 248.998 57.6856C248.89 57.7561 248.77 57.8049 248.644 57.829C248.517 57.8532 248.388 57.8523 248.262 57.8264C248.136 57.8005 248.016 57.7501 247.91 57.6782C247.804 57.6062 247.712 57.514 247.642 57.4068C247.571 57.2997 247.522 57.1797 247.498 57.0538C246.05 49.9056 262.746 40.9441 296.166 25.8594C323.58 13.4815 354.998 13.5603 402.533 13.6917H418.519C505.267 13.6917 519.119 34.8734 535.184 59.3927C536.369 61.206 537.554 63.0456 538.792 64.8852C538.866 64.9917 538.918 65.1119 538.945 65.2387C538.972 65.3656 538.973 65.4965 538.949 65.6239C538.924 65.7512 538.874 65.8723 538.802 65.9802C538.73 66.088 538.637 66.1803 538.528 66.2518C538.361 66.3521 538.17 66.4065 537.975 66.4095Z" fill="black"/>
<path d="M256.663 83.9121C256.493 83.916 256.325 83.8741 256.177 83.7908C256.028 83.7076 255.905 83.5861 255.82 83.4391L252.95 78.6824C252.822 78.4581 252.787 78.1933 252.851 77.9435C252.914 77.6937 253.073 77.4782 253.292 77.3421C253.521 77.2136 253.79 77.1774 254.045 77.241C254.3 77.3045 254.52 77.4629 254.661 77.6837L257.506 82.4141C257.643 82.6377 257.688 82.9064 257.628 83.1621C257.569 83.4178 257.412 83.6401 257.19 83.7807C257.03 83.8734 256.847 83.919 256.663 83.9121Z" fill="black"/>
<path d="M391.446 73.1374C391.183 73.1107 390.94 72.9838 390.769 72.7831C390.597 72.5824 390.51 72.3234 390.524 72.0599C392.105 51.0359 394.29 27.9095 398.583 14.2439C398.619 14.1186 398.68 14.002 398.762 13.9014C398.845 13.8008 398.948 13.7183 399.064 13.6591C399.18 13.5999 399.307 13.5653 399.438 13.5574C399.568 13.5494 399.698 13.5684 399.821 13.6131C400.071 13.6919 400.28 13.8655 400.403 14.0964C400.526 14.3274 400.553 14.5974 400.479 14.8483C396.213 28.2774 393.974 52.5076 392.579 72.1125C392.589 72.2589 392.565 72.4057 392.51 72.5418C392.455 72.678 392.37 72.7999 392.261 72.8985C392.152 72.9971 392.022 73.0698 391.881 73.1112C391.74 73.1526 391.591 73.1615 391.446 73.1374Z" fill="black"/>
<path d="M370.853 74.4249C370.722 74.4183 370.594 74.3857 370.477 74.3288C370.359 74.272 370.255 74.1922 370.169 74.0941C370.083 73.9961 370.017 73.8818 369.976 73.758C369.936 73.6343 369.92 73.5036 369.931 73.3737C370.774 63.2296 377.199 27.6728 381.782 14.3225C381.865 14.0786 382.043 13.8779 382.275 13.7645C382.507 13.6511 382.775 13.6344 383.019 13.7181C383.143 13.7568 383.257 13.8197 383.356 13.903C383.455 13.9863 383.536 14.0885 383.595 14.2035C383.654 14.3184 383.689 14.4439 383.699 14.5727C383.708 14.7014 383.692 14.8308 383.651 14.9532C379.122 28.0933 372.749 63.4924 371.906 73.5314C371.896 73.6593 371.861 73.7839 371.802 73.8981C371.744 74.0123 371.663 74.1139 371.566 74.1969C371.468 74.2799 371.354 74.3428 371.232 74.382C371.109 74.4211 370.981 74.4357 370.853 74.4249Z" fill="black"/>
<path d="M506.558 67.4344C506.299 67.3953 506.065 67.2593 505.904 67.0543C505.743 66.8492 505.665 66.5904 505.689 66.3306C507.242 51.7189 503.345 34.1113 498.736 26.9106C498.636 26.6929 498.618 26.4468 498.685 26.217C498.752 25.9872 498.899 25.789 499.1 25.6585C499.301 25.5279 499.543 25.4738 499.78 25.5058C500.018 25.5379 500.236 25.654 500.395 25.8331C505.188 33.3492 509.296 51.0882 507.637 66.5934C507.598 66.8443 507.465 67.0709 507.264 67.2271C507.064 67.3833 506.811 67.4574 506.558 67.4344Z" fill="black"/>
<path d="M498.552 198.099H205.994C205.864 198.099 205.735 198.073 205.615 198.022C205.495 197.972 205.386 197.898 205.296 197.805C205.205 197.712 205.133 197.601 205.086 197.48C205.039 197.359 205.016 197.23 205.02 197.1C205.016 196.971 205.039 196.843 205.086 196.724C205.134 196.604 205.206 196.496 205.297 196.404C205.388 196.313 205.497 196.242 205.617 196.194C205.737 196.147 205.865 196.124 205.994 196.128H498.552C498.682 196.124 498.812 196.147 498.933 196.194C499.054 196.241 499.165 196.312 499.258 196.403C499.351 196.494 499.425 196.602 499.476 196.722C499.527 196.842 499.553 196.97 499.553 197.1C499.553 197.365 499.447 197.619 499.26 197.806C499.072 197.994 498.817 198.099 498.552 198.099Z" fill="black"/>
<path d="M471.821 185.773H219.398C219.268 185.777 219.139 185.754 219.017 185.707C218.896 185.66 218.786 185.589 218.692 185.498C218.599 185.407 218.525 185.299 218.474 185.179C218.424 185.06 218.398 184.931 218.398 184.801C218.398 184.536 218.503 184.282 218.691 184.095C218.878 183.908 219.133 183.802 219.398 183.802H471.821C472.087 183.802 472.341 183.908 472.529 184.095C472.717 184.282 472.822 184.536 472.822 184.801C472.822 184.931 472.796 185.06 472.745 185.179C472.695 185.299 472.621 185.407 472.527 185.498C472.434 185.589 472.324 185.66 472.202 185.707C472.081 185.754 471.951 185.777 471.821 185.773Z" fill="black"/>
<ellipse rx="7.66095" ry="7.63158" transform="matrix(-1 0 0 1 560.781 180.105)" fill="#2B334F"/>
<ellipse rx="7.66095" ry="7.63158" transform="matrix(-1 0 0 1 568.442 88.5264)" fill="#2B334F"/>
<ellipse rx="7.66092" ry="7.63158" transform="matrix(-1 0 0 1 448.931 128.211)" fill="#2B334F"/>
<path d="M303.873 135.842C303.873 142.308 309.136 147.553 315.631 147.553C322.126 147.553 327.388 142.308 327.388 135.842C327.388 129.377 322.126 124.132 315.631 124.132C309.136 124.132 303.873 129.377 303.873 135.842Z" stroke="#F5C257"/>
<ellipse rx="7.66096" ry="7.63158" transform="matrix(-1 0 0 1 315.631 135.842)" fill="#F5C257"/>
<ellipse rx="7.66095" ry="7.63158" transform="matrix(-1 0 0 1 163.944 99.2106)" fill="#2B334F"/>
<ellipse rx="7.66094" ry="7.63158" transform="matrix(-1 0 0 1 145.558 178.579)" fill="#2B334F"/>
<ellipse rx="7.66093" ry="7.63158" transform="matrix(-1 0 0 1 323.292 44.2633)" fill="#2B334F"/>
<ellipse rx="7.66092" ry="7.63158" transform="matrix(-1 0 0 1 448.931 42.737)" fill="#2B334F"/>
</svg>
