<svg width="10" height="13" viewBox="0 0 10 13" fill="none" xmlns="http://www.w3.org/2000/svg">
<path d="M7.54002 12.9999C7.06671 13.0005 6.60764 12.8381 6.24002 12.5399L1.14002 8.32995C0.940025 8.17073 0.778513 7.96846 0.667502 7.73819C0.556491 7.50792 0.49884 7.25558 0.49884 6.99995C0.49884 6.74432 0.556491 6.49197 0.667502 6.2617C0.778513 6.03143 0.940025 5.82916 1.14002 5.66995L6.24002 1.45995C6.54705 1.21394 6.91702 1.05913 7.30775 1.01316C7.69849 0.967195 8.09428 1.03191 8.45002 1.19995C8.75919 1.33623 9.02261 1.55862 9.2088 1.84057C9.39499 2.12251 9.49609 2.45209 9.50002 2.78995V11.2099C9.49609 11.5478 9.39499 11.8774 9.2088 12.1593C9.02261 12.4413 8.75919 12.6637 8.45002 12.7999C8.16415 12.9299 7.85405 12.9981 7.54002 12.9999Z" fill="white"/>
</svg>
