<svg width="26" height="26" viewBox="0 0 26 26" fill="none" xmlns="http://www.w3.org/2000/svg">
    <g clip-path="url(#clip0_1_3093)">
        <path d="M21.2031 3.625H16.9062V2.84375C16.9062 1.54932 15.8569 0.5 14.5625 0.5H11.4375C10.1431 0.5 9.09375 1.54932 9.09375 2.84375V3.625H4.79688C3.71821 3.625 2.84375 4.49946 2.84375 5.57812V7.14062C2.84375 7.57212 3.19351 7.92188 3.625 7.92188H22.375C22.8065 7.92188 23.1562 7.57212 23.1562 7.14062V5.57812C23.1562 4.49946 22.2818 3.625 21.2031 3.625ZM10.6562 2.84375C10.6562 2.41309 11.0068 2.0625 11.4375 2.0625H14.5625C14.9932 2.0625 15.3438 2.41309 15.3438 2.84375V3.625H10.6562V2.84375Z" fill="white"/>
        <path d="M4.32702 9.48438C4.18761 9.48438 4.07653 9.60088 4.08317 9.74014L4.7277 23.2676C4.78727 24.5195 5.81559 25.5 7.06852 25.5H18.9328C20.1857 25.5 21.214 24.5195 21.2736 23.2676L21.9181 9.74014C21.9248 9.60088 21.8137 9.48438 21.6743 9.48438H4.32702ZM16.1256 11.4375C16.1256 11.0059 16.4753 10.6562 16.9069 10.6562C17.3385 10.6562 17.6881 11.0059 17.6881 11.4375V21.5938C17.6881 22.0254 17.3385 22.375 16.9069 22.375C16.4753 22.375 16.1256 22.0254 16.1256 21.5938V11.4375ZM12.2194 11.4375C12.2194 11.0059 12.569 10.6562 13.0006 10.6562C13.4323 10.6562 13.7819 11.0059 13.7819 11.4375V21.5938C13.7819 22.0254 13.4323 22.375 13.0006 22.375C12.569 22.375 12.2194 22.0254 12.2194 21.5938V11.4375ZM8.31315 11.4375C8.31315 11.0059 8.66276 10.6562 9.0944 10.6562C9.52604 10.6562 9.87565 11.0059 9.87565 11.4375V21.5938C9.87565 22.0254 9.52604 22.375 9.0944 22.375C8.66276 22.375 8.31315 22.0254 8.31315 21.5938V11.4375Z" fill="white"/>
    </g>
    <defs>
        <clipPath id="clip0_1_3093">
            <rect width="25" height="25" fill="white" transform="translate(0.5 0.5)"/>
        </clipPath>
    </defs>
</svg>
