<svg width="26" height="26" viewBox="0 0 26 26" fill="none" xmlns="http://www.w3.org/2000/svg">
<path d="M25.5 12.9971C25.5 6.09332 19.9038 0.49707 13 0.49707C6.09626 0.49707 0.500011 6.09332 0.500011 12.9971C0.497275 15.0221 0.988559 17.0173 1.93126 18.8096L0.536261 24.1708C0.489865 24.3499 0.491038 24.538 0.539664 24.7165C0.588291 24.895 0.682685 25.0578 0.813507 25.1886C0.944329 25.3194 1.10704 25.4138 1.28555 25.4624C1.46405 25.511 1.65216 25.5122 1.83126 25.4658L7.19376 24.0696C8.98447 25.01 10.9774 25.5 13 25.4971C19.9038 25.4971 25.5 19.9008 25.5 12.9971ZM13 6.12457C13.2487 6.12457 13.4871 6.22334 13.6629 6.39916C13.8387 6.57497 13.9375 6.81343 13.9375 7.06207V14.8746C13.9375 15.1232 13.8387 15.3617 13.6629 15.5375C13.4871 15.7133 13.2487 15.8121 13 15.8121C12.7514 15.8121 12.5129 15.7133 12.3371 15.5375C12.1613 15.3617 12.0625 15.1232 12.0625 14.8746V7.06207C12.0625 6.81343 12.1613 6.57497 12.3371 6.39916C12.5129 6.22334 12.7514 6.12457 13 6.12457ZM14.25 18.6208C14.25 18.9523 14.1183 19.2703 13.8839 19.5047C13.6495 19.7391 13.3315 19.8708 13 19.8708C12.6685 19.8708 12.3505 19.7391 12.1161 19.5047C11.8817 19.2703 11.75 18.9523 11.75 18.6208C11.75 18.2893 11.8817 17.9714 12.1161 17.7369C12.3505 17.5025 12.6685 17.3708 13 17.3708C13.3315 17.3708 13.6495 17.5025 13.8839 17.7369C14.1183 17.9714 14.25 18.2893 14.25 18.6208Z" fill="#F5C257"/>
</svg>
