<svg width="27" height="30" viewBox="0 0 27 30" fill="none" xmlns="http://www.w3.org/2000/svg">
<path d="M24.1071 3.75H21.2143V0.703125C21.2143 0.314824 20.8905 0 20.4911 0H18.0804C17.681 0 17.3571 0.314824 17.3571 0.703125V3.75H9.64286V0.703125C9.64286 0.314824 9.31904 0 8.91964 0H6.50893C6.10953 0 5.78571 0.314824 5.78571 0.703125V3.75H2.89286C1.29516 3.75 0 5.00918 0 6.5625V27.1875C0 28.7408 1.29516 30 2.89286 30H24.1071C25.7048 30 27 28.7408 27 27.1875V6.5625C27 5.00918 25.7048 3.75 24.1071 3.75ZM23.7455 27.1875H3.25446C3.15856 27.1875 3.06658 27.1505 2.99877 27.0845C2.93095 27.0186 2.89286 26.9292 2.89286 26.8359V9.375H24.1071V26.8359C24.1071 26.9292 24.069 27.0186 24.0012 27.0845C23.9334 27.1505 23.8414 27.1875 23.7455 27.1875ZM20.5604 15.4307L11.9838 23.7023C11.7002 23.9757 11.2423 23.974 10.961 23.6983L6.4354 19.2628C6.15413 18.9871 6.15594 18.5419 6.4395 18.2684L7.80873 16.9479C8.09229 16.6745 8.5502 16.6763 8.83147 16.952L11.4895 19.5571L18.1836 13.1012C18.4672 12.8278 18.9251 12.8295 19.2064 13.1052L20.5646 14.4363C20.8459 14.712 20.844 15.1572 20.5604 15.4307Z" fill="#F5C257"/>
</svg>
