<svg width="30" height="24" viewBox="0 0 30 24" fill="none" xmlns="http://www.w3.org/2000/svg">
<path d="M29.2958 7.3125H25.7879L24.8129 4.875C23.8109 2.36894 21.4197 0.75 18.7203 0.75H11.279C8.58018 0.75 6.18841 2.36894 5.18588 4.875L4.21089 7.3125H0.703492C0.245879 7.3125 -0.0898608 7.74258 0.0214664 8.18613L0.373026 9.59238C0.450955 9.90527 0.732203 10.125 1.05505 10.125H2.23102C1.44411 10.8123 0.937279 11.8113 0.937279 12.9375V15.75C0.937279 16.6945 1.29821 17.5471 1.87477 18.2068V21.375C1.87477 22.4104 2.71441 23.25 3.74976 23.25H5.62474C6.66008 23.25 7.49972 22.4104 7.49972 21.375V19.5H22.4996V21.375C22.4996 22.4104 23.3392 23.25 24.3746 23.25H26.2496C27.2849 23.25 28.1246 22.4104 28.1246 21.375V18.2068C28.7011 17.5477 29.062 16.6951 29.062 15.75V12.9375C29.062 11.8113 28.5552 10.8123 27.7689 10.125H28.9449C29.2677 10.125 29.549 9.90527 29.6269 9.59238L29.9784 8.18613C30.0892 7.74258 29.7534 7.3125 29.2958 7.3125ZM8.66749 6.26777C9.09463 5.2002 10.1288 4.5 11.279 4.5H18.7203C19.8705 4.5 20.9047 5.2002 21.3318 6.26777L22.4996 9.1875H7.49972L8.66749 6.26777ZM5.62474 15.7383C4.49975 15.7383 3.74976 14.9906 3.74976 13.8691C3.74976 12.7477 4.49975 12 5.62474 12C6.74973 12 8.43722 13.6822 8.43722 14.8037C8.43722 15.9252 6.74973 15.7383 5.62474 15.7383ZM24.3746 15.7383C23.2496 15.7383 21.5621 15.9252 21.5621 14.8037C21.5621 13.6822 23.2496 12 24.3746 12C25.4996 12 26.2496 12.7477 26.2496 13.8691C26.2496 14.9906 25.4996 15.7383 24.3746 15.7383Z" fill="#F5C257"/>
</svg>
