<svg width="30" height="30" viewBox="0 0 30 30" fill="none" xmlns="http://www.w3.org/2000/svg">
<circle cx="15" cy="15" r="15" fill="#2B334F"/>
<g clip-path="url(#clip0_1_2270)">
<path d="M6 13.1613C6.03474 13.0685 6.06486 12.9737 6.10563 12.8836C6.15302 12.7787 6.23335 12.7006 6.34942 12.6791C6.66751 12.6204 6.98561 12.5584 7.30611 12.517C7.48283 12.4943 7.57761 12.5779 7.60492 12.752C7.63585 12.9482 7.65091 13.1467 7.67521 13.3634C7.74911 13.3634 7.83205 13.37 7.91277 13.3596C7.93989 13.3561 7.97181 13.3128 7.98346 13.2814C8.12082 12.9113 8.25015 12.5385 8.39092 12.1698C8.5821 11.6695 8.79878 11.1812 9.13394 10.7558C9.19418 10.6801 9.25925 10.609 9.32351 10.5367C9.62232 10.2019 10.0101 10.0693 10.4481 10.0127C12.3307 9.76933 14.2204 9.69006 16.1169 9.73786C17.017 9.76083 17.9143 9.82476 18.8089 9.92965C19.0944 9.96271 19.3792 10.0043 19.6655 10.0292C20.1363 10.0717 20.4923 10.3067 20.7875 10.6556C21.0899 11.0129 21.308 11.4194 21.4795 11.8494C21.6623 12.3075 21.8305 12.7731 21.9978 13.238C22.0324 13.3346 22.0735 13.3827 22.181 13.3628C22.2288 13.3539 22.28 13.3614 22.3296 13.3614C22.3497 13.1706 22.3615 12.9894 22.387 12.81C22.4224 12.5608 22.5025 12.4913 22.7569 12.5218C23.0454 12.555 23.3318 12.6038 23.615 12.6678C23.856 12.7231 24.0423 13.0414 23.9907 13.2852C23.9622 13.419 23.8628 13.5142 23.7353 13.559C23.4196 13.6697 23.0905 13.703 22.7573 13.6942C22.697 13.6918 22.6384 13.674 22.587 13.6425C22.4846 13.5787 22.3886 13.5765 22.2858 13.6339C22.2461 13.6536 22.2053 13.6711 22.1637 13.6865C22.1922 13.8077 22.2664 13.9134 22.3709 13.9822C22.7153 14.2172 23.0662 14.4439 23.4003 14.6924C23.8939 15.0597 23.8118 14.9514 23.8927 15.5544C24.0361 16.6249 24.0106 17.6998 23.96 18.7751C23.9399 19.2133 23.9385 19.6514 23.9094 20.0882C23.8967 20.2772 23.8443 20.4654 23.7929 20.6494C23.7491 20.8062 23.6266 20.8711 23.4634 20.8699C23.0718 20.8671 22.6802 20.8595 22.289 20.8687C21.4928 20.8886 20.6969 20.9197 19.9007 20.939C19.627 20.9456 19.3545 20.9326 19.0926 20.8233C19.0022 20.7855 18.8888 20.7914 18.7864 20.7938C17.8797 20.8137 16.9732 20.858 16.0665 20.8589C14.7347 20.8603 13.4031 20.8331 12.0713 20.8161C11.7568 20.8119 11.4423 20.798 11.1274 20.7926C11.0582 20.7926 10.9812 20.7926 10.9202 20.8187C10.6021 20.9595 10.2667 20.945 9.93299 20.9368C8.9528 20.9131 7.97282 20.8836 6.99263 20.8591C6.83901 20.8552 6.68498 20.8659 6.53076 20.8689C6.38115 20.8719 6.27773 20.8066 6.21548 20.6697C6.11507 20.4465 6.09378 20.2085 6.08374 19.9699C6.05864 19.3618 6.04016 18.7548 6.01687 18.1479C6.01446 18.085 6.00582 18.0235 6 17.9611V16.7861C6.00623 16.7241 6.01265 16.6624 6.01888 16.6004C6.06667 16.1256 6.1144 15.6512 6.16206 15.1772C6.16596 15.1274 6.18051 15.0791 6.20475 15.0353C6.22899 14.9916 6.26236 14.9534 6.30263 14.9235C6.40826 14.8422 6.50867 14.7538 6.61771 14.6777C6.94564 14.4481 7.27659 14.2234 7.60653 13.9982C7.71999 13.9207 7.80293 13.8235 7.83646 13.6855C7.80534 13.6721 7.77622 13.6624 7.75092 13.648C7.63043 13.5827 7.51837 13.571 7.39387 13.6506C7.32982 13.6867 7.25613 13.7023 7.18281 13.6954C6.92717 13.6727 6.67233 13.6401 6.4179 13.6058C6.22491 13.5797 6.09157 13.4664 6 13.3007V13.1613ZM21.056 13.3804C21.0761 13.3804 21.0962 13.3804 21.1162 13.3804C21.3066 13.3804 21.347 13.3346 21.3261 13.1459C21.3239 13.126 21.3233 13.1061 21.3193 13.0862C21.1504 12.2895 20.8405 11.5558 20.3138 10.9221C20.1814 10.7628 20.0346 10.6273 19.8156 10.5976C19.7352 10.5869 19.6589 10.56 19.5796 10.5516C18.9814 10.4885 18.3841 10.4045 17.7839 10.3724C16.832 10.3218 15.878 10.278 14.9251 10.2838C13.8618 10.2901 12.7982 10.3467 11.7357 10.3981C11.2042 10.4218 10.6759 10.4922 10.1569 10.6084C9.99574 10.6421 9.85097 10.7292 9.74643 10.8554C9.18535 11.5184 8.83854 12.2804 8.67768 13.1278C8.64234 13.314 8.70158 13.3835 8.89135 13.3786C9.14539 13.3718 9.39922 13.3491 9.65325 13.3455C11.3967 13.3214 13.14 13.2883 14.8833 13.2818C16.9413 13.274 18.9992 13.2965 21.056 13.3804ZM14.9982 19.2045V19.1828C15.3562 19.1828 15.7145 19.1894 16.0723 19.1814C16.8782 19.1637 17.6845 19.1459 18.49 19.1135C18.8715 19.0981 19.1717 18.9103 19.377 18.5907C19.5212 18.3664 19.4953 18.1479 19.3167 17.9518C19.1978 17.8215 19.0757 17.6946 18.9514 17.5684C18.8122 17.4219 18.6299 17.323 18.4305 17.2856C18.1646 17.236 17.8976 17.1918 17.6295 17.1557C16.844 17.047 16.0528 16.9833 15.2598 16.9651C14.1088 16.9424 12.9687 17.0623 11.8325 17.2294C11.5457 17.2716 11.2656 17.3373 11.0531 17.5566C10.9188 17.696 10.782 17.8323 10.6539 17.9767C10.5133 18.136 10.4766 18.3262 10.5784 18.5122C10.6515 18.6416 10.7456 18.7582 10.8567 18.8574C11.1124 19.0892 11.4357 19.1272 11.7654 19.1342C12.8436 19.1573 13.9211 19.1807 14.9982 19.2045ZM6.70567 15.039C6.69161 15.1541 6.67695 15.2419 6.67113 15.3304C6.65386 15.5893 6.64844 15.8482 6.73941 16.0971C6.7868 16.2278 6.87235 16.3162 7.0089 16.3549C7.20128 16.41 7.39306 16.468 7.58444 16.5265C7.70875 16.5644 7.82542 16.5608 7.94029 16.4905C8.0672 16.4128 8.20757 16.3909 8.35537 16.412C8.63009 16.4491 8.90541 16.4825 9.18013 16.5208C9.51649 16.5678 9.84282 16.5656 10.1607 16.414C10.287 16.3543 10.4366 16.3407 10.576 16.3077C10.613 16.2989 10.6511 16.2953 10.6887 16.2891L10.6935 16.2563C9.52252 15.3575 8.15355 15.0975 6.70567 15.039ZM19.2752 16.277C19.3205 16.2931 19.3324 16.2983 19.3446 16.3015C19.5631 16.3596 19.7802 16.4232 20.0005 16.4734C20.1551 16.5086 20.3156 16.553 20.4704 16.5445C20.8068 16.5246 21.1417 16.4781 21.4763 16.4339C21.6815 16.4068 21.8822 16.3857 22.0689 16.502C22.1663 16.5628 22.2697 16.5652 22.3774 16.5333C22.538 16.4861 22.6953 16.4262 22.8593 16.3967C23.1569 16.3429 23.276 16.1505 23.3112 15.8789C23.315 15.8492 23.3206 15.8191 23.323 15.79C23.3435 15.5487 23.3319 15.3058 23.2887 15.0675C23.2403 15.0647 23.2005 15.0617 23.1606 15.0605C22.6183 15.0436 22.0886 15.1306 21.5633 15.2539C20.9725 15.3923 20.3909 15.5556 19.8694 15.8743C19.6722 15.9952 19.486 16.1332 19.2752 16.277Z" fill="white"/>
<path d="M6.10296 20.6406C6.1379 20.749 6.1632 20.831 6.19031 20.9119C6.24774 21.0766 6.36442 21.1523 6.54134 21.1489C6.86526 21.1427 7.18957 21.1373 7.51349 21.1407C7.85106 21.1445 8.18844 21.159 8.52581 21.1692C8.54187 21.1692 8.55774 21.1732 8.58284 21.1764C8.58686 21.3954 8.58666 21.6087 8.49046 21.8095C8.43022 21.935 8.32981 21.9995 8.18763 21.9993C7.6629 21.9993 7.13796 22.0019 6.61323 21.9979C6.33209 21.9957 6.24272 21.9198 6.18007 21.6432C6.10737 21.3214 6.08649 20.9951 6.10296 20.6406Z" fill="white"/>
<path d="M23.8804 20.6436C23.9019 21.0074 23.8804 21.3657 23.7882 21.7177C23.7424 21.8933 23.6328 21.9907 23.4454 21.9931C23.3117 21.9949 23.1781 21.9981 23.0438 21.9983C22.6389 21.9991 22.2341 21.9991 21.8294 21.9983C21.6423 21.9983 21.5463 21.9342 21.478 21.7605C21.4051 21.5743 21.4005 21.3795 21.4059 21.1733C21.5814 21.1656 21.7539 21.1534 21.9264 21.1512C22.3911 21.147 22.856 21.1451 23.3207 21.1476C23.6852 21.1498 23.7675 21.0901 23.8545 20.7366C23.8627 20.7055 23.8719 20.6746 23.8804 20.6436Z" fill="white"/>
<path d="M9.42799 8.45294C9.19384 8.55651 8.96069 8.66266 8.72513 8.76225C8.69448 8.77309 8.66742 8.79206 8.64688 8.8171C8.62634 8.84213 8.61312 8.87228 8.60866 8.90425C8.55625 9.15281 8.49681 9.39997 8.41909 9.65211C8.39077 9.59236 8.36186 9.53122 8.33434 9.47027C8.25402 9.29521 8.17249 9.12114 8.09839 8.94368C8.07188 8.88015 8.03191 8.85406 7.96826 8.84052C7.71683 8.78694 7.46621 8.72958 7.19531 8.66904C7.21812 8.65247 7.24192 8.6373 7.2666 8.62363C7.47967 8.52843 7.69173 8.43064 7.90741 8.34141C7.98151 8.31074 8.01244 8.26454 8.0279 8.19085C8.08091 7.94289 8.13915 7.69592 8.2014 7.42188C8.23072 7.48162 8.2496 7.51887 8.26667 7.55671C8.35844 7.75906 8.45202 7.96061 8.53918 8.16495C8.54808 8.18927 8.5635 8.21072 8.58377 8.227C8.60405 8.24329 8.62841 8.25378 8.65425 8.25737C8.91129 8.31293 9.16753 8.37129 9.42398 8.42865L9.42799 8.45294Z" fill="white"/>
<path d="M13.7305 7.75582C13.9606 7.66142 14.1668 7.56801 14.3795 7.49273C14.4958 7.4517 14.555 7.39136 14.5803 7.26887C14.6269 7.0462 14.694 6.82792 14.7582 6.58594C14.8627 6.83708 14.9611 7.06393 15.051 7.29576C15.0788 7.36646 15.1187 7.39793 15.1916 7.41525C15.3966 7.46186 15.5995 7.51663 15.8031 7.56901C15.8376 7.57777 15.8712 7.58992 15.929 7.60884C15.6928 7.70583 15.481 7.79864 15.2643 7.87911C15.1639 7.91635 15.1111 7.96773 15.0882 8.07608C15.0402 8.30253 14.9739 8.52499 14.9075 8.77415C14.8568 8.65465 14.8153 8.55507 14.7743 8.45768C14.741 8.37801 14.6956 8.30113 14.6775 8.21868C14.6327 8.01533 14.5032 7.93308 14.305 7.90141C14.1203 7.86975 13.9385 7.809 13.7305 7.75582Z" fill="white"/>
<path d="M20.0625 9.02958C20.2645 8.94672 20.4641 8.85431 20.6698 8.78461C20.7993 8.74079 20.8595 8.67048 20.886 8.53844C20.929 8.32494 20.9935 8.11542 21.0541 7.88379C21.0742 7.92362 21.0893 7.94712 21.0997 7.97222C21.1823 8.17138 21.2674 8.36915 21.3447 8.56971C21.3738 8.64499 21.415 8.68403 21.4965 8.70275C21.7357 8.75752 21.9727 8.82225 22.2383 8.89036C22.0542 8.96604 21.9002 9.04969 21.7349 9.09231C21.4905 9.15465 21.3744 9.29705 21.3411 9.54003C21.3184 9.70614 21.2608 9.86726 21.2122 10.0535C21.1907 10.0093 21.176 9.98297 21.1646 9.95529C21.0808 9.75334 20.9955 9.55198 20.9154 9.34864C20.8901 9.28431 20.8551 9.24906 20.784 9.23352C20.5431 9.17775 20.3059 9.11263 20.0671 9.05109L20.0625 9.02958Z" fill="white"/>
<path d="M19.3208 6.19727C19.1113 6.29904 18.924 6.39345 18.7336 6.48088C18.7062 6.49146 18.6822 6.50912 18.664 6.53202C18.6458 6.55493 18.6341 6.58224 18.6302 6.61113C18.5847 6.84323 18.5272 7.07284 18.4579 7.29905C18.402 7.1427 18.3293 6.98994 18.2946 6.82922C18.2482 6.61372 18.1279 6.50598 17.913 6.46873C17.7771 6.44523 17.6464 6.39146 17.4941 6.34565C17.6964 6.24806 17.8771 6.15505 18.0631 6.07399C18.1408 6.04033 18.1721 5.99114 18.1876 5.91466C18.2335 5.68861 18.285 5.46355 18.341 5.20703C18.4034 5.3805 18.4729 5.52231 18.5038 5.67188C18.5541 5.91406 18.682 6.0485 18.9328 6.08315C19.0571 6.09928 19.1758 6.15286 19.3208 6.19727Z" fill="white"/>
<path d="M10.4512 5.74447C10.61 5.69966 10.7681 5.65206 10.9281 5.61123C10.9992 5.59311 11.0404 5.56025 11.0651 5.48775C11.1187 5.33141 11.1844 5.17925 11.255 5C11.3083 5.18642 11.3577 5.34874 11.3996 5.51285C11.4159 5.57718 11.4446 5.61362 11.5097 5.63633C11.6703 5.69229 11.827 5.75702 12.0149 5.82972C11.8491 5.87592 11.7119 5.92332 11.5709 5.95101C11.4456 5.9759 11.3761 6.03565 11.3406 6.15853C11.3014 6.29357 11.2402 6.42203 11.1779 6.58136C11.1217 6.38498 11.0775 6.21709 11.0235 6.05238C11.0068 6.00889 10.9741 5.9733 10.9319 5.9528C10.7741 5.88468 10.612 5.82633 10.4516 5.76439L10.4512 5.74447Z" fill="white"/>
</g>
<defs>
<clipPath id="clip0_1_2270">
<rect width="18" height="17" fill="white" transform="translate(6 5)"/>
</clipPath>
</defs>
</svg>
