<svg width="30" height="19" viewBox="0 0 30 19" fill="none" xmlns="http://www.w3.org/2000/svg">
<path d="M3.48057 9.22978C3.05674 9.26944 2.67832 9.31654 2.29869 9.33824C1.85674 9.3728 1.41336 9.38418 0.970279 9.37232C0.321817 9.34134 0.0160529 9.01347 0.000916098 8.35155C-0.00889664 7.87794 0.00646471 7.40414 0.0469321 6.93225C0.0983973 6.34903 0.410216 6.06084 0.979361 6.04844C1.7253 6.03357 2.47246 6.03047 3.21961 6.0441C3.44727 6.04844 3.57563 5.96911 3.66403 5.76582C4.10058 4.76054 4.57224 3.76889 4.97307 2.74873C5.43746 1.57114 6.30511 0.868933 7.41857 0.42455C8.35645 0.0502022 9.33974 0.0030989 10.3345 0.00743737C12.7255 0.0179736 15.1178 0.00743737 17.507 0C17.8703 0 18.1355 0.185934 18.2668 0.544168C18.3879 0.879469 18.5024 1.21725 18.6301 1.5823C19.0715 1.38459 19.4832 1.19804 19.8962 1.0152C20.4702 0.761711 20.8801 0.964379 21.0466 1.58168C21.0817 1.70998 21.1204 1.83827 21.1556 1.96656C21.3269 2.58635 21.3263 2.58077 21.9572 2.50391C22.3272 2.45805 22.6989 2.41715 23.0707 2.39297C23.6665 2.35393 23.9934 2.72828 23.9183 3.33132C23.8487 3.88912 23.7918 4.44693 23.7264 5.03758C24.407 5.10885 25.0584 5.18447 25.7063 5.24273C26.1344 5.28053 26.4674 5.4175 26.5776 5.89907C26.5921 5.96105 26.7398 6.03233 26.827 6.03357C27.4822 6.04472 28.1385 6.03357 28.7942 6.041C29.631 6.04844 29.8919 6.2821 29.9682 7.14235C30.0041 7.56322 30.0099 7.9862 29.9858 8.40795C29.9525 9.0364 29.6534 9.35497 29.0255 9.36861C28.3976 9.38224 27.7788 9.31964 27.1552 9.2868C26.956 9.27626 26.7574 9.25519 26.5116 9.23535V9.72312C26.5116 12.0008 26.5213 14.2785 26.5031 16.5562C26.5016 16.997 26.4382 17.4354 26.3148 17.8577C26.0859 18.6213 25.5816 18.9734 24.8011 18.9932C24.4378 19.0031 24.0745 18.9969 23.7113 18.9932C22.5257 18.9932 21.7186 18.3114 21.4789 17.114C21.4474 16.9541 21.4262 16.7917 21.3935 16.5922H21.0714C17.0349 16.5922 12.9996 16.5905 8.96556 16.5872C8.70218 16.5872 8.59501 16.6312 8.54597 16.9374C8.48102 17.3214 8.35024 17.6907 8.15967 18.0282C7.81153 18.6554 7.25691 18.9857 6.54003 18.995C6.1162 19.0006 5.69237 19.0025 5.26854 18.995C4.43238 18.9814 3.86687 18.568 3.6386 17.7443C3.53786 17.3677 3.48655 16.979 3.48602 16.5884C3.4727 14.3107 3.47936 12.033 3.47936 9.75535L3.48057 9.22978ZM22.3429 4.067C21.4631 4.17298 20.6518 4.26347 19.8435 4.37689C19.7881 4.39227 19.737 4.42067 19.6942 4.45984C19.6514 4.499 19.6182 4.54785 19.5971 4.60249C19.4923 4.98862 19.4245 5.38528 19.3361 5.77636C19.2683 6.07509 19.0818 6.22198 18.8487 6.15628C18.5756 6.07881 18.5302 5.86313 18.5811 5.61769C18.6919 5.08406 18.8166 4.55353 18.925 4.01928C18.9765 3.76765 19.1212 3.65547 19.3634 3.63439C19.5807 3.61518 19.7969 3.57799 20.0481 3.54391C19.9815 3.29042 19.921 3.06853 19.8605 2.84479C19.8197 2.85068 19.7792 2.85896 19.7394 2.86959C18.5599 3.32017 17.378 3.76889 16.204 4.22629C16.0946 4.27606 15.9963 4.34819 15.9152 4.43825C15.3194 5.04378 14.7369 5.65612 14.146 6.25979C13.9208 6.49158 13.7167 6.51328 13.5405 6.33788C13.3643 6.16248 13.3873 5.9375 13.5974 5.7181C13.9347 5.36296 14.2768 5.01279 14.6164 4.66013C14.8175 4.45189 15.0179 4.2424 15.2383 4.01246C14.7539 3.71373 14.3179 3.4435 13.8808 3.17018C13.6017 2.9954 13.5175 2.77724 13.6465 2.56403C13.7754 2.35083 13.9983 2.3279 14.2816 2.50205C14.7484 2.78901 15.2116 3.08093 15.679 3.36541C15.762 3.41561 15.877 3.48937 15.9479 3.46705C16.4674 3.28732 16.9772 3.08403 17.5009 2.8857C17.3465 2.44256 17.1939 2.04962 17.0771 1.64614C17.0165 1.43603 16.913 1.38769 16.7138 1.38831C14.2314 1.39513 11.7489 1.38831 9.26648 1.39761C8.97447 1.39666 8.68353 1.43373 8.40065 1.50793C7.33744 1.79736 6.78222 2.60742 6.4147 3.58853C5.99087 4.72211 5.57854 5.86127 5.16863 7.00104C5.10457 7.17369 5.06383 7.35447 5.04754 7.53839C5.01484 8.00447 5.19951 8.22449 5.65786 8.21643C6.24153 8.20528 6.82703 8.17243 7.40707 8.10983C9.27132 7.90902 11.1295 7.63632 12.9974 7.49005C16.1217 7.24524 19.2193 7.61401 22.309 8.06335C22.9853 8.16127 23.6731 8.18049 24.3573 8.21829C24.6146 8.23193 24.9022 8.14206 24.8774 7.83651C24.8465 7.45782 24.7036 7.08719 24.6007 6.71594C24.5922 6.68496 24.5196 6.65397 24.4748 6.65397C23.506 6.57773 22.5318 6.24925 21.5685 6.70851C21.3971 6.79094 21.2052 6.82565 21.0193 6.87709C20.6906 6.96943 20.4968 6.887 20.432 6.63289C20.3715 6.39118 20.4889 6.21888 20.7923 6.12467C21.178 6.00568 21.5673 5.89907 21.9505 5.77326C22.0317 5.74599 22.1449 5.66604 22.1552 5.59662C22.2321 5.10142 22.2823 4.60311 22.3429 4.067ZM7.7649 12.8059C8.49147 12.8059 9.21804 12.8226 9.94461 12.7941C10.1172 12.7873 10.3503 12.6702 10.4326 12.5289C10.5041 12.4049 10.4623 12.1303 10.3666 12.0033C10.0245 11.5465 9.6673 11.0928 9.25619 10.7018C9.06243 10.5158 8.73608 10.4055 8.46483 10.395C7.52816 10.3578 6.58786 10.3764 5.6512 10.3807C5.24856 10.3807 5.06873 10.5778 5.06449 10.9974C5.06025 11.3996 5.06449 11.8031 5.06449 12.2035C5.06752 12.6373 5.22676 12.8034 5.64817 12.8053C6.35415 12.8078 7.06074 12.8047 7.76672 12.8047L7.7649 12.8059ZM22.3308 11.3866C22.1594 11.0842 22.0087 10.8059 21.8428 10.5369C21.801 10.4687 21.7035 10.3801 21.6442 10.3888C21.3517 10.4321 20.9782 10.4111 20.7899 10.5871C20.2976 11.0476 19.875 11.5887 19.4518 12.1204C19.2998 12.3113 19.3809 12.5351 19.568 12.6925C19.7436 12.8406 20.6131 12.8716 20.788 12.7235C21.3009 12.289 21.8034 11.8459 22.3326 11.3854L22.3308 11.3866ZM24.8374 11.9302C24.2598 11.8911 23.6985 11.8514 23.1367 11.818C23.0769 11.814 23.0177 11.8313 22.969 11.8669C22.6311 12.1514 22.2981 12.4427 21.9069 12.7811C22.0795 12.7929 22.1752 12.8047 22.2702 12.8053C22.8945 12.8053 23.5193 12.8053 24.1436 12.8053C24.7678 12.8053 24.924 12.6045 24.8393 11.9289L24.8374 11.9302ZM22.7231 10.3807L22.6626 10.465C22.8152 10.6547 22.9441 10.9782 23.1233 11.0104C23.6816 11.1102 24.258 11.0997 24.8229 11.1344C24.8968 10.6875 24.7212 10.4049 24.3434 10.3906C23.8075 10.3658 23.2656 10.3819 22.7249 10.3819L22.7231 10.3807Z" fill="#F5C257"/>
</svg>
