<svg width="29" height="30" viewBox="0 0 29 30" fill="none" xmlns="http://www.w3.org/2000/svg">
<path d="M18.1656 20.3256C18.0622 20.9563 17.5705 20.6659 17.2404 20.7732V26.7148H18.2726V30H0V26.7277H0.881702C0.881702 26.6075 0.896215 26.515 0.896215 26.4243C0.903472 18.7218 0.9071 11.0199 0.9071 3.31854C0.9071 2.58972 0.892587 1.86829 0.9071 1.14502C0.915761 1.02536 0.962229 0.911778 1.03954 0.82131C1.25243 0.579395 1.47707 0.348498 1.71261 0.129486C1.79619 0.0535558 1.9021 0.00801879 2.01376 0C6.7065 0 11.4004 0 16.0956 0C16.2139 0.00536371 16.3268 0.0524367 16.4149 0.133185C16.6907 0.401406 17.0535 0.64003 17.1805 0.969293C17.3075 1.29856 17.2349 1.72586 17.2349 2.10877C17.2349 3.633 17.2349 5.15723 17.2349 6.68147C17.2349 6.8387 17.2694 6.91824 17.4327 6.95524C17.7447 7.02553 18.0495 7.12172 18.3561 7.20866C18.6692 7.2887 18.9436 7.48111 19.1289 7.75065C19.3249 8.03552 19.5099 8.32778 19.7095 8.60895C19.7324 8.63986 19.762 8.66496 19.796 8.68229C19.83 8.69961 19.8674 8.7087 19.9054 8.70884C20.0577 8.66914 20.2172 8.66776 20.3702 8.70481C20.5231 8.74187 20.665 8.81625 20.7835 8.92157C20.9695 9.07472 21.1447 9.241 21.3078 9.41916C21.7486 9.87976 22.1786 10.3441 22.6213 10.8102C22.7303 10.9045 22.8038 11.0344 22.8293 11.1778C22.8548 11.3212 22.8306 11.4691 22.761 11.5964C22.7209 11.6713 22.7055 11.7574 22.7169 11.8419C22.7284 11.9265 22.7661 12.0051 22.8245 12.0662C23.1873 12.5379 23.5374 13.0207 23.913 13.485C24.0238 13.6185 24.1602 13.7274 24.3139 13.805C24.4083 13.8601 24.4905 13.9345 24.5551 14.0237C24.6198 14.1129 24.6655 14.2148 24.6895 14.323C24.7058 14.3729 24.6514 14.4599 24.6115 14.508C24.5499 14.587 24.4839 14.6624 24.4137 14.7336C24.9834 15.6178 25.5911 16.4854 26.1191 17.3992C27.3092 19.4599 28.2562 21.6315 28.7696 23.9771C28.9927 24.9945 29.1107 26.0211 28.9238 27.0588C28.5846 28.9364 27.2039 29.5634 25.9467 29.5339C25.6245 29.5313 25.3076 29.4492 25.0233 29.2945C24.7389 29.1399 24.4955 28.9174 24.3139 28.646C23.994 28.1895 23.7194 27.7019 23.4939 27.1902C23.1002 26.3023 22.7682 25.3829 22.3909 24.4876C21.9613 23.4158 21.3118 22.4502 20.486 21.6556C19.8173 21.0444 19.0252 20.5904 18.1656 20.3256ZM9.09459 9.10655H14.6642C15.027 9.10655 15.096 9.03811 15.096 8.66445V3.33888C15.096 2.92268 15.0379 2.86349 14.6333 2.86349H3.55765C3.17667 2.86349 3.12043 2.92268 3.12043 3.31669V8.64225C3.12043 9.04921 3.17485 9.10655 3.56853 9.10655H9.09459ZM17.2422 7.93748C17.2348 7.97346 17.2299 8.00993 17.2277 8.04662C17.2277 9.35627 17.2277 10.6659 17.2277 11.9737C17.2311 12.0618 17.256 12.1477 17.3002 12.2235C18.0259 13.5331 18.7516 14.8391 19.4591 16.1506C19.4829 16.203 19.5225 16.2463 19.5721 16.2742C19.6217 16.3022 19.6787 16.3133 19.7349 16.306C20.0832 16.2967 20.4315 16.306 20.7799 16.306C20.8434 16.306 20.9395 16.33 20.9613 16.3762C21.1935 16.7999 21.413 17.229 21.6525 17.6915H17.2349V19.0252C17.404 19.0112 17.5738 19.0112 17.7429 19.0252C17.8631 19.0619 17.9766 19.1188 18.0785 19.1935C18.1656 19.2453 18.2382 19.3378 18.3307 19.3655C19.7928 19.796 21.0782 20.699 21.9936 21.9386C22.4804 22.5885 22.8874 23.2967 23.2054 24.0474C23.5955 24.9723 23.9493 25.9083 24.3429 26.8221C24.5102 27.2074 24.7074 27.5786 24.9326 27.9319C25.0314 28.1014 25.1658 28.2465 25.326 28.3568C25.4863 28.4672 25.6685 28.54 25.8596 28.5701C26.823 28.7181 27.6956 28.0984 27.9478 27.0755C28.1008 26.3653 28.1107 25.6309 27.9768 24.9168C27.7437 23.5321 27.3389 22.1833 26.7722 20.9027C25.9917 18.9893 24.9728 17.1863 23.7406 15.5383C23.6844 15.4643 23.6227 15.394 23.6028 15.37C23.44 15.4273 23.2688 15.4554 23.0966 15.4532C22.9152 15.4144 22.7338 14.9741 22.7573 14.7706C22.7522 14.6825 22.7357 14.5954 22.7084 14.5117C22.3455 14.865 22.0226 15.185 21.6906 15.4939C21.1917 15.9563 20.6347 15.9286 20.1721 15.431C20.1057 15.3623 20.045 15.288 19.9907 15.209C19.4464 14.397 18.9022 13.5868 18.3579 12.7673C18.287 12.6419 18.2571 12.4968 18.2726 12.3529C18.3112 12.0451 18.3651 11.7395 18.4341 11.4373C18.5175 11.0396 18.5611 10.6622 18.2962 10.296C18.1384 10.0795 18.2001 9.86866 18.4033 9.68554C18.5248 9.57455 18.6627 9.47836 18.7933 9.37477C18.6082 9.12181 18.4368 8.85875 18.2799 8.58676C18.0676 8.1391 17.6957 7.98927 17.244 7.93748H17.2422ZM12.5071 12.0477C12.9498 12.0477 13.3906 12.0477 13.8333 12.0477C13.8826 12.0548 13.9328 12.0501 13.98 12.034C14.0272 12.018 14.07 11.9909 14.1052 11.955C14.1404 11.9192 14.1669 11.8754 14.1827 11.8273C14.1985 11.7792 14.2031 11.728 14.1961 11.6778C14.1961 11.5224 14.1961 11.3688 14.1961 11.2135C14.203 11.1645 14.1988 11.1147 14.184 11.0676C14.1691 11.0206 14.1439 10.9776 14.1104 10.9419C14.0768 10.9063 14.0357 10.8789 13.9902 10.8618C13.9447 10.8448 13.896 10.8385 13.8478 10.8435C12.9504 10.8435 12.0529 10.8435 11.1555 10.8435C11.1098 10.84 11.064 10.8465 11.0209 10.8626C10.9779 10.8786 10.9388 10.9039 10.9061 10.9366C10.8735 10.9694 10.8481 11.0089 10.8316 11.0525C10.8152 11.0961 10.8081 11.1428 10.8108 11.1894C10.8108 11.3374 10.8108 11.4854 10.8108 11.6315C10.8108 11.9219 10.9269 12.0366 11.2063 12.0385C11.6381 12.0496 12.0735 12.0477 12.5071 12.0477ZM21.7432 13.1336C21.6452 13.2149 21.5618 13.2797 21.4874 13.3407C21.2153 13.5553 21.1246 13.5368 20.9431 13.2371C20.7926 12.9856 20.6511 12.7266 20.4914 12.4806C20.4479 12.4121 20.3299 12.3178 20.2882 12.3363C19.9526 12.4787 19.626 12.6471 19.285 12.8117C19.597 13.2797 19.8873 13.7218 20.1812 14.1583C20.2937 14.3304 20.4148 14.4965 20.544 14.6559C20.6456 14.778 20.7871 14.8409 20.9232 14.7114C21.3078 14.3415 21.6833 13.9715 22.0607 13.6016L21.7432 13.1336Z" fill="#2B334F"/>
</svg>
