<svg width="30" height="28" viewBox="0 0 30 28" fill="none" xmlns="http://www.w3.org/2000/svg">
<g clip-path="url(#clip0_1_2153)">
<path d="M29.9581 18.3577C29.8452 16.9258 29.3815 15.547 28.6106 14.3509C27.0866 12.0034 24.9617 10.6456 22.2321 10.3612C21.1667 10.2377 20.0881 10.3321 19.0581 10.6393C18.0281 10.9464 17.0668 11.4601 16.2293 12.1511C14.0005 13.9385 12.8808 16.3254 12.8713 19.2354C12.859 21.0959 13.4463 22.9077 14.5407 24.3859C16.0587 26.4785 18.0931 27.6788 20.6092 27.9557C22.2605 28.146 23.9288 27.8101 25.3898 26.9931C27.5302 25.8101 28.9672 24.0166 29.6504 21.6026C29.8198 20.9994 29.8889 20.3716 30.0082 19.745V18.5362C29.9867 18.4783 29.97 18.4186 29.9581 18.3577ZM23.5045 19.1443C23.1639 19.5896 22.6676 19.8792 22.1224 19.9506C22.0038 19.9665 21.8843 19.9743 21.7647 19.974C21.3044 19.974 20.8441 19.974 20.3838 19.974H20.2956V20.4578H21.6073V21.5423H20.2956V22.7844H19.2379V21.5497H18.8908V20.4615H19.2331V19.9752H18.8908V18.8858H19.2367V15.5252H19.3177C20.1413 15.5252 20.9657 15.5252 21.7909 15.5252C22.1141 15.5176 22.4348 15.586 22.7286 15.7252C23.0224 15.8645 23.2816 16.071 23.4866 16.3291C23.8055 16.7232 23.9818 17.2194 23.9855 17.7329C23.9892 18.2464 23.82 18.7453 23.5069 19.1443H23.5045Z" fill="#F5C257"/>
<path d="M21.8766 16.6185C21.3614 16.6111 20.8463 16.6185 20.3264 16.6185C20.3151 16.6195 20.3039 16.6215 20.293 16.6247V18.8848H20.3287C20.8272 18.8848 21.3268 18.8848 21.8253 18.8848C21.9694 18.8879 22.1126 18.8617 22.2469 18.8077C22.3812 18.7537 22.5038 18.673 22.6078 18.57C22.7119 18.4671 22.7952 18.344 22.8532 18.2078C22.9111 18.0716 22.9426 17.925 22.9456 17.7763C22.9487 17.6275 22.9233 17.4796 22.871 17.341C22.8187 17.2024 22.7404 17.0758 22.6407 16.9684C22.541 16.861 22.4218 16.775 22.2898 16.7151C22.1579 16.6553 22.0159 16.6229 21.8718 16.6197L21.8766 16.6185Z" fill="#F5C257"/>
<path d="M9.89109 8.83485C7.60275 8.81023 5.24048 8.46556 3.00223 7.466C2.21473 7.1318 1.4887 6.66046 0.855792 6.07252C-0.259161 5.00156 -0.253199 3.8112 0.868909 2.74886C1.68575 1.96965 2.64687 1.46741 3.66881 1.08334C6.2505 0.112091 8.92281 -0.140261 11.6464 0.0677752C13.4959 0.208108 15.2918 0.590944 16.9994 1.35415C17.7949 1.69128 18.5277 2.16862 19.1649 2.76486C20.2691 3.83459 20.2631 5.00649 19.1506 6.07252C18.3278 6.86158 17.3452 7.36506 16.3053 7.7602C14.2782 8.53326 12.1699 8.81885 9.89109 8.83485Z" fill="#F5C257"/>
<path d="M0.0128939 9.16699C3.9361 11.592 8.17173 12.013 12.5874 11.6573C12.5518 11.7243 12.512 11.7889 12.4682 11.8505C11.8516 12.6571 11.3371 13.5415 10.9371 14.4824C10.9103 14.5393 10.8715 14.5894 10.8237 14.629C10.7758 14.6686 10.7201 14.6967 10.6604 14.7114C8.25282 14.784 5.89055 14.4996 3.62487 13.6269C2.65301 13.2576 1.73362 12.775 0.948978 12.0512C0.321742 11.4702 -0.0610388 10.787 0.010509 9.88219C0.028396 9.65446 0.0128939 9.42427 0.0128939 9.16699Z" fill="#F5C257"/>
<path d="M0.012639 20.9834C0.645837 21.3195 1.23849 21.6666 1.85619 21.9546C3.45901 22.6995 5.16804 23.1718 6.917 23.353C8.14643 23.4848 9.38898 23.4934 10.6244 23.566C10.6731 23.5669 10.7211 23.5783 10.7652 23.5995C10.8094 23.6207 10.8487 23.6512 10.8808 23.6891C11.3577 24.5816 11.8252 25.4826 12.3117 26.4145C11.6332 26.4477 10.9094 26.5031 10.1855 26.5142C7.99022 26.5425 5.84379 26.2459 3.77725 25.4814C2.75411 25.0949 1.78941 24.6062 0.954685 23.8528C0.31314 23.2669 -0.0708335 22.5714 0.00071433 21.6555C0.028141 21.4364 0.012639 21.2136 0.012639 20.9834Z" fill="#F5C257"/>
<path d="M10.0486 17.6895V20.586C9.62291 20.586 9.18527 20.6082 8.75121 20.586C6.76099 20.4629 4.82324 20.0936 2.98804 19.2553C2.12589 18.8651 1.31859 18.3826 0.66631 17.655C0.213174 17.154 -0.0312815 16.5742 0.0104548 15.88C0.0259568 15.6202 0.0104548 15.3592 0.0104548 15.0527C3.10728 17.0383 6.51415 17.628 10.0486 17.6895Z" fill="#F5C257"/>
</g>
<defs>
<clipPath id="clip0_1_2153">
<rect width="30" height="28" fill="white"/>
</clipPath>
</defs>
</svg>
