<svg width="27" height="30" viewBox="0 0 27 30" fill="none" xmlns="http://www.w3.org/2000/svg">
<path d="M13.125 15C17.2676 15 20.625 11.6426 20.625 7.5C20.625 3.35742 17.2676 0 13.125 0C8.98242 0 5.625 3.35742 5.625 7.5C5.625 11.6426 8.98242 15 13.125 15ZM18.375 16.875H17.3965C16.0957 17.4727 14.6484 17.8125 13.125 17.8125C11.6016 17.8125 10.1602 17.4727 8.85352 16.875H7.875C3.52734 16.875 0 20.4023 0 24.75V27.1875C0 28.7402 1.25977 30 2.8125 30H23.4375C24.9902 30 26.25 28.7402 26.25 27.1875V24.75C26.25 20.4023 22.7227 16.875 18.375 16.875Z" fill="#F5C257"/>
</svg>
