<svg width="30" height="15" viewBox="0 0 30 15" fill="none" xmlns="http://www.w3.org/2000/svg">
<g clip-path="url(#clip0_1_2251)">
<path d="M30.0005 11.8387C29.9323 11.9672 29.8287 12.0715 29.703 12.1381C29.5774 12.2047 29.4355 12.2305 29.2956 12.2121H26.5835C26.6326 11.6776 26.5781 11.1382 26.4232 10.626C26.2683 10.1138 26.0162 9.63925 25.6819 9.23054C25.3476 8.82183 24.9378 8.48728 24.477 8.24676C24.0162 8.00624 23.5137 7.86465 22.9993 7.8304C22.5172 7.78077 22.0304 7.8335 21.5683 7.98541C21.1063 8.13732 20.6786 8.38525 20.3111 8.71421C19.8216 9.12274 19.4374 9.65192 19.1933 10.2539C18.9493 10.856 18.853 11.5119 18.9133 12.1623H10.8607C10.9064 11.6291 10.8494 11.0917 10.6931 10.5817C10.5368 10.0717 10.2844 9.59932 9.95051 9.19234C9.61665 8.78536 9.20815 8.45194 8.74896 8.21166C8.28978 7.97137 7.78916 7.82905 7.27648 7.79305C6.72073 7.76417 6.16548 7.8597 5.64815 8.0732C5.13081 8.2867 4.66338 8.61322 4.27734 9.03077C3.89131 9.44832 3.59562 9.9472 3.4102 10.4938C3.22478 11.0405 3.15392 11.6221 3.2024 12.1997H0.454493C0.389537 12.1966 0.325859 12.1798 0.267357 12.1503C0.208855 12.1207 0.15676 12.079 0.114261 12.0277C0.0717607 11.9764 0.0397501 11.9167 0.0201879 11.8521C0.000625642 11.7875 -0.0060767 11.7194 0.000491058 11.652C0.000491058 11.0296 0.000491058 10.4072 0.000491058 9.75986C0.00377215 9.6472 0.038216 9.53793 0.0996813 9.44518C0.161147 9.35243 0.247017 9.28015 0.346967 9.23704C0.393309 9.21284 0.43362 9.17776 0.464721 9.13455C0.495822 9.09135 0.516861 9.0412 0.526178 8.98807C0.693442 7.74326 0.836811 6.37397 0.992128 5.05446C1.0257 4.64385 1.21184 4.26312 1.51089 3.9934C1.80993 3.72368 2.19824 3.58628 2.59308 3.61048C2.86788 3.61048 3.14267 3.61048 3.41746 3.61048C3.58258 3.60339 3.74139 3.54243 3.87146 3.43621C4.91089 2.49015 5.97421 1.54409 6.96584 0.573137C7.34575 0.205325 7.84509 0.000777794 8.36369 0.000522738H15.1259C16.6136 -0.0186601 18.0631 0.490628 19.2359 1.44451C20.5262 2.4777 21.7687 3.54824 23.0471 4.59388C23.2069 4.72174 23.3897 4.81486 23.5847 4.86774L28.3637 6.11256C28.7219 6.1901 29.0408 6.40094 29.2607 6.70564C29.4806 7.01034 29.5864 7.38805 29.5584 7.76816V9.13745L29.9647 9.4611L30.0005 11.8387ZM19.6182 3.87189C18.9611 3.36152 18.3279 2.8138 17.6349 2.36567C16.8368 1.88632 15.9274 1.64515 15.0065 1.66857H10.9682L10.7532 1.69347V4.00882L20.3111 4.50675C20.0841 4.25778 19.8571 4.04616 19.6182 3.87189ZM9.12833 3.87189V1.69347C8.88095 1.63471 8.62337 1.64152 8.37917 1.71328C8.13496 1.78505 7.91193 1.91947 7.73048 2.10426C7.16895 2.65197 6.60742 3.16235 5.97421 3.73496L9.12833 3.87189Z" fill="#2B334F"/>
<path d="M22.7599 15.0004C22.1545 15.0028 21.562 14.818 21.0575 14.4694C20.5529 14.1207 20.159 13.6239 19.9257 13.0418C19.6924 12.4597 19.6301 11.8186 19.7468 11.1996C19.8634 10.5806 20.1538 10.0117 20.5811 9.56474C21.0083 9.11782 21.5533 8.81308 22.1469 8.6891C22.7405 8.56513 23.3561 8.62751 23.9157 8.86833C24.4752 9.10916 24.9536 9.5176 25.2902 10.0419C25.6268 10.5662 25.8065 11.1828 25.8065 11.8137C25.8003 12.6547 25.4777 13.4596 24.9081 14.0555C24.3384 14.6514 23.5671 14.9906 22.7599 15.0004ZM22.7599 12.7722C22.8786 12.7738 22.9964 12.7509 23.1065 12.7047C23.2166 12.6585 23.3168 12.59 23.4013 12.5032C23.4858 12.4163 23.5528 12.3128 23.5986 12.1987C23.6444 12.0846 23.668 11.9622 23.6679 11.8385C23.6827 11.7044 23.6701 11.5684 23.6309 11.4397C23.5917 11.3109 23.5268 11.1922 23.4405 11.0914C23.3542 10.9906 23.2484 10.91 23.1301 10.8548C23.0118 10.7995 22.8836 10.771 22.754 10.771C22.6243 10.771 22.4961 10.7995 22.3778 10.8548C22.2595 10.91 22.1538 10.9906 22.0675 11.0914C21.9812 11.1922 21.9163 11.3109 21.8771 11.4397C21.8379 11.5684 21.8252 11.7044 21.84 11.8385C21.8415 11.9628 21.8666 12.0855 21.9137 12.1997C21.9607 12.3138 22.0289 12.4172 22.1144 12.5039C22.1998 12.5906 22.3008 12.6589 22.4115 12.7049C22.5223 12.751 22.6407 12.7738 22.7599 12.7722Z" fill="#2B334F"/>
<path d="M10.0954 11.7891C10.1025 12.4198 9.92972 13.0385 9.59904 13.5669C9.26835 14.0953 8.7946 14.5095 8.23778 14.7572C7.68097 15.0048 7.06614 15.0747 6.47118 14.958C5.87621 14.8413 5.32787 14.5432 4.89561 14.1016C4.46334 13.6599 4.1666 13.0946 4.04297 12.4771C3.91934 11.8596 3.97437 11.2177 4.20111 10.6328C4.42784 10.048 4.81607 9.54634 5.31663 9.19152C5.81719 8.8367 6.40756 8.64465 7.01296 8.63967C7.82115 8.6363 8.59804 8.96506 9.17509 9.55464C9.75214 10.1442 10.0828 10.9471 10.0954 11.7891ZM7.96875 11.7891C7.96877 11.5337 7.87223 11.2886 7.70004 11.1068C7.52785 10.9251 7.29388 10.8214 7.0488 10.8181C6.92754 10.8164 6.8072 10.8401 6.69486 10.8877C6.58252 10.9352 6.48046 11.0058 6.39471 11.0951C6.30897 11.1844 6.24126 11.2908 6.1956 11.4078C6.14994 11.5249 6.12724 11.6503 6.12885 11.7766C6.12724 11.9013 6.14963 12.0251 6.19469 12.1406C6.23975 12.2562 6.30658 12.3611 6.39121 12.4493C6.47585 12.5375 6.57659 12.6071 6.68748 12.6541C6.79837 12.701 6.91716 12.7243 7.03685 12.7227C7.27018 12.7236 7.49536 12.6334 7.66791 12.4697C7.84046 12.3061 7.94781 12.081 7.96875 11.8388V11.7891Z" fill="#F5C257"/>
</g>
<defs>
<clipPath id="clip0_1_2251">
<rect width="30" height="15" fill="white"/>
</clipPath>
</defs>
</svg>
