<svg width="30" height="30" viewBox="0 0 30 30" fill="none" xmlns="http://www.w3.org/2000/svg">
<circle cx="15" cy="15" r="15" fill="#2B334F"/>
<path d="M21.6018 15.4785C21.5747 15.6269 21.574 15.76 21.5264 15.8723C20.9917 17.128 20.4494 18.3793 19.9112 19.6346C19.8785 19.7109 19.8428 19.7444 19.7538 19.7436C19.2485 19.7378 18.7433 19.7407 18.2378 19.7407H18.123V9.81873H19.5008V9.95185C19.5008 10.7171 19.5008 11.4824 19.5008 12.2477C19.5008 12.9022 19.9439 13.3539 20.5837 13.355C20.7968 13.355 21.0097 13.3566 21.2225 13.355C21.8107 13.3501 22.2649 12.8891 22.2679 12.2856C22.2718 11.5091 22.2679 10.7326 22.2679 9.95606V9.82694C22.9884 9.72244 23.4751 10.0488 23.6223 10.6376C23.6442 10.7348 23.6543 10.8343 23.6524 10.934C23.6539 13.4929 23.6539 16.0517 23.6524 18.6105C23.6524 19.2896 23.2082 19.742 22.5434 19.742C21.9444 19.742 21.3452 19.742 20.7459 19.742H20.625C20.6432 19.6936 20.6562 19.6533 20.6729 19.6144C21.1837 18.4285 21.694 17.2423 22.2038 16.056C22.2408 15.9644 22.2612 15.8666 22.264 15.7675C22.2729 15.561 22.2694 15.3535 22.2657 15.1463C22.2618 14.9245 22.12 14.7769 21.9032 14.7763C21.1236 14.774 20.3439 14.7763 19.5643 14.7763C19.547 14.7763 19.5294 14.7794 19.5052 14.7816V15.4785H21.6018Z" fill="white"/>
<path d="M11.8749 19.7403H11.7486C10.3161 19.7403 8.88357 19.7403 7.45106 19.7403C6.78707 19.7403 6.34657 19.289 6.34657 18.607C6.34599 16.0528 6.3457 13.4985 6.3457 10.9441C6.3457 10.3746 6.66211 9.95036 7.17169 9.83655C7.24942 9.82021 7.32861 9.81225 7.40796 9.81281C8.86199 9.81148 10.3161 9.81118 11.7703 9.81192H11.8749V19.7403ZM10.4984 14.781C10.4984 14.075 10.4994 13.3693 10.4984 12.6633C10.4971 12.0876 10.0971 11.6325 9.53724 11.5921C9.25298 11.5708 8.96758 11.5708 8.68332 11.5921C8.42393 11.6095 8.18083 11.7278 8.00389 11.9229C7.82695 12.118 7.72957 12.375 7.73173 12.6413C7.72668 14.0642 7.72668 15.487 7.73173 16.9098C7.73346 17.4374 8.09534 17.8742 8.60796 17.9459C8.87736 17.9836 9.15479 17.9647 9.42874 17.9649C10.0492 17.9649 10.4971 17.503 10.4975 16.8652C10.4984 16.1704 10.4987 15.4757 10.4984 14.781Z" fill="white"/>
<path d="M12.5781 19.7321V9.82129H17.4179V19.7321H12.5781ZM16.3836 14.779C16.3836 14.0691 16.386 13.3591 16.3836 12.6492C16.3804 12.0927 15.9828 11.6381 15.4413 11.5953C15.1428 11.5718 14.843 11.5723 14.5445 11.5969C14.2933 11.6189 14.0591 11.7362 13.8878 11.9257C13.7164 12.1152 13.6202 12.3633 13.6179 12.6216C13.6122 14.059 13.6122 15.4965 13.6179 16.9342C13.6198 17.4303 13.986 17.8716 14.4636 17.9406C14.7364 17.9799 15.0173 17.9643 15.2947 17.965C15.9388 17.967 16.3834 17.5113 16.3843 16.8521C16.3847 16.1611 16.3845 15.4701 16.3836 14.779Z" fill="white"/>
<path d="M20.1934 9.82031H21.5777V9.94811C21.5777 10.7054 21.5777 11.4625 21.5777 12.2195C21.5777 12.5153 21.4499 12.6473 21.164 12.6477C20.9659 12.6477 20.7675 12.6491 20.5693 12.6477C20.3289 12.6457 20.1936 12.5069 20.1936 12.263C20.1936 11.4835 20.1936 10.7042 20.1936 9.92503L20.1934 9.82031Z" fill="white"/>
<path d="M9.80713 14.781C9.80713 15.4648 9.80713 16.1486 9.80713 16.8323C9.80713 17.129 9.68152 17.2572 9.3924 17.2577C9.19034 17.2577 8.98829 17.2592 8.78601 17.2577C8.57833 17.2554 8.43951 17.1219 8.42348 16.9113C8.42132 16.8856 8.42197 16.8594 8.42197 16.8337C8.42197 15.4626 8.42197 14.0914 8.42197 12.7201C8.42197 12.4279 8.55451 12.2932 8.83951 12.2926C9.03442 12.2926 9.22933 12.2913 9.42424 12.2926C9.66852 12.2946 9.80626 12.4352 9.80669 12.6857C9.80785 13.3843 9.80799 14.0827 9.80713 14.781Z" fill="white"/>
<path d="M15.692 14.7739C15.692 15.4691 15.692 16.1643 15.692 16.8594C15.692 17.1172 15.5564 17.2572 15.3057 17.2588C15.0962 17.2588 14.887 17.2601 14.6776 17.2588C14.4491 17.257 14.3075 17.1117 14.3073 16.8756C14.3064 15.4783 14.3064 14.081 14.3073 12.6835C14.3073 12.4417 14.4478 12.2968 14.6841 12.2942C14.897 12.2915 15.1099 12.2911 15.3228 12.2942C15.5528 12.2977 15.6909 12.4439 15.6909 12.6791C15.6919 13.3769 15.6923 14.0752 15.692 14.7739Z" fill="white"/>
</svg>
