<svg width="30" height="30" viewBox="0 0 30 30" fill="none" xmlns="http://www.w3.org/2000/svg">
<circle cx="15" cy="15" r="15" fill="#2B334F"/>
<path d="M12.9652 9.65131H17.3688C17.5815 12.9904 17.7944 16.3306 18.0073 19.6721H12.3281C12.5404 16.3319 12.7528 12.9917 12.9652 9.65131Z" fill="white"/>
<path d="M11.5078 20.0859H18.8229C18.7804 20.2911 18.74 20.4892 18.698 20.6863C18.6146 21.0782 18.5309 21.4698 18.4469 21.8611C18.4101 22.0371 18.3114 22.1957 18.1674 22.31C18.0233 22.4243 17.8428 22.4875 17.656 22.489C17.4264 22.492 17.1969 22.4899 16.9673 22.4899H12.7345C12.2674 22.4899 11.9594 22.2411 11.8678 21.7986C11.7576 21.2655 11.6424 20.7332 11.5297 20.2007C11.5223 20.1659 11.5164 20.1314 11.5078 20.0859Z" fill="white"/>
<path d="M12.3942 9.79283C12.3758 10.0519 12.3593 10.3039 12.3413 10.5555C12.301 11.1162 12.2607 11.6768 12.2203 12.2373C12.1738 12.8798 12.1273 13.5225 12.0809 14.1654C12.0416 14.7113 12.0024 15.2572 11.9634 15.803C11.923 16.3666 11.8824 16.9301 11.8416 17.4935C11.8023 18.0423 11.7633 18.5911 11.7245 19.1399C11.7147 19.275 11.7061 19.4103 11.6916 19.5447C11.6885 19.5587 11.6818 19.5718 11.6722 19.5828C11.6626 19.5939 11.6503 19.6025 11.6365 19.6079C11.361 19.6626 11.083 19.6785 10.8101 19.6058C10.3326 19.4788 10.0664 19.167 9.97986 18.7052C9.92477 18.4126 9.98133 18.1251 10.0241 17.8369C10.1254 17.1528 10.2269 16.4688 10.3288 15.7849C10.4239 15.1387 10.518 14.4924 10.611 13.846C10.7076 13.1762 10.8002 12.506 10.8992 11.8366C10.946 11.5196 10.991 11.2009 11.0593 10.8887C11.1836 10.3266 11.5585 9.98972 12.13 9.84581C12.2034 9.82726 12.278 9.81049 12.3523 9.79283C12.3663 9.79163 12.3803 9.79163 12.3942 9.79283Z" fill="white"/>
<path d="M17.957 9.79388C18.59 9.8179 19.1371 10.253 19.2855 10.8684C19.363 11.191 19.4045 11.5218 19.4532 11.8504C19.545 12.473 19.6306 13.0965 19.7202 13.7195C19.8146 14.3744 19.9099 15.0292 20.0061 15.6838C20.1058 16.3617 20.2098 17.0391 20.3067 17.7174C20.3435 17.9674 20.3866 18.2192 20.3877 18.4703C20.3912 19.1943 19.8996 19.6547 19.1478 19.6503C19.0141 19.6503 18.8806 19.624 18.7467 19.615C18.676 19.6105 18.6549 19.5784 18.651 19.5154C18.6327 19.2277 18.6117 18.9402 18.5912 18.6527C18.5446 18.0074 18.498 17.362 18.4514 16.7165C18.4122 16.1737 18.3733 15.6309 18.3346 15.0882C18.2878 14.4369 18.2409 13.7856 18.1939 13.1343C18.1546 12.5856 18.1156 12.037 18.0768 11.4884C18.0382 10.9456 17.9996 10.4027 17.9609 9.85993C17.9596 9.84068 17.9587 9.82073 17.957 9.79388Z" fill="white"/>
<path d="M15.1652 9.13831C14.6878 9.13831 14.2103 9.13831 13.7328 9.13831C13.2346 9.13831 12.8813 8.80086 12.8813 8.32373C12.8813 8.18882 12.8767 8.05179 12.8985 7.91935C12.9277 7.74804 13.0169 7.59145 13.1513 7.47555C13.2857 7.35964 13.4572 7.29138 13.6375 7.28206C13.787 7.27394 13.9372 7.278 14.0872 7.278C14.9164 7.278 15.7457 7.28683 16.5747 7.27447C17.0779 7.26688 17.4723 7.6287 17.451 8.12207C17.4452 8.25981 17.4536 8.40125 17.4237 8.5344C17.3436 8.89163 17.0167 9.13637 16.634 9.13831C16.1444 9.14026 15.6546 9.13831 15.1652 9.13831Z" fill="white"/>
<path d="M9.8554 6.34174C9.99883 6.75459 10.1351 7.1466 10.271 7.53862C10.3107 7.65287 10.3531 7.76624 10.3876 7.8819C10.406 7.94247 10.4409 7.97178 10.502 7.99121C11.001 8.14837 11.499 8.30906 11.997 8.46798C12.025 8.47681 12.0521 8.48741 12.1028 8.50559C11.9846 8.54444 11.8885 8.57623 11.7919 8.60766C11.3604 8.74628 10.9288 8.8856 10.4967 9.02157C10.4707 9.02804 10.447 9.04111 10.428 9.0594C10.409 9.0777 10.3955 9.10055 10.3889 9.12558C10.2155 9.63326 10.039 10.1397 9.85632 10.6675C9.83796 10.6216 9.82529 10.5937 9.81537 10.5651C9.65009 10.0883 9.48334 9.61313 9.32174 9.13582C9.29897 9.0689 9.26279 9.03729 9.19502 9.01716C8.66705 8.86035 8.14018 8.70019 7.61312 8.54038C7.58429 8.53173 7.55564 8.52272 7.5 8.50506C7.55105 8.48741 7.5797 8.47716 7.6089 8.46834C8.13908 8.30941 8.66907 8.14819 9.19998 7.99156C9.26536 7.97213 9.29805 7.94017 9.31953 7.87696C9.48628 7.38888 9.65744 6.90204 9.82731 6.41484C9.83227 6.39842 9.83961 6.38253 9.8554 6.34174Z" fill="white"/>
<path d="M19.4655 19.9531C19.8436 20.0071 20.2158 20.0542 20.5435 20.2513C20.6957 20.343 20.7343 20.4976 20.7576 20.6536C20.7961 20.9128 20.7352 21.1579 20.6119 21.3866C20.3144 21.9386 19.8675 22.3193 19.2254 22.4606C19.1053 22.487 18.9786 22.4858 18.8359 22.4991C19.048 21.6414 19.2545 20.8054 19.4655 19.9531Z" fill="white"/>
<path d="M11.4924 22.4847C11.2159 22.5067 10.9385 22.4515 10.6938 22.3257C10.1271 22.0407 9.73278 21.6169 9.58587 21.0056C9.54199 20.8235 9.55535 20.633 9.62425 20.4582C9.65762 20.3625 9.72637 20.2819 9.81744 20.2318C10.1405 20.0538 10.4993 20.0042 10.8666 19.9521C11.0761 20.8011 11.284 21.639 11.4924 22.4847Z" fill="white"/>
<path d="M13.3341 6.4775L12.7143 6.67704C12.6159 6.70882 12.5188 6.74555 12.4185 6.7701C12.3469 6.78776 12.3155 6.82661 12.2938 6.89124C12.2044 7.15964 12.1102 7.42646 12.0172 7.69381C12.0115 7.71023 12.004 7.72612 11.9902 7.75985C11.9592 7.67297 11.9328 7.60093 11.908 7.52941C11.8327 7.31221 11.7559 7.09537 11.6843 6.87693C11.6779 6.85184 11.6644 6.82895 11.6452 6.81081C11.6261 6.79267 11.6021 6.77998 11.5759 6.77416C11.2551 6.68039 10.9352 6.58292 10.5918 6.48068C10.643 6.46302 10.6744 6.44978 10.7069 6.44006C10.9923 6.35389 11.2773 6.2663 11.5638 6.18366C11.6292 6.16495 11.6641 6.13457 11.6852 6.071C11.7809 5.78317 11.8821 5.49711 11.9877 5.19232C12.006 5.23965 12.0204 5.2702 12.0314 5.30145C12.1232 5.56279 12.215 5.82396 12.3037 6.08654C12.3096 6.10875 12.3217 6.12899 12.3387 6.14507C12.3557 6.16116 12.3769 6.17249 12.4001 6.17784C12.6732 6.26277 12.9452 6.35142 13.2173 6.439C13.2482 6.44836 13.2789 6.45896 13.3341 6.4775Z" fill="white"/>
</svg>
