<svg width="22" height="24" viewBox="0 0 22 24" fill="none" xmlns="http://www.w3.org/2000/svg">
<path d="M19.9944 14.6845L20.8967 14.1858L19.8992 12.3806L18.9969 12.8794C18.305 13.2622 17.692 13.7728 17.1903 14.3841L13.0625 12L17.1908 9.61594C17.6924 10.2272 18.3054 10.7378 18.9973 11.1206L19.8997 11.6194L20.8972 9.81422L19.9948 9.31547C19.6325 9.11537 19.3019 8.86261 19.0138 8.56547L21.5 7.12734L20.4688 5.34375L17.9844 6.77719C17.8704 6.37881 17.8164 5.96569 17.8241 5.55141L17.8433 4.52016L15.7808 4.48172L15.7616 5.51297C15.747 6.30288 15.8821 7.08841 16.1595 7.82812L12.0312 10.2136V5.44594C12.8113 5.31692 13.5598 5.04127 14.2372 4.63359L15.1203 4.10156L14.0558 2.33484L13.1727 2.86687C12.8177 3.08033 12.433 3.24003 12.0312 3.34078V0.75H9.96875V3.34078C9.56697 3.24003 9.18233 3.08033 8.82734 2.86687L7.94422 2.33484L6.87969 4.10156L7.76281 4.63359C8.44022 5.04127 9.18873 5.31692 9.96875 5.44594V10.2136L5.84047 7.82812C6.11882 7.08795 6.25449 6.30175 6.24031 5.51109L6.22109 4.47984L4.15859 4.51828L4.17781 5.54953C4.1855 5.96382 4.13147 6.37694 4.0175 6.77531L1.53125 5.34375L0.5 7.12969L2.98672 8.56594C2.69858 8.86308 2.36795 9.11584 2.00563 9.31594L1.10328 9.81422L2.10078 11.6194L3.00313 11.1206C3.69502 10.7378 4.30804 10.2272 4.80969 9.61594L8.9375 12L4.80922 14.3841C4.30757 13.7728 3.69455 13.2622 3.00266 12.8794L2.10078 12.3806L1.10328 14.1858L2.00563 14.6845C2.36795 14.8846 2.69858 15.1374 2.98672 15.4345L0.5 16.875L1.53125 18.6609L4.01797 17.2252C4.13194 17.6235 4.18597 18.0367 4.17828 18.4509L4.15906 19.4822L6.22156 19.5206L6.24078 18.4894C6.25487 17.6985 6.11904 16.9122 5.84047 16.1719L9.96875 13.7864V18.5541C9.18873 18.6831 8.44022 18.9587 7.76281 19.3664L6.87969 19.8984L7.94422 21.6652L8.82734 21.1331C9.18233 20.9197 9.56697 20.76 9.96875 20.6592V23.25H12.0312V20.6592C12.433 20.76 12.8177 20.9197 13.1727 21.1331L14.0558 21.6652L15.1203 19.8984L14.2372 19.3664C13.5598 18.9587 12.8113 18.6831 12.0312 18.5541V13.7864L16.1595 16.1719C15.8812 16.9121 15.7455 17.6982 15.7597 18.4889L15.7789 19.5202L17.8414 19.4817L17.8222 18.4505C17.8149 18.0355 17.8696 17.6217 17.9844 17.2228L20.4688 18.6586L21.5 16.875L19.0156 15.4364C19.3029 15.1388 19.6328 14.8854 19.9944 14.6845Z" fill="#7CC0FF"/>
</svg>
