<svg width="30" height="30" viewBox="0 0 30 30" fill="none" xmlns="http://www.w3.org/2000/svg">
<circle cx="15" cy="15" r="15" fill="#F5C257"/>
<g clip-path="url(#clip0_1_2339)">
<path d="M11.0685 27.7284C11.5076 27.7284 11.8636 22.0299 11.8636 15.0004C11.8636 7.97097 11.5076 2.27246 11.0685 2.27246C10.6294 2.27246 10.2734 7.97097 10.2734 15.0004C10.2734 22.0299 10.6294 27.7284 11.0685 27.7284Z" fill="white"/>
<path d="M12.7562 24.0006C12.7562 22.9167 12.754 21.8328 12.7604 20.7493C12.7604 20.6755 12.8012 20.5707 12.8608 20.5331C13.9161 19.8651 14.9769 19.2038 16.037 18.5418C16.0565 18.5295 16.0786 18.5204 16.1195 18.5C16.1236 18.5703 16.1292 18.6241 16.1296 18.6789C16.1296 19.5461 16.1296 20.4133 16.1296 21.2805C16.1296 22.6776 15.1898 23.726 13.7208 23.9721C13.6979 23.9789 13.6761 23.9886 13.6559 24.0009L12.7562 24.0006Z" fill="white"/>
<path d="M8.48201 24.0009C8.19862 23.9182 7.89798 23.8683 7.63521 23.747C6.60547 23.2721 6.0458 22.4853 6.01394 21.4074C5.98657 20.4831 6.00794 19.5582 6.00794 18.6332C6.00794 18.5945 6.01244 18.5555 6.01581 18.4961C6.08441 18.5351 6.13689 18.5625 6.18675 18.5938C7.20362 19.2295 8.22111 19.8645 9.23923 20.4989C9.28702 20.5235 9.32616 20.5606 9.35192 20.6057C9.37767 20.6507 9.38892 20.7018 9.3843 20.7528C9.37943 21.8356 9.38168 22.918 9.38168 24.0009H8.48201Z" fill="white"/>
<path d="M13.656 6C13.8059 6.03516 13.9559 6.06645 14.1058 6.10547C15.2679 6.41941 16.1143 7.44141 16.1263 8.55727C16.1263 8.62758 16.0911 8.72566 16.036 8.76117C14.9716 9.44578 13.9039 10.1255 12.8328 10.8002C12.8086 10.8114 12.7836 10.8207 12.7578 10.828V6H13.656Z" fill="white"/>
<path d="M9.38114 6V10.8284C9.33985 10.8121 9.29967 10.7934 9.26081 10.7725C8.21695 10.1101 7.17347 9.44813 6.13036 8.78648C6.03702 8.72637 6.00441 8.66238 6.00591 8.55762C6.0269 7.33594 7.03677 6.24328 8.34166 6.03516C8.38892 6.02586 8.4356 6.01412 8.48148 6H9.38114Z" fill="white"/>
<path d="M22.4155 19.9625C20.9104 22.0409 18.8746 23.3276 16.2554 23.8086L16.3896 23.6496C16.959 22.9739 17.2518 22.2065 17.2541 21.3434C17.2541 21.0098 17.26 20.6754 17.2511 20.3421C17.2481 20.2212 17.2912 20.1597 17.4036 20.0989C19.2198 19.1145 20.2968 17.6488 20.5776 15.7022C20.9101 13.3991 19.6621 11.1161 17.4842 9.97527C17.308 9.88316 17.2443 9.79 17.2481 9.60051C17.2571 9.13855 17.2582 8.67414 17.2181 8.2143C17.1592 7.53824 16.8691 6.93918 16.4309 6.40234C16.3746 6.33379 16.3184 6.26594 16.2266 6.15625C18.8794 6.68922 20.9412 7.94922 22.4095 10.0765L20.4936 11.1164C20.6829 11.4234 20.8658 11.7204 21.0559 12.028L22.9793 10.9885C24.3513 13.6758 24.3329 16.3463 22.9819 19.047L21.0574 18.0078C20.8699 18.3087 20.6881 18.6037 20.4951 18.9176L22.4155 19.9625Z" fill="white"/>
<path d="M12.7548 19.3082V18.0074C12.7548 17.498 12.751 16.9879 12.7589 16.4795C12.7589 16.411 12.8009 16.3154 12.8571 16.2795C13.9177 15.6089 14.9813 14.9426 16.0479 14.2805C16.0694 14.2696 16.0914 14.2597 16.1139 14.251C16.1195 14.3013 16.1278 14.3438 16.1278 14.3863C16.1278 15.2821 16.1304 16.1793 16.124 17.0737C16.124 17.1422 16.0824 17.2386 16.0262 17.2741C14.9656 17.9444 13.902 18.6105 12.8354 19.2723C12.8093 19.2857 12.7824 19.2977 12.7548 19.3082Z" fill="white"/>
<path d="M12.7548 15.0553V13.8952C12.7548 13.3506 12.751 12.8054 12.7589 12.2615C12.7589 12.1912 12.8005 12.0973 12.8568 12.0614C13.9172 11.3907 14.9826 10.7273 16.0472 10.0625C16.0686 10.0512 16.0908 10.0411 16.1135 10.0322C16.1192 10.0825 16.1278 10.1247 16.1278 10.1672C16.1278 11.0514 16.1304 11.9352 16.124 12.8194C16.124 12.8897 16.0832 12.9846 16.0266 13.0202C14.9665 13.6905 13.903 14.3566 12.8361 15.0184C12.8097 15.0321 12.7826 15.0444 12.7548 15.0553Z" fill="white"/>
<path d="M18.5344 17.8585C18.1123 17.6303 17.7191 17.4194 17.3285 17.2039C17.3093 17.192 17.2931 17.1765 17.2809 17.1583C17.2687 17.1401 17.2608 17.1197 17.2576 17.0984C17.2524 16.7148 17.2542 16.3313 17.2542 15.915L19.0772 16.8991C18.8935 17.2246 18.7173 17.5361 18.5344 17.8585Z" fill="white"/>
<path d="M18.5208 12.1846C18.7101 12.4908 18.89 12.7822 19.0831 13.0958L17.2541 14.0862C17.2541 13.8338 17.2841 13.6059 17.2474 13.388C17.1799 12.9868 17.3403 12.7516 17.7347 12.5998C18.0027 12.4985 18.2434 12.3347 18.5208 12.1846Z" fill="white"/>
<path d="M19.4125 14.1377C19.5329 14.7066 19.5301 15.2925 19.4042 15.8603C19.0668 15.6772 18.7441 15.5046 18.4247 15.3277C18.4105 15.3182 18.3987 15.3058 18.39 15.2916C18.3813 15.2773 18.376 15.2615 18.3745 15.2451C18.37 15.0811 18.37 14.917 18.3745 14.7529C18.3768 14.7366 18.3827 14.721 18.3919 14.707C18.401 14.693 18.4132 14.681 18.4277 14.6717C18.7482 14.4956 19.0706 14.3226 19.4125 14.1377Z" fill="white"/>
<path d="M17.2637 11.0791L17.7367 11.3906L17.2637 11.643V11.0791Z" fill="white"/>
<path d="M17.2695 18.3945L17.7329 18.6434L17.2699 18.9521L17.2695 18.3945Z" fill="white"/>
<path d="M9.3709 19.3086C9.30268 19.2692 9.2502 19.2411 9.19997 19.2098C8.18735 18.577 7.17435 17.9442 6.16098 17.3114C6.05077 17.2432 6.00317 17.1739 6.00391 17.0456C6.01066 16.1206 6.00766 15.1953 6.00766 14.2461C6.06314 14.2725 6.1055 14.2876 6.14261 14.3104C7.18097 14.9592 8.21808 15.6096 9.25395 16.2616C9.31392 16.2996 9.37428 16.3857 9.37465 16.45C9.38252 17.3694 9.38027 18.2887 9.3799 19.208C9.38102 19.2365 9.37578 19.2636 9.3709 19.3086Z" fill="white"/>
<path d="M6.00748 10.0098L6.63012 10.3965C7.50254 10.9419 8.37409 11.4882 9.24477 12.0355C9.30324 12.0724 9.37484 12.1448 9.37522 12.2014C9.38346 13.1439 9.38084 14.0865 9.38084 15.0596C9.31037 15.0188 9.25939 14.9918 9.21028 14.9612C8.19253 14.3262 7.17629 13.6878 6.15592 13.0557C6.04347 12.9854 6.00336 12.913 6.00598 12.7871C6.0101 11.8737 6.00748 10.9607 6.00748 10.0098Z" fill="white"/>
</g>
<defs>
<clipPath id="clip0_1_2339">
<rect width="18" height="18" fill="white" transform="translate(6 6)"/>
</clipPath>
</defs>
</svg>
