<svg width="26" height="26" viewBox="0 0 26 26" fill="none" xmlns="http://www.w3.org/2000/svg">
<path d="M13.0005 0.499023C19.9055 0.499023 25.503 6.09652 25.503 13.0015C25.503 19.9053 19.9055 25.5028 13.0005 25.5028C6.09555 25.5028 0.498047 19.9053 0.498047 13.0015C0.498047 6.09652 6.09555 0.499023 13.0005 0.499023ZM13.0005 14.8728C12.0019 14.8717 11.0132 15.0705 10.0926 15.4576C9.17208 15.8447 8.33833 16.4121 7.64055 17.1265C7.4665 17.3042 7.37017 17.5438 7.37275 17.7925C7.37533 18.0412 7.4766 18.2787 7.6543 18.4528C7.83199 18.6268 8.07155 18.7232 8.32027 18.7206C8.56899 18.718 8.8065 18.6167 8.98055 18.439C9.50354 17.9026 10.1287 17.4765 10.8192 17.1858C11.5097 16.8951 12.2514 16.7457 13.0005 16.7465C14.5318 16.7465 15.963 17.359 17.0143 18.4303C17.1894 18.6033 17.4256 18.7006 17.6718 18.7009C17.9181 18.7013 18.1546 18.6048 18.3302 18.4323C18.5059 18.2597 18.6066 18.025 18.6106 17.7788C18.6147 17.5326 18.5217 17.2947 18.3518 17.1165C17.6542 16.405 16.8215 15.84 15.9026 15.4547C14.9836 15.0694 13.997 14.8716 13.0005 14.8728ZM9.25055 8.93902C9.04172 8.93312 8.83383 8.96914 8.63917 9.04498C8.44451 9.12081 8.26703 9.23491 8.11724 9.38053C7.96744 9.52615 7.84837 9.70033 7.76706 9.89276C7.68575 10.0852 7.64386 10.292 7.64386 10.5009C7.64386 10.7098 7.68575 10.9166 7.76706 11.109C7.84837 11.3015 7.96744 11.4757 8.11724 11.6213C8.26703 11.7669 8.44451 11.881 8.63917 11.9568C8.83383 12.0327 9.04172 12.0687 9.25055 12.0628C9.66495 12.0628 10.0624 11.8982 10.3554 11.6051C10.6484 11.3121 10.813 10.9147 10.813 10.5003C10.813 10.0859 10.6484 9.68844 10.3554 9.39542C10.0624 9.10239 9.66495 8.93777 9.25055 8.93777V8.93902ZM16.7505 8.93902C16.5417 8.93312 16.3338 8.96914 16.1392 9.04498C15.9445 9.12081 15.767 9.23491 15.6172 9.38053C15.4674 9.52615 15.3484 9.70033 15.2671 9.89276C15.1858 10.0852 15.1439 10.292 15.1439 10.5009C15.1439 10.7098 15.1858 10.9166 15.2671 11.109C15.3484 11.3015 15.4674 11.4757 15.6172 11.6213C15.767 11.7669 15.9445 11.881 16.1392 11.9568C16.3338 12.0327 16.5417 12.0687 16.7505 12.0628C17.1571 12.0513 17.5432 11.8817 17.8267 11.59C18.1102 11.2984 18.2689 10.9076 18.2689 10.5009C18.2689 10.0941 18.1102 9.70343 17.8267 9.41178C17.5432 9.12013 17.1571 8.95053 16.7505 8.93902Z" fill="#F5C257"/>
</svg>
